g arc_half_ring
v 0.08061525 0.03589221 0.01618034
v 0.09135464 0.04067369 0.02
v 0.09781485 0.02079117 0.02
v 0.08631603 0.01834702 0.01618034
v 0.07139121 0.05186873 0.01618034
v 0.08090179 0.05877857 0.02
v 0.05904702 0.06557833 0.01618034
v 0.06691313 0.07431453 0.02
v 0.0441222 0.07642186 0.01618034
v 0.05000006 0.0866026 0.02
v 0.02726902 0.08392538 0.01618034
v 0.03090174 0.09510572 0.02
v 0.009224063 0.08776096 0.01618034
v 0.01045287 0.09945226 0.02
v -0.009224033 0.08776096 0.01618034
v -0.01045284 0.09945226 0.02
v -0.027269 0.08392538 0.01618034
v -0.03090171 0.09510573 0.02
v -0.04412217 0.07642186 0.01618034
v -0.05000002 0.08660261 0.02
v -0.05904699 0.06557834 0.01618034
v -0.06691309 0.07431454 0.02000001
v -0.07139117 0.05186873 0.01618034
v -0.08090173 0.05877857 0.02
v -0.08061522 0.03589221 0.01618034
v -0.09135459 0.0406737 0.02
v -0.08631599 0.01834704 0.01618034
v -0.09781481 0.02079119 0.02
v -0.08824433 8.34465E-09 0.01618034
v -0.1 9.536743E-09 0.02
v -0.08631598 -0.01834702 0.01618034
v -0.09781481 -0.02079117 0.02
v -0.09135458 -0.04067367 0.02
v -0.08061521 -0.03589219 0.01618034
v -0.05587788 0.09678336 0.01618034
v -0.03453442 0.1062861 0.01618034
v -0.0747792 0.08305074 0.01618034
v -0.09041231 0.06568841 0.01618034
v -0.102094 0.04545517 0.01618034
v -0.1093136 0.02323534 0.01618034
v -0.1117558 9.536743E-09 0.01618034
v -0.1093136 -0.02323532 0.01618034
v -0.102094 -0.04545515 0.01618034
v -0.03677956 0.1131959 0.006180344
v -0.01244109 0.1183692 0.006180344
v -0.01168164 0.1111436 0.01618034
v 0.01168168 0.1111436 0.01618034
v 0.03453446 0.1062861 0.01618034
v 0.05587792 0.09678335 0.01618034
v 0.07477924 0.08305073 0.01618034
v 0.09041236 0.0656884 0.01618034
v 0.102094 0.04545517 0.01618034
v 0.1093137 0.02323532 0.01618034
v 0.1117557 0 0.01618034
v 0.09999999 0 0.02
v 0.0882443 0 0.01618034
v 0.09781476 -0.02079117 0.02
v 0.08631594 -0.01834702 0.01618034
v 0.09135455 -0.04067367 0.02
v 0.08061519 -0.03589219 0.01618034
v 0.1020939 -0.04545515 0.01618034
v 0.1093136 -0.02323532 0.01618034
v 0.1164204 0.02474589 0.006180341
v 0.1087313 0.04841029 0.006180339
v 0.09629022 0.06995893 0.006180339
v 0.07964078 0.08845 0.006180344
v 0.05951064 0.1030754 0.006180344
v 0.0367796 0.1131959 0.006180344
v 0.01244113 0.1183692 0.006180344
v 0.1164204 0.02474589 -0.006180341
v 0.1087313 0.04841028 -0.006180344
v 0.09629022 0.06995892 -0.006180344
v 0.07964078 0.08845 -0.006180344
v 0.05951064 0.1030754 -0.006180344
v 0.0367796 0.1131959 -0.006180344
v 0.01244113 0.1183692 -0.006180344
v -0.01244109 0.1183692 -0.006180344
v -0.03677956 0.1131959 -0.006180344
v -0.0595106 0.1030754 0.006180344
v -0.07964072 0.08845001 0.006180344
v -0.09629018 0.06995893 0.006180339
v -0.1087313 0.0484103 0.006180339
v -0.1164203 0.02474591 0.006180341
v -0.1190212 1.072884E-08 0.006180341
v -0.1164203 -0.02474589 0.006180341
v -0.1087313 -0.04841026 0.006180344
v -0.0595106 0.1030754 -0.006180344
v -0.07964072 0.08845001 -0.006180344
v -0.09629018 0.06995893 -0.006180344
v -0.1087313 0.04841029 -0.006180344
v -0.1164203 0.02474591 -0.006180341
v -0.1190212 1.072884E-08 -0.006180341
v -0.1164203 -0.02474589 -0.006180341
v -0.1087313 -0.04841027 -0.006180339
v -0.03453442 0.1062861 -0.01618034
v -0.01168164 0.1111436 -0.01618034
v 0.01168168 0.1111436 -0.01618034
v 0.03453446 0.1062861 -0.01618034
v 0.05587792 0.09678336 -0.01618034
v 0.07477925 0.08305074 -0.01618035
v 0.09041236 0.06568841 -0.01618035
v 0.102094 0.04545517 -0.01618035
v 0.1093137 0.02323532 -0.01618035
v 0.1117557 0 -0.01618035
v 0.1190211 0 -0.006180341
v 0.1190211 0 0.006180341
v 0.1164202 -0.02474589 0.006180341
v 0.1087312 -0.04841026 0.006180344
v 0.1087312 -0.04841026 -0.006180339
v 0.1164202 -0.02474589 -0.006180341
v 0.1020939 -0.04545515 -0.01618034
v 0.1093136 -0.02323532 -0.01618035
v 0.09135455 -0.04067367 -0.02000001
v 0.09781476 -0.02079117 -0.02000001
v 0.09999999 0 -0.02000001
v 0.08061518 -0.03589218 -0.01618035
v 0.08631594 -0.01834702 -0.01618035
v 0.08824428 0 -0.01618035
v 0.09781485 0.02079118 -0.02000001
v 0.09135464 0.04067369 -0.02000001
v 0.08090179 0.05877857 -0.02000001
v 0.06691313 0.07431453 -0.02000001
v 0.05000006 0.0866026 -0.02000001
v 0.03090174 0.09510572 -0.02000001
v 0.01045287 0.09945226 -0.02000001
v -0.01045284 0.09945226 -0.02000001
v -0.03090171 0.09510573 -0.02000001
v -0.05587788 0.09678336 -0.01618034
v -0.07477921 0.08305074 -0.01618035
v -0.09041232 0.06568842 -0.01618035
v -0.102094 0.04545518 -0.01618035
v -0.1093136 0.02323534 -0.01618035
v -0.1117558 9.536743E-09 -0.01618035
v -0.1093136 -0.02323532 -0.01618035
v -0.102094 -0.04545515 -0.01618034
v -0.05000002 0.08660261 -0.02000001
v -0.06691309 0.07431454 -0.02000001
v -0.08090173 0.05877857 -0.02000001
v -0.09135459 0.0406737 -0.02000001
v -0.09781481 0.02079119 -0.02000001
v -0.1 9.536743E-09 -0.02000001
v -0.09781481 -0.02079117 -0.02000001
v -0.09135458 -0.04067367 -0.02000001
v -0.02726899 0.08392537 -0.01618035
v -0.009224032 0.08776094 -0.01618035
v 0.009224062 0.08776094 -0.01618035
v 0.02726902 0.08392537 -0.01618035
v 0.04412219 0.07642184 -0.01618035
v 0.05904702 0.06557833 -0.01618035
v 0.0713912 0.05186872 -0.01618035
v 0.08061524 0.0358922 -0.01618035
v 0.08631602 0.01834702 -0.01618035
v -0.04412216 0.07642186 -0.01618035
v -0.05904698 0.06557834 -0.01618035
v -0.07139116 0.05186873 -0.01618035
v -0.08061521 0.03589221 -0.01618035
v -0.08631598 0.01834704 -0.01618035
v -0.08824432 8.34465E-09 -0.01618035
v -0.08631597 -0.01834702 -0.01618035
v -0.08061519 -0.03589219 -0.01618035
vt 0.2102103 1
vt 0.2102103 0.853694
vt 0.1576578 0.853694
vt 0.1576578 1
vt 0.2627629 1
vt 0.2627629 0.853694
vt 0.3153155 1
vt 0.3153155 0.853694
vt 0.367868 1
vt 0.367868 0.853694
vt 0.4204205 1
vt 0.4204205 0.853694
vt 0.4729731 1
vt 0.4729731 0.853694
vt 0.5255256 1
vt 0.5255256 0.853694
vt 0.5780783 1
vt 0.5780783 0.853694
vt 0.6306308 1
vt 0.6306308 0.853694
vt 0.6831833 1
vt 0.6831833 0.853694
vt 0.7357359 1
vt 0.7357359 0.853694
vt 0.7882885 1
vt 0.7882885 0.853694
vt 0.8408409 1
vt 0.8408409 0.853694
vt 0.8933935 1
vt 0.8933935 0.853694
vt 0.9459461 1
vt 0.9459461 0.853694
vt 1 0.853694
vt 1 1
vt 0.6306308 0.7114116
vt 0.5780783 0.7114116
vt 0.6831833 0.7114116
vt 0.7357359 0.7114116
vt 0.7882885 0.7114116
vt 0.8408409 0.7114116
vt 0.8933935 0.7114116
vt 0.9459461 0.7114116
vt 1 0.7114116
vt 0.5780783 0.5691292
vt 0.5255256 0.5691292
vt 0.5255256 0.7114116
vt 0.4729731 0.7114116
vt 0.4204205 0.7114116
vt 0.367868 0.7114116
vt 0.3153155 0.7114116
vt 0.2627629 0.7114116
vt 0.2102103 0.7114116
vt 0.1576578 0.7114116
vt 0.1051053 0.7114116
vt 0.1051054 0.853694
vt 0.1051054 1
vt 0.05255276 0.853694
vt 0.05255279 1
vt 1.639128E-07 0.853694
vt 1.862645E-07 1
vt 1.41561E-07 0.7114116
vt 0.05255274 0.7114116
vt 0.1576578 0.5691292
vt 0.2102103 0.5691292
vt 0.2627629 0.5691292
vt 0.3153155 0.5691292
vt 0.367868 0.5691292
vt 0.4204205 0.5691292
vt 0.4729731 0.5691292
vt 0.1576578 0.4268469
vt 0.2102103 0.4268469
vt 0.2627629 0.4268469
vt 0.3153155 0.4268469
vt 0.367868 0.4268469
vt 0.4204205 0.4268469
vt 0.4729731 0.4268469
vt 0.5255256 0.4268469
vt 0.5780783 0.4268469
vt 0.6306308 0.5691292
vt 0.6831833 0.5691292
vt 0.7357359 0.5691292
vt 0.7882885 0.5691292
vt 0.8408409 0.5691292
vt 0.8933935 0.5691292
vt 0.9459461 0.5691292
vt 1 0.5691292
vt 0.6306308 0.4268469
vt 0.6831833 0.4268469
vt 0.7357359 0.4268469
vt 0.7882885 0.4268469
vt 0.8408409 0.4268469
vt 0.8933935 0.4268469
vt 0.9459461 0.4268469
vt 1 0.4268469
vt 0.5780783 0.2845646
vt 0.5255256 0.2845646
vt 0.4729731 0.2845646
vt 0.4204205 0.2845646
vt 0.367868 0.2845646
vt 0.3153155 0.2845646
vt 0.2627629 0.2845646
vt 0.2102103 0.2845646
vt 0.1576578 0.2845646
vt 0.1051053 0.2845646
vt 0.1051053 0.4268469
vt 0.1051053 0.5691292
vt 0.05255271 0.5691292
vt 1.043081E-07 0.5691292
vt 8.195639E-08 0.426847
vt 0.05255268 0.4268469
vt 4.470348E-08 0.2845646
vt 0.05255264 0.2845646
vt 2.235174E-08 0.1422823
vt 0.05255263 0.1422823
vt 0.1051052 0.1422823
vt 0 0
vt 0.0525526 0
vt 0.1051052 -4.470348E-08
vt 0.1576578 0.1422823
vt 0.2102103 0.1422823
vt 0.2627629 0.1422823
vt 0.3153155 0.1422823
vt 0.367868 0.1422823
vt 0.4204205 0.1422823
vt 0.4729731 0.1422823
vt 0.5255256 0.1422823
vt 0.5780783 0.1422823
vt 0.6306308 0.2845646
vt 0.6831833 0.2845646
vt 0.7357359 0.2845646
vt 0.7882885 0.2845646
vt 0.8408409 0.2845646
vt 0.8933935 0.2845646
vt 0.9459461 0.2845646
vt 1 0.2845646
vt 0.6306308 0.1422823
vt 0.6831833 0.1422823
vt 0.7357359 0.1422823
vt 0.7882885 0.1422823
vt 0.8408409 0.1422823
vt 0.8933935 0.1422823
vt 0.9459461 0.1422823
vt 1 0.1422823
vt 0.5780783 -4.470348E-08
vt 0.5255256 -4.470348E-08
vt 0.4729731 -4.470348E-08
vt 0.4204205 -4.470348E-08
vt 0.367868 -4.470348E-08
vt 0.3153155 -4.470348E-08
vt 0.2627629 -4.470348E-08
vt 0.2102103 -4.470348E-08
vt 0.1576577 -4.470348E-08
vt 0.6306308 -4.470348E-08
vt 0.6831833 -4.470348E-08
vt 0.7357359 -4.470348E-08
vt 0.7882885 -4.470348E-08
vt 0.8408409 -4.470348E-08
vt 0.8933935 -4.470348E-08
vt 0.9459461 -4.470348E-08
vt 1 -4.470348E-08
vn -0.2823009 -0.1256885 0.9510565
vn 0.03610085 0.01607317 0.9992189
vn 0.03865434 0.008216179 0.9992188
vn -0.3022642 -0.06424741 0.9510565
vn -0.2499998 -0.1816354 0.9510566
vn 0.03197026 0.02322777 0.9992189
vn -0.2067726 -0.2296442 0.9510566
vn 0.02644232 0.02936721 0.9992189
vn -0.1545084 -0.2676164 0.9510565
vn 0.01975867 0.03422303 0.9992189
vn -0.09549141 -0.2938923 0.9510566
vn 0.01221156 0.03758331 0.9992189
vn -0.03230105 -0.3073236 0.9510567
vn 0.004130682 0.03930102 0.9992189
vn 0.03230095 -0.3073237 0.9510567
vn -0.004130703 0.039301 0.9992189
vn 0.09549135 -0.2938922 0.9510567
vn -0.01221159 0.03758343 0.9992189
vn 0.1545084 -0.2676163 0.9510566
vn -0.0197587 0.03422307 0.9992189
vn 0.2067727 -0.2296443 0.9510565
vn -0.02644236 0.02936714 0.9992189
vn 0.25 -0.1816356 0.9510565
vn -0.03197035 0.02322775 0.9992189
vn 0.2823009 -0.1256885 0.9510565
vn -0.03610096 0.01607316 0.9992189
vn 0.3022641 -0.06424823 0.9510565
vn -0.03865394 0.00821616 0.9992189
vn 0.3090169 1.032645E-07 0.9510565
vn -0.03951749 0 0.9992189
vn 0.3022642 0.06424823 0.9510565
vn -0.03865393 -0.008216198 0.9992189
vn -0.03778989 -0.01227871 0.9992103
vn 0.2953557 0.09596685 0.9505553
vn -0.3061899 0.5303363 0.7905638
vn -0.1892357 0.5824075 0.7905639
vn -0.4097621 0.4550868 0.7905638
vn -0.4954257 0.3599476 0.7905638
vn -0.5594367 0.2490772 0.7905638
vn -0.5989979 0.1273211 0.7905636
vn -0.6123798 -1.133347E-07 0.7905637
vn -0.5989978 -0.1273209 0.7905638
vn -0.5844064 -0.1898849 0.7889314
vn -0.2949729 0.907833 0.2980441
vn -0.09977785 0.9493229 0.2980444
vn -0.06401107 0.6090248 0.7905639
vn 0.06401113 0.6090248 0.7905639
vn 0.1892357 0.5824076 0.7905638
vn 0.3061899 0.5303362 0.7905639
vn 0.4097618 0.4550866 0.790564
vn 0.4954255 0.3599477 0.7905639
vn 0.5594367 0.2490772 0.7905638
vn 0.5989982 0.1273197 0.7905635
vn 0.6123797 -1.460955E-06 0.7905638
vn 0.03951712 -1.188128E-07 0.9992189
vn -0.3090171 7.818616E-07 0.9510565
vn 0.03865393 -0.008216181 0.9992189
vn -0.3022644 0.06424816 0.9510565
vn 0.03779009 -0.01227872 0.9992103
vn -0.295356 0.09596688 0.9505552
vn 0.584407 -0.1898848 0.7889311
vn 0.598998 -0.1273207 0.7905636
vn 0.9336933 0.1984606 0.2980439
vn 0.8720267 0.3882513 0.298044
vn 0.7722489 0.5610716 0.2980442
vn 0.63872 0.7093704 0.2980444
vn 0.4772762 0.8266662 0.2980442
vn 0.2949729 0.9078329 0.2980442
vn 0.09977801 0.9493229 0.2980443
vn 0.9336935 0.1984606 -0.2980435
vn 0.8720269 0.3882512 -0.2980438
vn 0.772249 0.5610715 -0.2980439
vn 0.6387201 0.7093705 -0.2980439
vn 0.4772762 0.8266664 -0.2980439
vn 0.294973 0.9078331 -0.2980436
vn 0.099778 0.9493231 -0.2980437
vn -0.09977787 0.9493231 -0.2980438
vn -0.294973 0.9078332 -0.2980435
vn -0.4772762 0.8266663 0.298044
vn -0.63872 0.7093704 0.2980441
vn -0.772249 0.5610715 0.298044
vn -0.8720268 0.3882512 0.298044
vn -0.9336929 0.1984627 0.298044
vn -0.9545521 0 0.2980441
vn -0.9336928 -0.1984626 0.2980442
vn -0.9082738 -0.295116 0.2965555
vn -0.4772762 0.8266664 -0.2980438
vn -0.63872 0.7093706 -0.2980439
vn -0.7722491 0.5610715 -0.2980438
vn -0.8720269 0.3882512 -0.2980438
vn -0.9336929 0.1984627 -0.2980436
vn -0.9545522 0 -0.2980436
vn -0.9336929 -0.1984628 -0.2980437
vn -0.9082739 -0.2951165 -0.296555
vn -0.1892359 0.5824078 -0.7905636
vn -0.06401111 0.6090251 -0.7905637
vn 0.06401118 0.6090251 -0.7905637
vn 0.1892359 0.5824078 -0.7905636
vn 0.3061899 0.5303364 -0.7905638
vn 0.4097619 0.4550868 -0.7905638
vn 0.4954258 0.3599477 -0.7905636
vn 0.5594369 0.2490772 -0.7905637
vn 0.5989985 0.1273197 -0.7905634
vn 0.6123799 -1.506112E-06 -0.7905636
vn 0.9545522 -2.211507E-06 -0.2980436
vn 0.9545521 -2.208131E-06 0.2980441
vn 0.9336929 -0.1984623 0.2980441
vn 0.9082741 -0.2951154 0.2965553
vn 0.9082741 -0.2951159 -0.2965548
vn 0.933693 -0.1984625 -0.2980436
vn 0.584407 -0.1898854 -0.7889309
vn 0.5989982 -0.127321 -0.7905634
vn 0.0377903 -0.01227876 -0.9992102
vn 0.0386541 -0.008216242 -0.9992188
vn 0.03951728 -2.163743E-07 -0.9992189
vn -0.2953557 0.09596681 -0.9505553
vn -0.3022641 0.06424808 -0.9510565
vn -0.3090168 6.841285E-07 -0.9510565
vn 0.03865457 0.008216103 -0.9992188
vn 0.03610123 0.01607325 -0.9992188
vn 0.03197046 0.02322788 -0.9992188
vn 0.02644246 0.02936742 -0.9992188
vn 0.01975885 0.03422343 -0.9992188
vn 0.01221164 0.03758363 -0.9992188
vn 0.004130756 0.03930128 -0.9992188
vn -0.004130727 0.03930126 -0.9992188
vn -0.01221168 0.03758369 -0.9992188
vn -0.3061901 0.5303366 -0.7905635
vn -0.4097621 0.4550869 -0.7905637
vn -0.4954259 0.3599477 -0.7905636
vn -0.5594369 0.2490772 -0.7905636
vn -0.598998 0.127321 -0.7905635
vn -0.61238 0 -0.7905635
vn -0.598998 -0.1273212 -0.7905635
vn -0.5844068 -0.1898856 -0.7889311
vn -0.01975881 0.03422332 -0.9992188
vn -0.02644235 0.02936726 -0.9992189
vn -0.03197045 0.02322783 -0.9992189
vn -0.03610125 0.01607328 -0.9992188
vn -0.03865415 0.008216226 -0.9992188
vn -0.0395177 0 -0.9992188
vn -0.03865424 -0.00821628 -0.9992188
vn -0.03779024 -0.01227878 -0.9992103
vn 0.09549142 -0.2938924 -0.9510566
vn 0.03230106 -0.3073239 -0.9510566
vn -0.03230105 -0.3073239 -0.9510566
vn -0.09549146 -0.2938923 -0.9510567
vn -0.1545083 -0.2676161 -0.9510567
vn -0.2067724 -0.229644 -0.9510567
vn -0.2499994 -0.1816352 -0.9510568
vn -0.2823005 -0.1256883 -0.9510567
vn -0.3022639 -0.06424747 -0.9510567
vn 0.1545083 -0.2676163 -0.9510566
vn 0.2067725 -0.2296441 -0.9510566
vn 0.2499997 -0.1816353 -0.9510567
vn 0.2823007 -0.1256884 -0.9510566
vn 0.3022639 -0.06424811 -0.9510566
vn 0.3090166 0 -0.9510567
vn 0.3022637 0.06424809 -0.9510567
vn 0.2953551 0.09596685 -0.9505554
g arc_half_ring_0
f 3/3/3 2/2/2 1/1/1
f 4/4/4 3/3/3 1/1/1
f 1/1/1 2/2/2 5/5/5
f 2/2/2 6/6/6 5/5/5
f 5/5/5 6/6/6 7/7/7
f 6/6/6 8/8/8 7/7/7
f 7/7/7 8/8/8 9/9/9
f 8/8/8 10/10/10 9/9/9
f 9/9/9 10/10/10 11/11/11
f 10/10/10 12/12/12 11/11/11
f 11/11/11 12/12/12 13/13/13
f 12/12/12 14/14/14 13/13/13
f 13/13/13 14/14/14 15/15/15
f 14/14/14 16/16/16 15/15/15
f 15/15/15 16/16/16 17/17/17
f 16/16/16 18/18/18 17/17/17
f 17/17/17 18/18/18 19/19/19
f 18/18/18 20/20/20 19/19/19
f 19/19/19 20/20/20 21/21/21
f 20/20/20 22/22/22 21/21/21
f 21/21/21 22/22/22 23/23/23
f 22/22/22 24/24/24 23/23/23
f 23/23/23 24/24/24 25/25/25
f 24/24/24 26/26/26 25/25/25
f 25/25/25 26/26/26 27/27/27
f 26/26/26 28/28/28 27/27/27
f 27/27/27 28/28/28 29/29/29
f 28/28/28 30/30/30 29/29/29
f 29/29/29 30/30/30 31/31/31
f 30/30/30 32/32/32 31/31/31
f 31/31/31 32/32/32 33/33/33
f 34/34/34 31/31/31 33/33/33
f 20/20/20 35/35/35 22/22/22
f 36/36/36 35/35/35 20/20/20
f 35/35/35 37/37/37 22/22/22
f 22/22/22 37/37/37 24/24/24
f 37/37/37 38/38/38 24/24/24
f 24/24/24 38/38/38 26/26/26
f 38/38/38 39/39/39 26/26/26
f 26/26/26 39/39/39 28/28/28
f 39/39/39 40/40/40 28/28/28
f 28/28/28 40/40/40 30/30/30
f 40/40/40 41/41/41 30/30/30
f 30/30/30 41/41/41 32/32/32
f 41/41/41 42/42/42 32/32/32
f 32/32/32 42/42/42 43/43/43
f 33/33/33 32/32/32 43/43/43
f 36/36/36 44/44/44 35/35/35
f 45/45/45 44/44/44 36/36/36
f 46/46/46 45/45/45 36/36/36
f 46/46/46 36/36/36 18/18/18
f 16/16/16 46/46/46 18/18/18
f 47/47/47 46/46/46 16/16/16
f 14/14/14 47/47/47 16/16/16
f 48/48/48 47/47/47 14/14/14
f 12/12/12 48/48/48 14/14/14
f 49/49/49 48/48/48 12/12/12
f 10/10/10 49/49/49 12/12/12
f 50/50/50 49/49/49 10/10/10
f 8/8/8 50/50/50 10/10/10
f 51/51/51 50/50/50 8/8/8
f 6/6/6 51/51/51 8/8/8
f 52/52/52 51/51/51 6/6/6
f 2/2/2 52/52/52 6/6/6
f 53/53/53 52/52/52 2/2/2
f 3/3/3 53/53/53 2/2/2
f 54/54/54 53/53/53 3/3/3
f 55/55/55 54/54/54 3/3/3
f 55/55/55 3/3/3 4/4/4
f 56/56/56 55/55/55 4/4/4
f 57/57/57 55/55/55 56/56/56
f 58/58/58 57/57/57 56/56/56
f 59/59/59 57/57/57 58/58/58
f 60/60/60 59/59/59 58/58/58
f 59/59/59 61/61/61 57/57/57
f 61/61/61 62/62/62 57/57/57
f 62/62/62 54/54/54 55/55/55
f 57/57/57 62/62/62 55/55/55
f 53/53/53 63/63/63 52/52/52
f 63/63/63 64/64/64 52/52/52
f 52/52/52 64/64/64 51/51/51
f 64/64/64 65/65/65 51/51/51
f 51/51/51 65/65/65 50/50/50
f 65/65/65 66/66/66 50/50/50
f 50/50/50 66/66/66 49/49/49
f 66/66/66 67/67/67 49/49/49
f 49/49/49 67/67/67 48/48/48
f 67/67/67 68/68/68 48/48/48
f 48/48/48 68/68/68 47/47/47
f 68/68/68 69/69/69 47/47/47
f 47/47/47 69/69/69 46/46/46
f 69/69/69 45/45/45 46/46/46
f 63/63/63 70/70/70 64/64/64
f 70/70/70 71/71/71 64/64/64
f 64/64/64 71/71/71 65/65/65
f 71/71/71 72/72/72 65/65/65
f 65/65/65 72/72/72 66/66/66
f 72/72/72 73/73/73 66/66/66
f 66/66/66 73/73/73 67/67/67
f 73/73/73 74/74/74 67/67/67
f 67/67/67 74/74/74 68/68/68
f 74/74/74 75/75/75 68/68/68
f 68/68/68 75/75/75 69/69/69
f 75/75/75 76/76/76 69/69/69
f 69/69/69 76/76/76 45/45/45
f 76/76/76 77/77/77 45/45/45
f 45/45/45 77/77/77 44/44/44
f 77/77/77 78/78/78 44/44/44
f 44/44/44 78/78/78 79/79/79
f 44/44/44 79/79/79 35/35/35
f 35/35/35 79/79/79 37/37/37
f 79/79/79 80/80/80 37/37/37
f 37/37/37 80/80/80 38/38/38
f 80/80/80 81/81/81 38/38/38
f 38/38/38 81/81/81 39/39/39
f 81/81/81 82/82/82 39/39/39
f 39/39/39 82/82/82 40/40/40
f 82/82/82 83/83/83 40/40/40
f 40/40/40 83/83/83 41/41/41
f 83/83/83 84/84/84 41/41/41
f 41/41/41 84/84/84 42/42/42
f 84/84/84 85/85/85 42/42/42
f 42/42/42 85/85/85 86/86/86
f 43/43/43 42/42/42 86/86/86
f 79/79/79 87/87/87 80/80/80
f 78/78/78 87/87/87 79/79/79
f 87/87/87 88/88/88 80/80/80
f 88/88/88 89/89/89 81/81/81
f 81/81/81 89/89/89 82/82/82
f 80/80/80 88/88/88 81/81/81
f 89/89/89 90/90/90 82/82/82
f 82/82/82 90/90/90 83/83/83
f 90/90/90 91/91/91 83/83/83
f 83/83/83 91/91/91 84/84/84
f 91/91/91 92/92/92 84/84/84
f 84/84/84 92/92/92 85/85/85
f 92/92/92 93/93/93 85/85/85
f 85/85/85 93/93/93 94/94/94
f 86/86/86 85/85/85 94/94/94
f 78/78/78 95/95/95 87/87/87
f 96/96/96 95/95/95 78/78/78
f 77/77/77 96/96/96 78/78/78
f 97/97/97 96/96/96 77/77/77
f 76/76/76 97/97/97 77/77/77
f 98/98/98 97/97/97 76/76/76
f 75/75/75 98/98/98 76/76/76
f 99/99/99 98/98/98 75/75/75
f 74/74/74 99/99/99 75/75/75
f 100/100/100 99/99/99 74/74/74
f 73/73/73 100/100/100 74/74/74
f 101/101/101 100/100/100 73/73/73
f 72/72/72 101/101/101 73/73/73
f 102/102/102 101/101/101 72/72/72
f 71/71/71 102/102/102 72/72/72
f 103/103/103 102/102/102 71/71/71
f 70/70/70 103/103/103 71/71/71
f 104/104/104 103/103/103 70/70/70
f 105/105/105 104/104/104 70/70/70
f 105/105/105 70/70/70 63/63/63
f 106/106/106 105/105/105 63/63/63
f 106/106/106 63/63/63 53/53/53
f 54/54/54 106/106/106 53/53/53
f 107/107/107 106/106/106 54/54/54
f 62/62/62 107/107/107 54/54/54
f 108/108/108 107/107/107 62/62/62
f 61/61/61 108/108/108 62/62/62
f 108/108/108 109/109/109 107/107/107
f 109/109/109 110/110/110 107/107/107
f 110/110/110 105/105/105 106/106/106
f 107/107/107 110/110/110 106/106/106
f 109/109/109 111/111/111 110/110/110
f 111/111/111 112/112/112 110/110/110
f 112/112/112 104/104/104 105/105/105
f 110/110/110 112/112/112 105/105/105
f 111/111/111 113/113/113 112/112/112
f 113/113/113 114/114/114 112/112/112
f 112/112/112 114/114/114 104/104/104
f 114/114/114 115/115/115 104/104/104
f 113/113/113 116/116/116 114/114/114
f 116/116/116 117/117/117 114/114/114
f 114/114/114 117/117/117 115/115/115
f 117/117/117 118/118/118 115/115/115
f 115/115/115 118/118/118 119/119/119
f 115/115/115 119/119/119 103/103/103
f 103/103/103 119/119/119 102/102/102
f 119/119/119 120/120/120 102/102/102
f 102/102/102 120/120/120 101/101/101
f 120/120/120 121/121/121 101/101/101
f 101/101/101 121/121/121 100/100/100
f 121/121/121 122/122/122 100/100/100
f 100/100/100 122/122/122 99/99/99
f 122/122/122 123/123/123 99/99/99
f 99/99/99 123/123/123 98/98/98
f 123/123/123 124/124/124 98/98/98
f 98/98/98 124/124/124 97/97/97
f 124/124/124 125/125/125 97/97/97
f 97/97/97 125/125/125 96/96/96
f 125/125/125 126/126/126 96/96/96
f 96/96/96 126/126/126 95/95/95
f 126/126/126 127/127/127 95/95/95
f 95/95/95 127/127/127 128/128/128
f 95/95/95 128/128/128 87/87/87
f 87/87/87 128/128/128 88/88/88
f 128/128/128 129/129/129 88/88/88
f 88/88/88 129/129/129 89/89/89
f 129/129/129 130/130/130 89/89/89
f 89/89/89 130/130/130 90/90/90
f 130/130/130 131/131/131 90/90/90
f 90/90/90 131/131/131 91/91/91
f 131/131/131 132/132/132 91/91/91
f 91/91/91 132/132/132 92/92/92
f 132/132/132 133/133/133 92/92/92
f 92/92/92 133/133/133 93/93/93
f 133/133/133 134/134/134 93/93/93
f 93/93/93 134/134/134 135/135/135
f 94/94/94 93/93/93 135/135/135
f 128/128/128 136/136/136 129/129/129
f 127/127/127 136/136/136 128/128/128
f 136/136/136 137/137/137 129/129/129
f 137/137/137 138/138/138 130/130/130
f 130/130/130 138/138/138 131/131/131
f 129/129/129 137/137/137 130/130/130
f 138/138/138 139/139/139 131/131/131
f 131/131/131 139/139/139 132/132/132
f 139/139/139 140/140/140 132/132/132
f 132/132/132 140/140/140 133/133/133
f 140/140/140 141/141/141 133/133/133
f 133/133/133 141/141/141 134/134/134
f 141/141/141 142/142/142 134/134/134
f 134/134/134 142/142/142 143/143/143
f 135/135/135 134/134/134 143/143/143
f 127/127/127 144/144/144 136/136/136
f 145/145/145 144/144/144 127/127/127
f 126/126/126 145/145/145 127/127/127
f 146/146/146 145/145/145 126/126/126
f 125/125/125 146/146/146 126/126/126
f 147/147/147 146/146/146 125/125/125
f 124/124/124 147/147/147 125/125/125
f 148/148/148 147/147/147 124/124/124
f 123/123/123 148/148/148 124/124/124
f 149/149/149 148/148/148 123/123/123
f 122/122/122 149/149/149 123/123/123
f 150/150/150 149/149/149 122/122/122
f 121/121/121 150/150/150 122/122/122
f 151/151/151 150/150/150 121/121/121
f 120/120/120 151/151/151 121/121/121
f 152/152/152 151/151/151 120/120/120
f 119/119/119 152/152/152 120/120/120
f 118/118/118 152/152/152 119/119/119
f 18/18/18 36/36/36 20/20/20
f 104/104/104 115/115/115 103/103/103
f 144/144/144 153/153/153 136/136/136
f 136/136/136 153/153/153 137/137/137
f 153/153/153 154/154/154 137/137/137
f 137/137/137 154/154/154 138/138/138
f 154/154/154 155/155/155 138/138/138
f 138/138/138 155/155/155 139/139/139
f 155/155/155 156/156/156 139/139/139
f 139/139/139 156/156/156 140/140/140
f 156/156/156 157/157/157 140/140/140
f 140/140/140 157/157/157 141/141/141
f 157/157/157 158/158/158 141/141/141
f 141/141/141 158/158/158 142/142/142
f 158/158/158 159/159/159 142/142/142
f 142/142/142 159/159/159 160/160/160
f 143/143/143 142/142/142 160/160/160
