g f_scalp_nude
v 4.452384 91.27451 -2.001525
v 3.980948 90.50865 -1.127749
v 4.548663 91.38979 -1.210835
v 3.85058 90.16562 -1.727566
v 3.415004 89.68604 -0.9201056
v 2.990042 89.55709 -1.659158
v 3.070645 88.98466 -0.3705096
v 2.364804 88.94723 -1.634655
v 2.179422 88.03284 -0.9726877
v 1.772554 88.16128 -1.794432
v 4.906943 92.19482 -1.071933
v 5.028574 92.68076 -1.431414
v 5.097227 92.35528 -0.5949453
v 5.105623 92.91767 -0.7582625
v 1.243523 88.11806 -2.348887
v 2.579748 89.72483 -2.568759
v 3.658279 90.4801 -2.716774
v 4.352593 91.66798 -2.97928
v 4.452384 91.27451 -2.001525
v 4.90764 93.55337 -2.183245
v 5.02255 94.35469 -1.172714
v 1.900238 88.92897 -2.346453
v 1.442312 88.92298 -2.843024
v 1.702067 89.79712 -3.346062
v 0.7180757 88.9252 -3.107337
v 0.8091787 89.89229 -3.77596
v 3.122691 90.9134 -3.620977
v 3.627608 92.16605 -3.89186
v 2.998216 92.56468 -4.525927
v 2.30714 91.21697 -4.216696
v 1.578527 91.35499 -4.442509
v 2.037388 92.81516 -4.869575
v 4.330086 95.59239 -1.986649
v 4.422743 96.22971 -0.6631235
v 3.455748 97.39189 -1.273042
v 3.397877 96.46763 -2.704777
v 5.005575 94.81768 -0.08368084
v 3.459175 97.67268 0.2139342
v 2.252795 97.95229 -1.699976
v 2.29772 98.29774 -0.1068366
v 4.396201 96.54577 0.6821488
v 3.480882 97.60081 1.509851
v 4.352354 96.52363 1.505179
v 4.905221 95.1575 1.288932
v 4.217745 94.70506 -3.083466
v 3.275676 95.35885 -3.744914
v 4.023369 93.5176 -3.642259
v 3.116964 94.02409 -4.295311
v 2.132657 95.75256 -4.144597
v 2.184873 96.97031 -3.167849
v 4.699715 92.63834 -2.722229
v 2.064498 94.39632 -4.721028
v 1.025311 95.95966 -4.320244
v 0.9928201 94.53658 -4.89936
v 1.209677E-15 94.61156 -4.966009
v 2.242177E-15 96.0268 -4.421815
v 2.016338E-15 97.29214 -3.424923
v 1.011907 97.19601 -3.380702
v 1.022063 98.21072 -1.929874
v 1.37369E-15 98.29988 -1.954232
v 9.721696E-16 98.77351 -0.3728218
v 1.051588 98.69508 -0.2999062
v 1.058395 98.76244 1.388721
v 1.887483E-15 98.83749 1.384606
v 2.333616 98.31213 1.471897
v 1.053101 98.4391 2.712332
v 3.097345E-15 98.52199 2.738548
v 1.056535 97.71735 4.154052
v 2.843673E-15 97.8169 4.149369
v 2.305093 98.02547 2.703505
v 2.297666 97.44979 4.019638
v 3.380462 96.9716 3.630222
v 3.481401 97.38207 2.560637
v 4.21516 96.21091 2.982436
v 4.308169 96.40211 2.207983
v 4.551764 95.6685 2.490859
v 4.843942 95.15369 1.974162
v 4.977627 94.60103 1.448054
v 5.13527 93.40035 0.6132092
v 5.118462 91.81639 0.2531064
v 0.9038309 91.44472 -4.603963
v 5.031614E-17 91.50503 -4.751653
v 7.864595E-16 89.94154 -3.903491
v 1.96587E-16 93.0362 -5.098356
v 0.987353 92.95324 -5.029236
v 8.669538E-16 88.93023 -3.28702
v -8.064189E-16 88.0995 -2.782382
v -4.452384 91.27451 -2.001525
v -4.548663 91.38979 -1.210835
v -3.980948 90.50865 -1.127749
v -3.85058 90.16562 -1.727566
v -3.415004 89.68604 -0.9201056
v -2.990042 89.55709 -1.659158
v -3.070645 88.98466 -0.3705096
v -2.364804 88.94723 -1.634655
v -2.179422 88.03284 -0.9726877
v -1.772554 88.16128 -1.794432
v -4.906943 92.19482 -1.071933
v -5.028574 92.68076 -1.431414
v -5.097227 92.35528 -0.5949453
v -5.105623 92.91767 -0.7582625
v -1.243523 88.11806 -2.348887
v -2.579748 89.72483 -2.568759
v -3.658279 90.4801 -2.716774
v -4.352593 91.66798 -2.97928
v -4.452384 91.27451 -2.001525
v -4.90764 93.55337 -2.183245
v -5.02255 94.35469 -1.172714
v -1.900238 88.92897 -2.335989
v -1.442312 88.92298 -2.843024
v -1.702067 89.79712 -3.346062
v -0.7180757 88.9252 -3.107337
v -0.8091787 89.89229 -3.77596
v -3.122691 90.9134 -3.620977
v -3.627608 92.16605 -3.89186
v -2.998216 92.56468 -4.525927
v -2.30714 91.21705 -4.216279
v -1.578527 91.35499 -4.442509
v -2.037388 92.81516 -4.869575
v -4.330086 95.59239 -1.986649
v -4.422743 96.22971 -0.6631235
v -3.455748 97.39189 -1.273042
v -3.397877 96.46763 -2.704777
v -5.005575 94.81768 -0.08368084
v -3.459175 97.67268 0.2139342
v -2.252795 97.95229 -1.699976
v -2.29772 98.29774 -0.1068366
v -4.396201 96.54577 0.6821488
v -3.480882 97.60081 1.509851
v -4.352354 96.52363 1.505179
v -4.905221 95.1575 1.288932
v -4.217745 94.70506 -3.083466
v -3.275676 95.35885 -3.744914
v -4.023369 93.5176 -3.642259
v -3.116964 94.02409 -4.295311
v -2.132657 95.75256 -4.144597
v -2.184873 96.97031 -3.167849
v -4.699715 92.63834 -2.722229
v -2.064498 94.39632 -4.721028
v -1.025311 95.95966 -4.320244
v -0.9928201 94.53658 -4.89936
v 1.209677E-15 94.61156 -4.966009
v 2.242177E-15 96.0268 -4.421815
v 2.016338E-15 97.29214 -3.424923
v -1.011907 97.19601 -3.380702
v -1.022063 98.21072 -1.929874
v 1.37369E-15 98.29988 -1.954232
v 9.721696E-16 98.77351 -0.3728218
v -1.051588 98.69508 -0.2999062
v -1.058395 98.76244 1.388721
v 1.887483E-15 98.83749 1.384606
v -2.333616 98.31213 1.471897
v -1.053101 98.4391 2.712332
v 3.097345E-15 98.52199 2.738548
v -1.056535 97.71735 4.154052
v 2.843673E-15 97.8169 4.149369
v -2.305093 98.02547 2.703505
v -2.297666 97.44979 4.019638
v -3.380462 96.9716 3.630222
v -3.481401 97.38207 2.560637
v -4.21516 96.21091 2.982436
v -4.308169 96.40211 2.207983
v -4.551764 95.6685 2.490859
v -4.843942 95.15369 1.974162
v -4.977627 94.60103 1.448054
v -5.13527 93.40035 0.6132092
v -5.118462 91.81639 0.2531064
v 7.864595E-16 89.94154 -3.903491
v 5.031614E-17 91.50503 -4.751653
v -0.9038309 91.44472 -4.603963
v 1.96587E-16 93.0362 -5.098356
v -0.987353 92.95324 -5.029236
v 8.669538E-16 88.93023 -3.28702
v -8.064189E-16 88.0995 -2.782382
vt 0.3653108 0.6619617
vt 0.3562985 0.6509148
vt 0.3562985 0.6660373
vt 0.3665867 0.6482853
vt 0.3562985 0.6350914
vt 0.3704771 0.6392115
vt 0.3562985 0.6181378
vt 0.3744511 0.6279176
vt 0.3724368 0.6181552
vt 0.3878661 0.6181552
vt 0.3562985 0.6736333
vt 0.366634 0.6770853
vt 0.3562985 0.679886
vt 0.3637366 0.6838975
vt 0.4079141 0.6181552
vt 0.3870205 0.6362642
vt 0.3807538 0.6502286
vt 0.3801391 0.6617683
vt 0.3653108 0.6619617
vt 0.3816448 0.6821921
vt 0.3779808 0.6927059
vt 0.3895985 0.6270255
vt 0.4089823 0.6246591
vt 0.4102975 0.6344578
vt 0.4269079 0.6238701
vt 0.4302224 0.6323607
vt 0.3964407 0.6502411
vt 0.3971553 0.6630318
vt 0.4131002 0.6636671
vt 0.4120992 0.6498628
vt 0.4229304 0.6490132
vt 0.4260131 0.6631442
vt 0.3944164 0.7004299
vt 0.3888935 0.7143405
vt 0.4060259 0.7191069
vt 0.4108521 0.7048906
vt 0.3711827 0.706358
vt 0.3996481 0.7336481
vt 0.4209516 0.7221638
vt 0.4158939 0.7371645
vt 0.3817561 0.7280341
vt 0.3917506 0.7455577
vt 0.3748451 0.7374675
vt 0.3641363 0.7195753
vt 0.3974543 0.6872268
vt 0.4141272 0.6904196
vt 0.397494 0.6753729
vt 0.4140833 0.676917
vt 0.4270043 0.691051
vt 0.4248851 0.7068799
vt 0.3800381 0.672187
vt 0.4271536 0.6765488
vt 0.4374684 0.6909775
vt 0.4375948 0.6755717
vt 0.4480574 0.6741125
vt 0.4480574 0.690658
vt 0.4480574 0.7088456
vt 0.4367245 0.7078774
vt 0.4353207 0.7240828
vt 0.4480574 0.7257017
vt 0.4480574 0.740684
vt 0.4332736 0.7393049
vt 0.4306483 0.7525282
vt 0.4480574 0.7531533
vt 0.4094298 0.7496719
vt 0.4276852 0.7650546
vt 0.4480574 0.763107
vt 0.4249495 0.7765371
vt 0.4480574 0.7765371
vt 0.3996481 0.7621328
vt 0.3907835 0.7765371
vt 0.3744375 0.7704666
vt 0.3838979 0.7578374
vt 0.3651506 0.7613666
vt 0.3674044 0.7518846
vt 0.3562985 0.7457644
vt 0.3562985 0.7283176
vt 0.3562985 0.7104413
vt 0.3562985 0.6949865
vt 0.3562985 0.6825662
vt 0.4350911 0.6473146
vt 0.4480574 0.6445126
vt 0.4480574 0.6322913
vt 0.4480574 0.6592535
vt 0.4368986 0.6616517
vt 0.4480574 0.6242826
vt 0.4480574 0.6181552
vt 0.3653108 0.6619617
vt 0.3562985 0.6660373
vt 0.3562985 0.6509148
vt 0.3665867 0.6482853
vt 0.3562985 0.6350914
vt 0.3704771 0.6392115
vt 0.3562985 0.6181378
vt 0.3744511 0.6279176
vt 0.3724368 0.6181552
vt 0.3878661 0.6181552
vt 0.3562985 0.6736333
vt 0.366634 0.6770853
vt 0.3562985 0.679886
vt 0.3637366 0.6838975
vt 0.4079141 0.6181552
vt 0.3870205 0.6362642
vt 0.3807538 0.6502286
vt 0.3801391 0.6617683
vt 0.3653108 0.6619617
vt 0.3816448 0.6821921
vt 0.3779808 0.6927059
vt 0.3895985 0.6270255
vt 0.4089823 0.6246591
vt 0.4102975 0.6344578
vt 0.4269079 0.6238701
vt 0.4302224 0.6323607
vt 0.3964407 0.6502411
vt 0.3971553 0.6630318
vt 0.4131002 0.6636671
vt 0.4120992 0.6498628
vt 0.4229304 0.6490132
vt 0.4260131 0.6631442
vt 0.3944164 0.7004299
vt 0.3888935 0.7143405
vt 0.4060259 0.7191069
vt 0.4108521 0.7048906
vt 0.3711827 0.706358
vt 0.3996481 0.7336481
vt 0.4209516 0.7221638
vt 0.4158939 0.7371645
vt 0.3817561 0.7280341
vt 0.3917506 0.7455577
vt 0.3748451 0.7374675
vt 0.3641363 0.7195753
vt 0.3974543 0.6872268
vt 0.4141272 0.6904196
vt 0.397494 0.6753729
vt 0.4140833 0.676917
vt 0.4270043 0.691051
vt 0.4248851 0.7068799
vt 0.3800381 0.672187
vt 0.4271536 0.6765488
vt 0.4374684 0.6909775
vt 0.4375948 0.6755717
vt 0.4480574 0.6741125
vt 0.4480574 0.690658
vt 0.4480574 0.7088456
vt 0.4367245 0.7078774
vt 0.4353207 0.7240828
vt 0.4480574 0.7257017
vt 0.4480574 0.740684
vt 0.4332736 0.7393049
vt 0.4306483 0.7525282
vt 0.4480574 0.7531533
vt 0.4094298 0.7496719
vt 0.4276852 0.7650546
vt 0.4480574 0.763107
vt 0.4249495 0.7765371
vt 0.4480574 0.7765371
vt 0.3996481 0.7621328
vt 0.3907835 0.7765371
vt 0.3744375 0.7704666
vt 0.3838979 0.7578374
vt 0.3651506 0.7613666
vt 0.3674044 0.7518846
vt 0.3562985 0.7457644
vt 0.3562985 0.7283176
vt 0.3562985 0.7104413
vt 0.3562985 0.6949865
vt 0.3562985 0.6825662
vt 0.4480574 0.6322913
vt 0.4480574 0.6445126
vt 0.4350911 0.6473146
vt 0.4480574 0.6592535
vt 0.4368986 0.6616517
vt 0.4480574 0.6242826
vt 0.4480574 0.6181552
vn 0.8435017 -0.3943968 -0.3646314
vn 0.7865245 -0.5550179 -0.2708029
vn 0.8647283 -0.334535 -0.3746081
vn 0.7544215 -0.5847936 -0.2981017
vn 0.7328323 -0.61553 -0.2899648
vn 0.6740341 -0.6615857 -0.3286068
vn 0.7537874 -0.5350065 -0.3815397
vn 0.6912933 -0.5736948 -0.4393037
vn 0.7707443 -0.3907155 -0.5032838
vn 0.6522362 -0.3874509 -0.6515134
vn 0.8783576 -0.350087 -0.3254641
vn 0.9157053 -0.0950251 -0.3904536
vn 0.9952554 0.002263662 -0.09727065
vn 0.9775957 0.08512881 -0.1925091
vn 0.4343227 -0.5859203 -0.68415
vn 0.5960647 -0.6631841 -0.4526519
vn 0.7450916 -0.4929924 -0.4492183
vn 0.8398236 -0.2477898 -0.4830078
vn 0.8435017 -0.3943968 -0.3646314
vn 0.8641945 0.1379674 -0.4838727
vn 0.9165406 0.2385072 -0.3210415
vn 0.6021019 -0.645923 -0.4693152
vn 0.3842238 -0.6714103 -0.6337036
vn 0.3933772 -0.6386826 -0.661316
vn 0.1711902 -0.6788225 -0.7140687
vn 0.1877843 -0.6230762 -0.7592846
vn 0.6643802 -0.3950581 -0.6344509
vn 0.7288371 -0.1025529 -0.6769634
vn 0.5198716 0.006196935 -0.8542219
vn 0.4750681 -0.3253682 -0.8175853
vn 0.2887054 -0.292433 -0.9116645
vn 0.3269202 0.05551023 -0.9434203
vn 0.7947842 0.4228336 -0.4353502
vn 0.8180769 0.5069048 -0.2716574
vn 0.6390938 0.6862311 -0.3473415
vn 0.613345 0.5844901 -0.5312056
vn 0.9470319 0.2758285 -0.1644664
vn 0.6420939 0.7548541 -0.133831
vn 0.4195924 0.818606 -0.392207
vn 0.4127353 0.899413 -0.1438952
vn 0.8229529 0.5589552 -0.1015758
vn 0.6303175 0.7732851 0.06877504
vn 0.8212103 0.5690988 0.04171572
vn 0.9530197 0.3027264 -0.01049853
vn 0.7576935 0.280138 -0.5894262
vn 0.5641211 0.4130112 -0.7149749
vn 0.7377303 0.09199623 -0.6687979
vn 0.5347195 0.2125842 -0.8178527
vn 0.3578178 0.4814263 -0.800122
vn 0.3960232 0.6905939 -0.6051825
vn 0.8392215 -0.08010053 -0.5378579
vn 0.3362228 0.2650172 -0.9037256
vn 0.2060027 0.5076199 -0.8365913
vn 0.2035413 0.2907547 -0.9348971
vn 0 0.3063233 -0.9519276
vn 0 0.5207098 -0.8537338
vn 0 0.7494766 -0.6620309
vn 0.2219528 0.731878 -0.6442761
vn 0.2201653 0.8846028 -0.4111022
vn 0 0.9071825 -0.4207375
vn 0 0.9885086 -0.1511649
vn 0.1921393 0.9705107 -0.1455726
vn 0.1723082 0.9771112 0.1247546
vn 0 0.991572 0.1295573
vn 0.3923995 0.9138932 0.1040285
vn 0.1632431 0.9260594 0.3402434
vn 0 0.9372193 0.3487407
vn 0.1606233 0.8828613 0.4413117
vn 0 0.8920457 0.4519451
vn 0.3601631 0.8836555 0.2990578
vn 0.3384843 0.8569666 0.3886344
vn 0.5862671 0.7619483 0.2751828
vn 0.6109387 0.7649885 0.2038296
vn 0.8020236 0.5753107 0.160548
vn 0.8236551 0.5552359 0.1153499
vn 0.8957382 0.4349034 0.09226045
vn 0.9279535 0.3637504 0.08116672
vn 0.9889134 0.1484855 -0.001589648
vn 0.9892541 0.1056948 -0.1010189
vn 0.9985769 0.0281464 -0.04529781
vn 0.1854347 -0.2704729 -0.9447001
vn 0 -0.2519985 -0.9677277
vn 0 -0.6130546 -0.7900406
vn 0 0.08500648 -0.9963804
vn 0.2100946 0.0713967 -0.9750706
vn 0 -0.6914473 -0.722427
vn 0 -0.6182862 -0.785953
vn -0.8435017 -0.3943968 -0.3646314
vn -0.8647283 -0.334535 -0.3746081
vn -0.7865245 -0.5550179 -0.2708029
vn -0.7544215 -0.5847936 -0.2981017
vn -0.7328323 -0.61553 -0.2899648
vn -0.6740341 -0.6615857 -0.3286068
vn -0.7537874 -0.5350065 -0.3815397
vn -0.6912933 -0.5736948 -0.4393037
vn -0.7707443 -0.3907155 -0.5032838
vn -0.6522362 -0.3874509 -0.6515134
vn -0.8783576 -0.350087 -0.3254641
vn -0.9157053 -0.0950251 -0.3904536
vn -0.9952554 0.002263662 -0.09727065
vn -0.9775957 0.08512881 -0.1925091
vn -0.4343227 -0.5859203 -0.68415
vn -0.5960647 -0.6631841 -0.4526519
vn -0.7450916 -0.4929924 -0.4492183
vn -0.8398236 -0.2477898 -0.4830078
vn -0.8435017 -0.3943968 -0.3646314
vn -0.8641945 0.1379674 -0.4838727
vn -0.9165406 0.2385072 -0.3210415
vn -0.6021019 -0.645923 -0.4693152
vn -0.3842238 -0.6714103 -0.6337036
vn -0.3933772 -0.6386826 -0.661316
vn -0.1711902 -0.6788225 -0.7140687
vn -0.1877843 -0.6230762 -0.7592846
vn -0.6643802 -0.3950581 -0.6344509
vn -0.7288371 -0.1025529 -0.6769634
vn -0.5198716 0.006196945 -0.8542219
vn -0.4750681 -0.3253682 -0.8175853
vn -0.2887054 -0.292433 -0.9116645
vn -0.3269201 0.05551023 -0.9434203
vn -0.7947842 0.4228336 -0.4353501
vn -0.8180769 0.5069048 -0.2716574
vn -0.6390938 0.6862311 -0.3473415
vn -0.613345 0.5844901 -0.5312055
vn -0.9470319 0.2758285 -0.1644664
vn -0.6420939 0.7548541 -0.133831
vn -0.4195924 0.818606 -0.3922071
vn -0.4127353 0.899413 -0.1438952
vn -0.8229529 0.5589552 -0.1015758
vn -0.6303174 0.7732852 0.06877503
vn -0.8212103 0.5690988 0.04171572
vn -0.9530197 0.3027264 -0.01049853
vn -0.7576935 0.280138 -0.5894262
vn -0.5641211 0.4130112 -0.7149749
vn -0.7377303 0.09199623 -0.6687979
vn -0.5347195 0.2125842 -0.8178527
vn -0.3578178 0.4814263 -0.800122
vn -0.3960231 0.6905939 -0.6051825
vn -0.8392215 -0.08010053 -0.5378579
vn -0.3362228 0.2650172 -0.9037256
vn -0.2060027 0.5076199 -0.8365913
vn -0.2035413 0.2907547 -0.9348971
vn 0 0.3063233 -0.9519276
vn 0 0.5207098 -0.8537338
vn 0 0.7494766 -0.6620309
vn -0.2219528 0.7318779 -0.6442761
vn -0.2201654 0.8846028 -0.4111023
vn 0 0.9071825 -0.4207375
vn 0 0.9885086 -0.1511649
vn -0.1921393 0.9705107 -0.1455726
vn -0.1723082 0.9771112 0.1247547
vn 0 0.991572 0.1295573
vn -0.3923996 0.9138931 0.1040285
vn -0.1632431 0.9260594 0.3402434
vn 0 0.9372193 0.3487407
vn -0.1606233 0.8828613 0.4413117
vn 0 0.8920457 0.4519451
vn -0.3601631 0.8836555 0.2990578
vn -0.3384843 0.8569666 0.3886344
vn -0.5862671 0.7619483 0.2751828
vn -0.6109387 0.7649885 0.2038297
vn -0.8020236 0.5753107 0.160548
vn -0.8236551 0.5552359 0.1153499
vn -0.8957382 0.4349034 0.09226045
vn -0.9279535 0.3637504 0.08116672
vn -0.9889134 0.1484855 -0.001589646
vn -0.9892541 0.1056948 -0.1010189
vn -0.9985769 0.0281464 -0.04529781
vn 0 -0.6130546 -0.7900406
vn 0 -0.2519985 -0.9677277
vn -0.1854347 -0.2704729 -0.9447001
vn 0 0.08500648 -0.9963804
vn -0.2100946 0.0713967 -0.9750706
vn 0 -0.6914473 -0.722427
vn 0 -0.6182862 -0.785953
g f_scalp_nude_0
f 3/3/3 2/2/2 1/1/1
f 4/4/4 1/1/1 2/2/2
f 2/2/2 5/5/5 4/4/4
f 6/6/6 4/4/4 5/5/5
f 5/5/5 7/7/7 6/6/6
f 8/8/8 6/6/6 7/7/7
f 7/7/7 9/9/9 8/8/8
f 10/10/10 8/8/8 9/9/9
f 3/3/3 1/1/1 11/11/11
f 12/12/12 11/11/11 1/1/1
f 12/12/12 13/13/13 11/11/11
f 12/12/12 14/14/14 13/13/13
f 10/10/10 15/15/15 8/8/8
f 8/8/8 16/16/16 6/6/6
f 6/6/6 17/17/17 4/4/4
f 16/16/16 17/17/17 6/6/6
f 17/17/17 18/18/18 4/4/4
f 18/18/18 19/19/19 4/4/4
f 12/12/12 20/20/20 14/14/14
f 20/20/20 21/21/21 14/14/14
f 22/22/22 16/16/16 8/8/8
f 15/15/15 22/22/22 8/8/8
f 16/16/16 22/22/22 23/23/23
f 15/15/15 23/23/23 22/22/22
f 24/24/24 16/16/16 23/23/23
f 23/23/23 25/25/25 24/24/24
f 15/15/15 25/25/25 23/23/23
f 25/25/25 26/26/26 24/24/24
f 24/24/24 27/27/27 16/16/16
f 27/27/27 17/17/17 16/16/16
f 28/28/28 18/18/18 17/17/17
f 27/27/27 28/28/28 17/17/17
f 29/29/29 28/28/28 27/27/27
f 30/30/30 29/29/29 27/27/27
f 30/30/30 27/27/27 24/24/24
f 24/24/24 31/31/31 30/30/30
f 30/30/30 31/31/31 29/29/29
f 26/26/26 31/31/31 24/24/24
f 31/31/31 32/32/32 29/29/29
f 33/33/33 21/21/21 20/20/20
f 21/21/21 33/33/33 34/34/34
f 34/34/34 33/33/33 35/35/35
f 33/33/33 36/36/36 35/35/35
f 37/37/37 21/21/21 34/34/34
f 35/35/35 38/38/38 34/34/34
f 35/35/35 39/39/39 38/38/38
f 35/35/35 36/36/36 39/39/39
f 39/39/39 40/40/40 38/38/38
f 38/38/38 41/41/41 34/34/34
f 34/34/34 41/41/41 37/37/37
f 41/41/41 38/38/38 42/42/42
f 43/43/43 41/41/41 42/42/42
f 44/44/44 41/41/41 43/43/43
f 41/41/41 44/44/44 37/37/37
f 36/36/36 33/33/33 45/45/45
f 46/46/46 36/36/36 45/45/45
f 45/45/45 47/47/47 46/46/46
f 47/47/47 48/48/48 46/46/46
f 46/46/46 49/49/49 36/36/36
f 46/46/46 48/48/48 49/49/49
f 49/49/49 50/50/50 36/36/36
f 36/36/36 50/50/50 39/39/39
f 51/51/51 47/47/47 45/45/45
f 20/20/20 51/51/51 45/45/45
f 45/45/45 33/33/33 20/20/20
f 12/12/12 51/51/51 20/20/20
f 48/48/48 52/52/52 49/49/49
f 49/49/49 52/52/52 53/53/53
f 52/52/52 54/54/54 53/53/53
f 53/53/53 54/54/54 55/55/55
f 56/56/56 53/53/53 55/55/55
f 56/56/56 57/57/57 53/53/53
f 57/57/57 58/58/58 53/53/53
f 58/58/58 50/50/50 49/49/49
f 53/53/53 58/58/58 49/49/49
f 59/59/59 58/58/58 57/57/57
f 50/50/50 58/58/58 59/59/59
f 60/60/60 59/59/59 57/57/57
f 60/60/60 61/61/61 59/59/59
f 61/61/61 62/62/62 59/59/59
f 63/63/63 62/62/62 61/61/61
f 64/64/64 63/63/63 61/61/61
f 40/40/40 62/62/62 63/63/63
f 65/65/65 40/40/40 63/63/63
f 38/38/38 40/40/40 65/65/65
f 42/42/42 38/38/38 65/65/65
f 62/62/62 40/40/40 39/39/39
f 59/59/59 62/62/62 39/39/39
f 39/39/39 50/50/50 59/59/59
f 66/66/66 63/63/63 64/64/64
f 67/67/67 66/66/66 64/64/64
f 66/66/66 67/67/67 68/68/68
f 67/67/67 69/69/69 68/68/68
f 66/66/66 68/68/68 70/70/70
f 70/70/70 65/65/65 63/63/63
f 66/66/66 70/70/70 63/63/63
f 68/68/68 71/71/71 70/70/70
f 70/70/70 71/71/71 72/72/72
f 73/73/73 70/70/70 72/72/72
f 73/73/73 42/42/42 65/65/65
f 70/70/70 73/73/73 65/65/65
f 73/73/73 72/72/72 74/74/74
f 75/75/75 73/73/73 74/74/74
f 73/73/73 75/75/75 42/42/42
f 76/76/76 75/75/75 74/74/74
f 75/75/75 43/43/43 42/42/42
f 44/44/44 43/43/43 75/75/75
f 77/77/77 44/44/44 75/75/75
f 76/76/76 77/77/77 75/75/75
f 44/44/44 77/77/77 78/78/78
f 44/44/44 78/78/78 79/79/79
f 37/37/37 44/44/44 79/79/79
f 79/79/79 14/14/14 37/37/37
f 80/80/80 14/14/14 79/79/79
f 14/14/14 21/21/21 37/37/37
f 13/13/13 14/14/14 80/80/80
f 82/82/82 81/81/81 26/26/26
f 83/83/83 82/82/82 26/26/26
f 82/82/82 84/84/84 81/81/81
f 84/84/84 85/85/85 81/81/81
f 83/83/83 26/26/26 86/86/86
f 26/26/26 25/25/25 86/86/86
f 87/87/87 86/86/86 25/25/25
f 15/15/15 87/87/87 25/25/25
f 81/81/81 31/31/31 26/26/26
f 81/81/81 85/85/85 31/31/31
f 85/85/85 32/32/32 31/31/31
f 85/85/85 84/84/84 54/54/54
f 84/84/84 55/55/55 54/54/54
f 52/52/52 32/32/32 85/85/85
f 54/54/54 52/52/52 85/85/85
f 52/52/52 48/48/48 32/32/32
f 48/48/48 29/29/29 32/32/32
f 29/29/29 48/48/48 47/47/47
f 28/28/28 29/29/29 47/47/47
f 47/47/47 51/51/51 28/28/28
f 51/51/51 18/18/18 28/28/28
f 18/18/18 51/51/51 19/19/19
f 19/19/19 51/51/51 12/12/12
f 90/90/90 89/89/89 88/88/88
f 88/88/88 91/91/91 90/90/90
f 92/92/92 90/90/90 91/91/91
f 91/91/91 93/93/93 92/92/92
f 94/94/94 92/92/92 93/93/93
f 93/93/93 95/95/95 94/94/94
f 96/96/96 94/94/94 95/95/95
f 95/95/95 97/97/97 96/96/96
f 88/88/88 89/89/89 98/98/98
f 98/98/98 99/99/99 88/88/88
f 100/100/100 99/99/99 98/98/98
f 101/101/101 99/99/99 100/100/100
f 102/102/102 97/97/97 95/95/95
f 103/103/103 95/95/95 93/93/93
f 104/104/104 93/93/93 91/91/91
f 104/104/104 103/103/103 93/93/93
f 105/105/105 104/104/104 91/91/91
f 106/106/106 105/105/105 91/91/91
f 107/107/107 99/99/99 101/101/101
f 108/108/108 107/107/107 101/101/101
f 103/103/103 109/109/109 95/95/95
f 109/109/109 102/102/102 95/95/95
f 109/109/109 103/103/103 110/110/110
f 110/110/110 102/102/102 109/109/109
f 103/103/103 111/111/111 110/110/110
f 112/112/112 110/110/110 111/111/111
f 112/112/112 102/102/102 110/110/110
f 113/113/113 112/112/112 111/111/111
f 114/114/114 111/111/111 103/103/103
f 104/104/104 114/114/114 103/103/103
f 115/115/115 114/114/114 104/104/104
f 105/105/105 115/115/115 104/104/104
f 115/115/115 116/116/116 114/114/114
f 116/116/116 117/117/117 114/114/114
f 114/114/114 117/117/117 111/111/111
f 118/118/118 111/111/111 117/117/117
f 118/118/118 117/117/117 116/116/116
f 118/118/118 113/113/113 111/111/111
f 119/119/119 118/118/118 116/116/116
f 108/108/108 120/120/120 107/107/107
f 120/120/120 108/108/108 121/121/121
f 120/120/120 121/121/121 122/122/122
f 123/123/123 120/120/120 122/122/122
f 108/108/108 124/124/124 121/121/121
f 125/125/125 122/122/122 121/121/121
f 126/126/126 122/122/122 125/125/125
f 123/123/123 122/122/122 126/126/126
f 127/127/127 126/126/126 125/125/125
f 128/128/128 125/125/125 121/121/121
f 128/128/128 121/121/121 124/124/124
f 125/125/125 128/128/128 129/129/129
f 128/128/128 130/130/130 129/129/129
f 128/128/128 131/131/131 130/130/130
f 131/131/131 128/128/128 124/124/124
f 120/120/120 123/123/123 132/132/132
f 123/123/123 133/133/133 132/132/132
f 134/134/134 132/132/132 133/133/133
f 135/135/135 134/134/134 133/133/133
f 136/136/136 133/133/133 123/123/123
f 135/135/135 133/133/133 136/136/136
f 137/137/137 136/136/136 123/123/123
f 137/137/137 123/123/123 126/126/126
f 134/134/134 138/138/138 132/132/132
f 138/138/138 107/107/107 132/132/132
f 120/120/120 132/132/132 107/107/107
f 138/138/138 99/99/99 107/107/107
f 139/139/139 135/135/135 136/136/136
f 139/139/139 136/136/136 140/140/140
f 141/141/141 139/139/139 140/140/140
f 141/141/141 140/140/140 142/142/142
f 140/140/140 143/143/143 142/142/142
f 144/144/144 143/143/143 140/140/140
f 145/145/145 144/144/144 140/140/140
f 145/145/145 140/140/140 136/136/136
f 137/137/137 145/145/145 136/136/136
f 145/145/145 146/146/146 144/144/144
f 145/145/145 137/137/137 146/146/146
f 146/146/146 147/147/147 144/144/144
f 148/148/148 147/147/147 146/146/146
f 149/149/149 148/148/148 146/146/146
f 149/149/149 150/150/150 148/148/148
f 150/150/150 151/151/151 148/148/148
f 149/149/149 127/127/127 150/150/150
f 127/127/127 152/152/152 150/150/150
f 127/127/127 125/125/125 152/152/152
f 125/125/125 129/129/129 152/152/152
f 149/149/149 146/146/146 126/126/126
f 127/127/127 149/149/149 126/126/126
f 137/137/137 126/126/126 146/146/146
f 150/150/150 153/153/153 151/151/151
f 153/153/153 154/154/154 151/151/151
f 154/154/154 153/153/153 155/155/155
f 156/156/156 154/154/154 155/155/155
f 155/155/155 153/153/153 157/157/157
f 157/157/157 153/153/153 150/150/150
f 152/152/152 157/157/157 150/150/150
f 158/158/158 155/155/155 157/157/157
f 158/158/158 157/157/157 159/159/159
f 157/157/157 160/160/160 159/159/159
f 160/160/160 157/157/157 152/152/152
f 129/129/129 160/160/160 152/152/152
f 159/159/159 160/160/160 161/161/161
f 160/160/160 162/162/162 161/161/161
f 162/162/162 160/160/160 129/129/129
f 162/162/162 163/163/163 161/161/161
f 130/130/130 162/162/162 129/129/129
f 130/130/130 131/131/131 162/162/162
f 131/131/131 164/164/164 162/162/162
f 164/164/164 163/163/163 162/162/162
f 164/164/164 131/131/131 165/165/165
f 165/165/165 131/131/131 166/166/166
f 131/131/131 124/124/124 166/166/166
f 101/101/101 166/166/166 124/124/124
f 101/101/101 167/167/167 166/166/166
f 108/108/108 101/101/101 124/124/124
f 101/101/101 100/100/100 167/167/167
f 169/169/169 168/168/168 113/113/113
f 170/170/170 169/169/169 113/113/113
f 171/171/171 169/169/169 170/170/170
f 172/172/172 171/171/171 170/170/170
f 113/113/113 168/168/168 173/173/173
f 112/112/112 113/113/113 173/173/173
f 173/173/173 174/174/174 112/112/112
f 174/174/174 102/102/102 112/112/112
f 118/118/118 170/170/170 113/113/113
f 172/172/172 170/170/170 118/118/118
f 119/119/119 172/172/172 118/118/118
f 171/171/171 172/172/172 141/141/141
f 142/142/142 171/171/171 141/141/141
f 139/139/139 141/141/141 172/172/172
f 119/119/119 139/139/139 172/172/172
f 135/135/135 139/139/139 119/119/119
f 116/116/116 135/135/135 119/119/119
f 135/135/135 116/116/116 134/134/134
f 116/116/116 115/115/115 134/134/134
f 138/138/138 134/134/134 115/115/115
f 105/105/105 138/138/138 115/115/115
f 138/138/138 105/105/105 106/106/106
f 138/138/138 106/106/106 99/99/99
