g frenzyplantroot2
v -0.005428977 0.01616889 -0.01782329
v -0.00627556 0.01501818 -0.01564445
v -0.006382118 0.01567936 -0.01544344
v -0.005612031 0.01648166 -0.01782691
v -0.005598288 0.01592889 -0.0181057
v -0.006882401 0.0146616 -0.01578625
v -0.006121366 0.01586534 -0.01838446
v -0.007949732 0.014889 -0.01568712
v -0.006401837 0.01662759 -0.01839091
v -0.008002066 0.01574042 -0.01546297
v -0.007008044 0.01610607 -0.01515132
v -0.006121787 0.01661913 -0.0180958
v -0.008002066 0.01574042 -0.01546297
v -0.006401837 0.01662759 -0.01839091
v -0.005740528 0.01535276 -0.01120617
v -0.006038776 0.01431227 -0.01144723
v -0.006737934 0.01396004 -0.01101561
v -0.007766331 0.01449115 -0.01052147
v -0.007436085 0.01557615 -0.01016448
v -0.007436085 0.01557615 -0.01016448
v -0.006418817 0.01605239 -0.01065705
v -0.004753324 0.01432302 -0.008409237
v -0.004455069 0.0153669 -0.008268123
v -0.005948417 0.01373538 -0.007887688
v -0.006502189 0.01385141 -0.006159582
v -0.005947802 0.01561968 -0.005991936
v -0.005220241 0.01607811 -0.007440433
v -0.005947802 0.01561968 -0.005991936
v -0.003329852 0.01373349 -0.006873321
v -0.002916667 0.01480142 -0.006411552
v -0.004529369 0.01295806 -0.006162906
v -0.005129093 0.01293995 -0.004645953
v -0.003577623 0.01447822 -0.00257719
v -0.002946177 0.01528347 -0.004394712
v -0.003577623 0.01447822 -0.00257719
v -0.0007124838 0.01296686 -0.005155811
v -6.704711E-05 0.01381628 -0.004429083
v -0.001469025 0.01185648 -0.004436378
v -0.00214176 0.01192733 -0.002113733
v -0.001296959 0.01332303 -0.0008101654
v -0.0003726381 0.01434783 -0.001822061
v -0.001296959 0.01332303 -0.0008101654
v 0.001262832 0.01110563 -0.004079738
v 0.002421242 0.01227694 -0.002999225
v 0.0001146944 0.01007437 -0.003488107
v -0.0006550242 0.0103023 -0.001263757
v 0.0004599905 0.01202144 0.0004492903
v 0.002239073 0.0128824 -0.0003718185
v 0.0004599905 0.01202144 0.0004492903
v 0.003121181 0.008826651 -0.003430238
v 0.004926297 0.009405772 -0.001849542
v 0.001116659 0.008090209 -0.002972936
v 0.0009712219 0.008414078 0.000350995
v 0.002115324 0.009054368 0.001483226
v 0.00416756 0.009514721 0.0006358528
v 0.002115324 0.009054368 0.001483226
v 0.003897776 0.006226178 -0.0032686
v 0.005574046 0.006600306 -0.001554418
v 0.001898443 0.005655739 -0.002657361
v 0.0009439646 0.00541628 0.0009637069
v 0.002563596 0.006149985 0.002392249
v 0.004855331 0.006651975 0.001287436
v 0.002563596 0.006149985 0.002392249
v 0.003552428 0.003267431 -0.003565512
v 0.005840664 0.003877575 -0.001412883
v 0.000639828 0.002465983 -0.002424316
v -0.0007965282 0.002484336 0.0003558969
v 0.001920261 0.003508583 0.0027665
v 0.004855329 0.004048077 0.001654534
v 0.001920261 0.003508583 0.0027665
v 0.002836191 0.0009076059 -0.003986158
v 0.005298909 0.001157721 -0.001559801
v -0.0009508688 4.825172E-05 -0.002599087
v -0.00269992 -7.092551E-05 0.0006051922
v 0.000678311 0.0008136977 0.003076415
v 0.004098281 0.001257516 0.001846056
v 0.000678311 0.0008136977 0.003076415
v 0.002136996 -0.002105382 -0.00426846
v 0.004783052 -0.002117539 -0.002143807
v -0.004070075 -0.002098008 -0.002443766
v -0.003435085 -0.002092322 0.0007859278
v -0.001897503 -0.002094125 0.003024392
v 0.00314874 -0.002121446 0.001736975
v -0.001897503 -0.002094125 0.003024392
v -0.005428977 0.01616889 -0.01782329
v -0.005612031 0.01648166 -0.01782691
v -0.003456677 0.0175809 -0.02038435
v -0.005598288 0.01592889 -0.0181057
v -0.006121366 0.01586534 -0.01838446
v -0.006401837 0.01662759 -0.01839091
v -0.006121787 0.01661913 -0.0180958
vt 0.3971995 0.3077736
vt 0.3971996 0.4127033
vt 0.4971023 0.4127035
vt 0.4971023 0.3077735
vt 0.2975736 0.3077736
vt 0.2975736 0.4127033
vt 0.1979477 0.3077736
vt 0.1979477 0.4127033
vt 0.09832162 0.3077736
vt 0.09832162 0.4127033
vt 0.5970051 0.4127036
vt 0.5970051 0.3077736
vt 0.6966311 0.4127033
vt 0.6966311 0.3077736
vt 0.4971023 0.517633
vt 0.3971996 0.5176329
vt 0.2975737 0.5176331
vt 0.1979477 0.5176331
vt 0.09832174 0.5176331
vt 0.6966312 0.5176331
vt 0.5970051 0.5176331
vt 0.3971996 0.5700979
vt 0.4971023 0.570098
vt 0.2975737 0.5700979
vt 0.1979477 0.5700981
vt 0.09832174 0.5700981
vt 0.5970051 0.5700981
vt 0.6966312 0.5700981
vt 0.3971996 0.6225626
vt 0.4971023 0.6225626
vt 0.2975737 0.6225626
vt 0.1979477 0.6225628
vt 0.09832174 0.6225628
vt 0.5970051 0.6225628
vt 0.6966312 0.6225628
vt 0.3971996 0.6750275
vt 0.4971023 0.6750278
vt 0.2975737 0.6750278
vt 0.1979477 0.6750278
vt 0.09832174 0.6750278
vt 0.5970051 0.6750278
vt 0.6966312 0.6750278
vt 0.3971996 0.7274923
vt 0.4971023 0.7274924
vt 0.2975737 0.7274925
vt 0.1979477 0.7274925
vt 0.09832174 0.7274925
vt 0.5970051 0.7274925
vt 0.6966312 0.7274925
vt 0.3971996 0.7799572
vt 0.4971023 0.7799574
vt 0.2975737 0.7799575
vt 0.1979477 0.7799575
vt 0.09832174 0.7799575
vt 0.5970051 0.7799575
vt 0.6966312 0.7799575
vt 0.3971996 0.832422
vt 0.4971023 0.8324222
vt 0.2975737 0.8324222
vt 0.1979477 0.8324222
vt 0.09832177 0.8324222
vt 0.5970051 0.8324222
vt 0.6966314 0.8324222
vt 0.3971996 0.8848869
vt 0.4971023 0.8848869
vt 0.2975737 0.8848872
vt 0.1979477 0.8848872
vt 0.09832177 0.8848872
vt 0.5970051 0.8848872
vt 0.6966314 0.8848872
vt 0.3971996 0.9373521
vt 0.4971023 0.9373521
vt 0.2975737 0.9373521
vt 0.1979477 0.9373521
vt 0.09832177 0.9373521
vt 0.5970051 0.9373521
vt 0.6966314 0.9373521
vt 0.3971766 0.9898168
vt 0.4971025 0.9898167
vt 0.2975737 0.9898168
vt 0.1979477 0.9898168
vt 0.09829865 0.9898168
vt 0.5970052 0.9898168
vt 0.6966082 0.9898168
vt 0.01770155 0.2219886
vt 0.01770158 0.08357715
vt 0.1373398 0.1527829
vt 0.1375694 0.2911943
vt 0.2574372 0.2219886
vt 0.2574373 0.08357713
vt 0.1375694 0.01437144
vn 0.9053079 -0.3294098 0.2681542
vn 0.8411536 -0.5353456 -0.07658803
vn 0.8822091 0.4664026 0.06461969
vn 0.5322698 0.7101285 0.4608755
vn 0.3148845 -0.9057905 -0.2835336
vn -0.01107309 -0.9785247 -0.205832
vn -0.494104 -0.5655689 -0.6602976
vn -0.7955239 -0.570495 -0.2041499
vn -0.7718121 0.3979647 -0.4959135
vn -0.8625068 0.5033416 -0.05224157
vn 0.01003266 0.9979701 0.06288873
vn -0.07416143 0.9722622 0.2218248
vn -0.8625068 0.5033416 -0.05224157
vn -0.7718121 0.3979647 -0.4959135
vn 0.8879863 0.401659 -0.2239428
vn 0.7551803 -0.61893 -0.215936
vn -0.08200195 -0.9912323 -0.1036062
vn -0.908278 -0.4025408 0.1139819
vn -0.7930467 0.5756338 0.1993053
vn -0.7930467 0.5756338 0.1993053
vn 0.01694712 0.9997678 -0.01330949
vn 0.6290072 -0.6114987 -0.4800202
vn 0.7592925 0.5260966 -0.3830108
vn -0.1250323 -0.9778903 -0.1676232
vn -0.8973805 -0.2239809 0.3801853
vn -0.6201395 0.6300141 0.4674497
vn 0.07350417 0.9962593 0.04543617
vn -0.6201395 0.6300141 0.4674497
vn 0.4309345 -0.485561 -0.760609
vn 0.6212814 0.6518658 -0.4348336
vn -0.1319061 -0.9354973 -0.3277889
vn -0.7052436 -0.5903688 0.3925508
vn -0.5427979 0.3914037 0.7430838
vn 0.2096956 0.9702043 0.1213732
vn -0.5427979 0.3914037 0.7430838
vn 0.4080183 -0.2336262 -0.8825757
vn 0.5854958 0.7037655 -0.4023789
vn -0.2435053 -0.8566845 -0.4547492
vn -0.7031681 -0.5886984 0.3987339
vn -0.4572018 0.3177409 0.8306667
vn 0.3029445 0.9282345 0.2158829
vn -0.4572018 0.3177409 0.8306667
vn 0.3465398 -0.06244422 -0.9359546
vn 0.7263855 0.5952031 -0.3436528
vn -0.5509582 -0.6390476 -0.5367152
vn -0.8266349 -0.4810786 0.2919559
vn -0.2681095 0.282645 0.9209936
vn 0.5625207 0.7268478 0.3940338
vn -0.2681095 0.282645 0.9209936
vn 0.358766 0.0228968 -0.9331467
vn 0.8908224 0.3901455 -0.2328558
vn -0.7493038 -0.3749779 -0.5458346
vn -0.9281867 -0.1726085 0.3296602
vn -0.15105 0.2567324 0.9546058
vn 0.7010499 0.4660042 0.5397861
vn -0.15105 0.2567324 0.9546058
vn 0.3288225 0.02564215 -0.9440436
vn 0.964316 0.1372377 -0.2264077
vn -0.7587679 0.09240066 -0.6447739
vn -0.94711 0.2420169 0.2107377
vn -0.1108425 0.219757 0.9692372
vn 0.7545483 0.2037863 0.6238014
vn -0.1108425 0.219757 0.9692372
vn 0.2368434 0.06596708 -0.9693057
vn 0.9810157 -0.07411411 -0.1792071
vn -0.6773993 0.4021581 -0.6159539
vn -0.8477936 0.5208236 0.0999442
vn -0.1703785 0.2021207 0.9644265
vn 0.760657 -0.04073466 0.6478747
vn -0.1703785 0.2021207 0.9644265
vn 0.1665623 0.1458901 -0.9751785
vn 0.9727095 -0.1872596 -0.1370042
vn -0.5430447 0.4251466 -0.7241221
vn -0.7775761 0.594808 0.2039086
vn -0.1038166 0.1137309 0.9880726
vn 0.6890852 -0.189793 0.6993856
vn -0.1038166 0.1137309 0.9880726
vn 0.0668762 0.1720042 -0.9828235
vn 0.9597778 -0.1615341 -0.2296375
vn -0.6517487 0.5803048 -0.4883339
vn -0.7520056 0.6130374 0.2422246
vn -0.3319651 0.2384075 0.9126669
vn 0.6195328 -0.2296515 0.7506259
vn -0.3319651 0.2384075 0.9126669
vn 0.9053079 -0.3294098 0.2681542
vn 0.5322698 0.7101285 0.4608755
vn -0.1567708 -0.006968185 -0.9876105
vn 0.3148845 -0.9057905 -0.2835336
vn -0.494104 -0.5655689 -0.6602976
vn -0.7718121 0.3979647 -0.4959135
vn -0.07416143 0.9722622 0.2218248
g frenzyplantroot2_0
f 3/3/3 2/2/2 1/1/1
f 4/4/4 3/3/3 1/1/1
f 1/1/1 2/2/2 5/5/5
f 2/2/2 6/6/6 5/5/5
f 5/5/5 6/6/6 7/7/7
f 6/6/6 8/8/8 7/7/7
f 7/7/7 8/8/8 9/9/9
f 8/8/8 10/10/10 9/9/9
f 11/11/11 3/3/3 4/4/4
f 12/12/12 11/11/11 4/4/4
f 13/13/13 11/11/11 12/12/12
f 14/14/14 13/13/13 12/12/12
f 3/3/3 15/15/15 2/2/2
f 15/15/15 16/16/16 2/2/2
f 2/2/2 16/16/16 6/6/6
f 16/16/16 17/17/17 6/6/6
f 6/6/6 17/17/17 8/8/8
f 17/17/17 18/18/18 8/8/8
f 8/8/8 18/18/18 10/10/10
f 18/18/18 19/19/19 10/10/10
f 13/13/13 20/20/20 11/11/11
f 20/20/20 21/21/21 11/11/11
f 21/21/21 15/15/15 3/3/3
f 11/11/11 21/21/21 3/3/3
f 22/22/22 16/16/16 15/15/15
f 23/23/23 22/22/22 15/15/15
f 23/23/23 15/15/15 21/21/21
f 24/24/24 17/17/17 16/16/16
f 22/22/22 24/24/24 16/16/16
f 25/25/25 18/18/18 17/17/17
f 24/24/24 25/25/25 17/17/17
f 26/26/26 19/19/19 18/18/18
f 25/25/25 26/26/26 18/18/18
f 27/27/27 21/21/21 20/20/20
f 27/27/27 23/23/23 21/21/21
f 28/28/28 27/27/27 20/20/20
f 29/29/29 22/22/22 23/23/23
f 30/30/30 29/29/29 23/23/23
f 30/30/30 23/23/23 27/27/27
f 31/31/31 24/24/24 22/22/22
f 29/29/29 31/31/31 22/22/22
f 32/32/32 25/25/25 24/24/24
f 31/31/31 32/32/32 24/24/24
f 33/33/33 26/26/26 25/25/25
f 32/32/32 33/33/33 25/25/25
f 34/34/34 27/27/27 28/28/28
f 34/34/34 30/30/30 27/27/27
f 35/35/35 34/34/34 28/28/28
f 36/36/36 29/29/29 30/30/30
f 37/37/37 36/36/36 30/30/30
f 37/37/37 30/30/30 34/34/34
f 38/38/38 31/31/31 29/29/29
f 36/36/36 38/38/38 29/29/29
f 39/39/39 32/32/32 31/31/31
f 38/38/38 39/39/39 31/31/31
f 40/40/40 33/33/33 32/32/32
f 39/39/39 40/40/40 32/32/32
f 41/41/41 34/34/34 35/35/35
f 41/41/41 37/37/37 34/34/34
f 42/42/42 41/41/41 35/35/35
f 43/43/43 36/36/36 37/37/37
f 44/44/44 43/43/43 37/37/37
f 44/44/44 37/37/37 41/41/41
f 45/45/45 38/38/38 36/36/36
f 43/43/43 45/45/45 36/36/36
f 46/46/46 39/39/39 38/38/38
f 45/45/45 46/46/46 38/38/38
f 47/47/47 40/40/40 39/39/39
f 46/46/46 47/47/47 39/39/39
f 48/48/48 41/41/41 42/42/42
f 48/48/48 44/44/44 41/41/41
f 49/49/49 48/48/48 42/42/42
f 50/50/50 43/43/43 44/44/44
f 51/51/51 50/50/50 44/44/44
f 51/51/51 44/44/44 48/48/48
f 52/52/52 45/45/45 43/43/43
f 50/50/50 52/52/52 43/43/43
f 53/53/53 46/46/46 45/45/45
f 52/52/52 53/53/53 45/45/45
f 54/54/54 47/47/47 46/46/46
f 53/53/53 54/54/54 46/46/46
f 55/55/55 48/48/48 49/49/49
f 55/55/55 51/51/51 48/48/48
f 56/56/56 55/55/55 49/49/49
f 57/57/57 50/50/50 51/51/51
f 58/58/58 57/57/57 51/51/51
f 58/58/58 51/51/51 55/55/55
f 59/59/59 52/52/52 50/50/50
f 57/57/57 59/59/59 50/50/50
f 60/60/60 53/53/53 52/52/52
f 59/59/59 60/60/60 52/52/52
f 61/61/61 54/54/54 53/53/53
f 60/60/60 61/61/61 53/53/53
f 62/62/62 55/55/55 56/56/56
f 62/62/62 58/58/58 55/55/55
f 63/63/63 62/62/62 56/56/56
f 64/64/64 57/57/57 58/58/58
f 65/65/65 64/64/64 58/58/58
f 65/65/65 58/58/58 62/62/62
f 66/66/66 59/59/59 57/57/57
f 64/64/64 66/66/66 57/57/57
f 67/67/67 60/60/60 59/59/59
f 66/66/66 67/67/67 59/59/59
f 68/68/68 61/61/61 60/60/60
f 67/67/67 68/68/68 60/60/60
f 69/69/69 62/62/62 63/63/63
f 69/69/69 65/65/65 62/62/62
f 70/70/70 69/69/69 63/63/63
f 71/71/71 64/64/64 65/65/65
f 72/72/72 71/71/71 65/65/65
f 72/72/72 65/65/65 69/69/69
f 73/73/73 66/66/66 64/64/64
f 71/71/71 73/73/73 64/64/64
f 74/74/74 67/67/67 66/66/66
f 73/73/73 74/74/74 66/66/66
f 75/75/75 68/68/68 67/67/67
f 74/74/74 75/75/75 67/67/67
f 76/76/76 69/69/69 70/70/70
f 76/76/76 72/72/72 69/69/69
f 77/77/77 76/76/76 70/70/70
f 78/78/78 71/71/71 72/72/72
f 79/79/79 78/78/78 72/72/72
f 79/79/79 72/72/72 76/76/76
f 80/80/80 73/73/73 71/71/71
f 78/78/78 80/80/80 71/71/71
f 81/81/81 74/74/74 73/73/73
f 80/80/80 81/81/81 73/73/73
f 82/82/82 75/75/75 74/74/74
f 81/81/81 82/82/82 74/74/74
f 83/83/83 76/76/76 77/77/77
f 83/83/83 79/79/79 76/76/76
f 84/84/84 83/83/83 77/77/77
f 87/87/87 86/86/86 85/85/85
f 87/87/87 85/85/85 88/88/88
f 87/87/87 88/88/88 89/89/89
f 87/87/87 89/89/89 90/90/90
f 87/87/87 90/90/90 91/91/91
f 87/87/87 91/91/91 86/86/86
