g mesh_screen_glow
v 0.2763055 0.05496044 -1.220367E-17
v 0.1421692 0.02827909 0.0006000785
v 0.1339205 0.05547158 0.0006000785
v 0.2602741 0.1078089 -2.393839E-17
v 0.2342406 0.1565144 -3.475318E-17
v 0.1205252 0.08053225 0.0006000785
v 0.1024983 0.1024981 0.0006000785
v 0.1992052 0.1992051 -4.423241E-17
v 0.08053246 0.1205251 0.0006000785
v 0.1565146 0.2342404 -5.201182E-17
v 0.05547176 0.1339204 0.0006000785
v 0.1078092 0.2602741 -5.779245E-17
v 0.02827932 0.1421691 0.0006000785
v 0.05496072 0.2763055 -6.135215E-17
v 1.130386E-07 0.1449544 0.0006000785
v 1.259382E-07 0.2817187 -6.255412E-17
v -0.05496046 0.2763056 -6.135216E-17
v -0.02827909 0.1421691 0.0006000785
v -0.05547157 0.1339205 0.0006000785
v -0.107809 0.2602741 -5.779247E-17
v -0.08053228 0.1205252 0.0006000785
v -0.1565144 0.2342406 -5.201187E-17
v -0.1024982 0.1024983 0.0006000785
v -0.1992051 0.1992053 -4.423246E-17
v -0.1205252 0.08053245 0.0006000785
v -0.2342405 0.1565146 -3.475323E-17
v -0.2602741 0.1078092 -2.393845E-17
v -0.1339204 0.05547167 0.0006000785
v -0.2763056 0.05496069 -1.220372E-17
v -0.1421691 0.02827923 0.0006000785
v -0.1449544 7.32074E-09 0.0006000785
v -0.2817188 9.235467E-08 -2.050686E-23
v -0.2763056 -0.05496053 1.220369E-17
v -0.1421692 -0.02827921 0.0006000785
v -0.1339205 -0.05547173 0.0006000785
v -0.2602743 -0.107809 2.393842E-17
v -0.2342407 -0.1565145 3.475321E-17
v -0.1205252 -0.08053239 0.0006000785
v -0.1992053 -0.1992052 4.423244E-17
v -0.1024983 -0.1024983 0.0006000785
v -0.08053245 -0.1205253 0.0006000785
v -0.1565147 -0.2342406 5.201187E-17
v -0.1078092 -0.2602743 5.77925E-17
v -0.05547167 -0.1339206 0.0006000785
v -0.05496068 -0.2763057 6.135218E-17
v -0.02827921 -0.1421693 0.0006000785
v 2.447892E-08 -0.1449546 0.0006000785
v -4.617733E-08 -0.2817188 6.255414E-17
v 0.05496058 -0.2763058 6.13522E-17
v 0.02827925 -0.1421693 0.0006000785
v 0.05547176 -0.1339206 0.0006000785
v 0.1078091 -0.2602743 5.779251E-17
v 0.1565146 -0.2342407 5.201189E-17
v 0.08053245 -0.1205254 0.0006000785
v 0.1992053 -0.1992054 4.423248E-17
v 0.1024983 -0.1024984 0.0006000785
v 0.1205254 -0.08053252 0.0006000785
v 0.2342407 -0.1565147 3.475324E-17
v 0.1339207 -0.05547175 0.0006000785
v 0.2602744 -0.1078092 2.393844E-17
v 0.2763058 -0.05496065 1.220372E-17
v 0.1421693 -0.02827927 0.0006000785
v 0.1449546 -4.019902E-08 0.0006000785
v 0.281719 0 0
v 0.2763055 0.05496044 -1.220367E-17
v 0.1421692 0.02827909 0.0006000785
v 0.2602741 0.1078089 -2.393839E-17
v 0.5663569 0.8 0
v 0.2763055 0.05496044 -1.220367E-17
v 0.2342406 0.1565144 -3.475318E-17
v 0.2602741 0.1078089 -2.393839E-17
v 0.1992052 0.1992051 -4.423241E-17
v 0.2342406 0.1565144 -3.475318E-17
v 0.1565146 0.2342404 -5.201182E-17
v 0.1992052 0.1992051 -4.423241E-17
v 0.1078092 0.2602741 -5.779245E-17
v 0.1565146 0.2342404 -5.201182E-17
v 0.05496072 0.2763055 -6.135215E-17
v 0.1078092 0.2602741 -5.779245E-17
v 0.001408255 0.8 -2.384186E-09
v 0.5663569 0.8 0
v 0.05496072 0.2763055 -6.135215E-17
v 1.259382E-07 0.2817187 -6.255412E-17
v -0.5663569 0.8 0
v 0.001408255 0.8 -2.384186E-09
v -0.05496046 0.2763056 -6.135216E-17
v 1.259382E-07 0.2817187 -6.255412E-17
v -0.107809 0.2602741 -5.779247E-17
v -0.5663569 0.8 0
v -0.05496046 0.2763056 -6.135216E-17
v -0.1565144 0.2342406 -5.201187E-17
v -0.107809 0.2602741 -5.779247E-17
v -0.1992051 0.1992053 -4.423246E-17
v -0.1565144 0.2342406 -5.201187E-17
v -0.2342405 0.1565146 -3.475323E-17
v -0.1992051 0.1992053 -4.423246E-17
v -0.2602741 0.1078092 -2.393845E-17
v -0.2342405 0.1565146 -3.475323E-17
v -0.2763056 0.05496069 -1.220372E-17
v -0.2602741 0.1078092 -2.393845E-17
v -0.5663568 -0.0005131569 0
v -0.2763056 0.05496069 -1.220372E-17
v -0.2817188 9.235467E-08 -2.050686E-23
v -0.5663569 0.8 0
v -0.5663568 -0.0005131569 0
v -0.2817188 9.235467E-08 -2.050686E-23
v -0.2763056 -0.05496053 1.220369E-17
v -0.5663569 -0.8 0
v -0.2602743 -0.107809 2.393842E-17
v -0.5663569 -0.8 0
v -0.2763056 -0.05496053 1.220369E-17
v -0.2342407 -0.1565145 3.475321E-17
v -0.2602743 -0.107809 2.393842E-17
v -0.1992053 -0.1992052 4.423244E-17
v -0.2342407 -0.1565145 3.475321E-17
v -0.1565147 -0.2342406 5.201187E-17
v -0.1992053 -0.1992052 4.423244E-17
v -0.1078092 -0.2602743 5.77925E-17
v -0.1565147 -0.2342406 5.201187E-17
v -0.05496068 -0.2763057 6.135218E-17
v -0.1078092 -0.2602743 5.77925E-17
v -0.05496068 -0.2763057 6.135218E-17
v -4.617733E-08 -0.2817188 6.255414E-17
v 0.0007016656 -0.8 0
v -0.5663569 -0.8 0
v -4.617733E-08 -0.2817188 6.255414E-17
v 0.05496058 -0.2763058 6.13522E-17
v 0.0007016656 -0.8 0
v 0.5663569 -0.8 0
v 0.1078091 -0.2602743 5.779251E-17
v 0.5663569 -0.8 0
v 0.05496058 -0.2763058 6.13522E-17
v 0.1565146 -0.2342407 5.201189E-17
v 0.1078091 -0.2602743 5.779251E-17
v 0.1992053 -0.1992054 4.423248E-17
v 0.1565146 -0.2342407 5.201189E-17
v 0.2342407 -0.1565147 3.475324E-17
v 0.1992053 -0.1992054 4.423248E-17
v 0.2602744 -0.1078092 2.393844E-17
v 0.2342407 -0.1565147 3.475324E-17
v 0.2763058 -0.05496065 1.220372E-17
v 0.2602744 -0.1078092 2.393844E-17
v 0.5663568 0.0007261153 0
v 0.5663569 -0.8 0
v 0.2763058 -0.05496065 1.220372E-17
v 0.281719 0 0
v 0.281719 0 0
v 0.2763055 0.05496044 -1.220367E-17
v 0.5663568 0.0007261153 0
v 0.5663569 0.8 0
vt 0.0003297925 0.08948186
vt 0.0003297925 0.9424192
vt 0.03155917 0.9424192
vt 0.03155917 0.08948186
vt 0.06278858 0.08948186
vt 0.06278858 0.9424192
vt 0.09401795 0.9424192
vt 0.09401795 0.08948186
vt 0.1252474 0.9424192
vt 0.1252474 0.08948186
vt 0.1564767 0.9424192
vt 0.1564767 0.08948186
vt 0.1877061 0.9424192
vt 0.1877061 0.08948186
vt 0.2189355 0.9424192
vt 0.2189355 0.08948186
vt 0.2501649 0.08948186
vt 0.2501649 0.9424192
vt 0.2813943 0.9424192
vt 0.2813943 0.08948186
vt 0.3126237 0.9424192
vt 0.3126237 0.08948186
vt 0.3438531 0.9424192
vt 0.3438531 0.08948186
vt 0.3750824 0.9424192
vt 0.3750824 0.08948186
vt 0.4063118 0.08948186
vt 0.4063118 0.9424192
vt 0.4375412 0.08948186
vt 0.4375412 0.9424192
vt 0.4687706 0.9424192
vt 0.4687706 0.08948186
vt 0.5 0.08948186
vt 0.5 0.9424192
vt 0.5312294 0.9424192
vt 0.5312294 0.08948186
vt 0.5624588 0.08948186
vt 0.5624588 0.9424192
vt 0.5936881 0.08948186
vt 0.5936881 0.9424192
vt 0.6249176 0.9424192
vt 0.6249176 0.08948186
vt 0.6561469 0.08948186
vt 0.6561469 0.9424192
vt 0.6873763 0.08948186
vt 0.6873763 0.9424192
vt 0.7186057 0.9424192
vt 0.7186057 0.08948186
vt 0.7498351 0.08948186
vt 0.7498351 0.9424192
vt 0.7810645 0.9424192
vt 0.7810645 0.08948186
vt 0.8122939 0.08948186
vt 0.8122939 0.9424192
vt 0.8435233 0.08948186
vt 0.8435233 0.9424192
vt 0.8747526 0.9424192
vt 0.8747526 0.08948186
vt 0.905982 0.9424192
vt 0.905982 0.08948186
vt 0.9372114 0.08948186
vt 0.9372114 0.9424192
vt 0.9684408 0.9424192
vt 0.9684408 0.08948186
vt 0.9996702 0.08948186
vt 0.9996702 0.9424192
vt 0 0.08968924
vt 0.5 0.0787131
vt 1 0.08968924
vt 0 0.08968924
vt 1 0.08968924
vt 0 0.08968924
vt 1 0.08968924
vt 0 0.08968924
vt 1 0.08968924
vt 0 0.08968924
vt 1 0.08968924
vt 0 0.08968924
vt 1 0.08968924
vt 0 0.0787131
vt 1 0.0787131
vt 1 0.08968924
vt 0 0.08968924
vt 0 0.0787131
vt 1 0.0787131
vt 0 0.08968924
vt 1 0.08968924
vt 0 0.08968924
vt 0.5 0.0787131
vt 1 0.08968924
vt 0 0.08968924
vt 1 0.08968924
vt 0 0.08968924
vt 1 0.08968924
vt 0 0.08968924
vt 1 0.08968924
vt 0 0.08968924
vt 1 0.08968924
vt 0 0.08968924
vt 1 0.08968924
vt 0 0.0787131
vt 1 0.08968924
vt 0 0.08968924
vt 1 0.0787131
vt 1 0.0787131
vt 1 0.08968924
vt 0 0.08968924
vt 0 0.0787131
vt 0 0.08968924
vt 0.5 0.0787131
vt 1 0.08968924
vt 0 0.08968924
vt 1 0.08968924
vt 0 0.08968924
vt 1 0.08968924
vt 0 0.08968924
vt 1 0.08968924
vt 0 0.08968924
vt 1 0.08968924
vt 0 0.08968924
vt 1 0.08968924
vt 1 0.08968924
vt 0 0.08968924
vt 0 0.0787131
vt 1 0.0787131
vt 1 0.08968924
vt 0 0.08968924
vt 1 0.0787131
vt 0 0.0787131
vt 0 0.08968924
vt 0.5 0.0787131
vt 1 0.08968924
vt 0 0.08968924
vt 1 0.08968924
vt 0 0.08968924
vt 1 0.08968924
vt 0 0.08968924
vt 1 0.08968924
vt 0 0.08968924
vt 1 0.08968924
vt 0 0.08968924
vt 1 0.08968924
vt 0 0.0787131
vt 1 0.0787131
vt 1 0.08968924
vt 0 0.08968924
vt 1 0.08968924
vt 0 0.08968924
vt 1 0.0787131
vt 0 0.0787131
vn 0.004303337 0.0008559983 0.9999904
vn 0.004303337 0.0008559983 0.9999904
vn 0.004053656 0.001679079 0.9999904
vn 0.004053656 0.001679079 0.9999904
vn 0.003648193 0.002437644 0.9999904
vn 0.003648193 0.002437644 0.9999904
vn 0.003102534 0.00310253 0.9999904
vn 0.003102534 0.00310253 0.9999904
vn 0.002437648 0.00364819 0.9999904
vn 0.002437648 0.00364819 0.9999904
vn 0.001679082 0.004053652 0.9999904
vn 0.001679082 0.004053652 0.9999904
vn 0.0008559903 0.004303333 0.9999904
vn 0.0008559903 0.004303333 0.9999904
vn 0 0.004387641 0.9999904
vn 0 0.004387641 0.9999904
vn -0.0008559857 0.004303334 0.9999904
vn -0.0008559857 0.004303334 0.9999904
vn -0.001679074 0.004053653 0.9999904
vn -0.001679074 0.004053653 0.9999904
vn -0.002437641 0.003648192 0.9999904
vn -0.002437641 0.003648192 0.9999904
vn -0.003102528 0.003102535 0.9999904
vn -0.003102528 0.003102535 0.9999904
vn -0.003648188 0.002437647 0.9999904
vn -0.003648188 0.002437647 0.9999904
vn -0.004053651 0.001679078 0.9999904
vn -0.004053651 0.001679078 0.9999904
vn -0.004303334 0.0008559877 0.9999904
vn -0.004303334 0.0008559877 0.9999904
vn -0.00438764 0 0.9999904
vn -0.00438764 0 0.9999904
vn -0.004303335 -0.0008559821 0.9999904
vn -0.004303335 -0.0008559821 0.9999904
vn -0.004053652 -0.001679076 0.9999904
vn -0.004053652 -0.001679076 0.9999904
vn -0.003648191 -0.002437644 0.9999904
vn -0.003648191 -0.002437644 0.9999904
vn -0.003102534 -0.003102528 0.9999904
vn -0.003102534 -0.003102528 0.9999904
vn -0.002437646 -0.003648187 0.9999904
vn -0.002437646 -0.003648187 0.9999904
vn -0.001679078 -0.004053651 0.9999904
vn -0.001679078 -0.004053651 0.9999904
vn -0.000855987 -0.004303335 0.9999904
vn -0.000855987 -0.004303335 0.9999904
vn 0 -0.004387643 0.9999904
vn 0 -0.004387643 0.9999904
vn 0.0008559832 -0.004303335 0.9999904
vn 0.0008559832 -0.004303335 0.9999904
vn 0.001679076 -0.004053654 0.9999904
vn 0.001679076 -0.004053654 0.9999904
vn 0.002437644 -0.00364819 0.9999904
vn 0.002437644 -0.00364819 0.9999904
vn 0.00310253 -0.003102532 0.9999904
vn 0.00310253 -0.003102532 0.9999904
vn 0.003648189 -0.002437647 0.9999904
vn 0.003648189 -0.002437647 0.9999904
vn 0.004053652 -0.001679078 0.9999904
vn 0.004053652 -0.001679078 0.9999904
vn 0.004303333 -0.000855986 0.9999904
vn 0.004303333 -0.000855986 0.9999904
vn 0.004387641 0 0.9999904
vn 0.004387641 0 0.9999904
vn 0.004303337 0.0008559983 0.9999904
vn 0.004303337 0.0008559983 0.9999904
vn 0 0 1
vn 0 0 1
vn 0 0 1
vn 0 0 1
vn 0 0 1
vn 0 0 1
vn 0 0 1
vn 0 0 1
vn 0 0 1
vn 0 0 1
vn 0 0 1
vn 0 0 1
vn 0 0 1
vn 0 0 1
vn 0 0 1
vn 0 0 1
vn 0 0 1
vn 0 0 1
vn 0 0 1
vn 0 0 1
vn 0 0 1
vn 0 0 1
vn 0 0 1
vn 0 0 1
vn 0 0 1
vn 0 0 1
vn 0 0 1
vn 0 0 1
vn 0 0 1
vn 0 0 1
vn 0 0 1
vn 0 0 1
vn 0 0 1
vn 0 0 1
vn 0 0 1
vn 0 0 1
vn 0 0 1
vn 0 0 1
vn 0 0 1
vn 0 0 1
vn 0 0 1
vn 0 0 1
vn 0 0 1
vn 0 0 1
vn 0 0 1
vn 0 0 1
vn 0 0 1
vn 0 0 1
vn 0 0 1
vn 0 0 1
vn 0 0 1
vn 0 0 1
vn 0 0 1
vn 0 0 1
vn 0 0 1
vn 0 0 1
vn 0 0 1
vn 0 0 1
vn 0 0 1
vn 0 0 1
vn 0 0 1
vn 0 0 1
vn 0 0 1
vn 0 0 1
vn 0 0 1
vn 0 0 1
vn 0 0 1
vn 0 0 1
vn 0 0 1
vn 0 0 1
vn 0 0 1
vn 0 0 1
vn 0 0 1
vn 0 0 1
vn 0 0 1
vn 0 0 1
vn 0 0 1
vn 0 0 1
vn 0 0 1
vn 0 0 1
vn 0 0 1
vn 0 0 1
vn 0 0 1
vn 0 0 1
g mesh_screen_glow_0
f 3/3/3 2/2/2 1/1/1
f 1/1/1 4/4/4 3/3/3
f 3/3/3 4/4/4 5/5/5
f 5/5/5 6/6/6 3/3/3
f 5/5/5 7/7/7 6/6/6
f 8/8/8 7/7/7 5/5/5
f 8/8/8 9/9/9 7/7/7
f 9/9/9 8/8/8 10/10/10
f 10/10/10 11/11/11 9/9/9
f 11/11/11 10/10/10 12/12/12
f 13/13/13 11/11/11 12/12/12
f 13/13/13 12/12/12 14/14/14
f 15/15/15 13/13/13 14/14/14
f 15/15/15 14/14/14 16/16/16
f 15/15/15 16/16/16 17/17/17
f 17/17/17 18/18/18 15/15/15
f 19/19/19 18/18/18 17/17/17
f 17/17/17 20/20/20 19/19/19
f 21/21/21 19/19/19 20/20/20
f 20/20/20 22/22/22 21/21/21
f 23/23/23 21/21/21 22/22/22
f 22/22/22 24/24/24 23/23/23
f 24/24/24 25/25/25 23/23/23
f 24/24/24 26/26/26 25/25/25
f 25/25/25 26/26/26 27/27/27
f 27/27/27 28/28/28 25/25/25
f 28/28/28 27/27/27 29/29/29
f 29/29/29 30/30/30 28/28/28
f 29/29/29 31/31/31 30/30/30
f 31/31/31 29/29/29 32/32/32
f 31/31/31 32/32/32 33/33/33
f 33/33/33 34/34/34 31/31/31
f 35/35/35 34/34/34 33/33/33
f 35/35/35 33/33/33 36/36/36
f 35/35/35 36/36/36 37/37/37
f 37/37/37 38/38/38 35/35/35
f 38/38/38 37/37/37 39/39/39
f 39/39/39 40/40/40 38/38/38
f 41/41/41 40/40/40 39/39/39
f 39/39/39 42/42/42 41/41/41
f 41/41/41 42/42/42 43/43/43
f 43/43/43 44/44/44 41/41/41
f 44/44/44 43/43/43 45/45/45
f 45/45/45 46/46/46 44/44/44
f 45/45/45 47/47/47 46/46/46
f 45/45/45 48/48/48 47/47/47
f 47/47/47 48/48/48 49/49/49
f 49/49/49 50/50/50 47/47/47
f 49/49/49 51/51/51 50/50/50
f 51/51/51 49/49/49 52/52/52
f 51/51/51 52/52/52 53/53/53
f 53/53/53 54/54/54 51/51/51
f 54/54/54 53/53/53 55/55/55
f 55/55/55 56/56/56 54/54/54
f 57/57/57 56/56/56 55/55/55
f 57/57/57 55/55/55 58/58/58
f 59/59/59 57/57/57 58/58/58
f 58/58/58 60/60/60 59/59/59
f 59/59/59 60/60/60 61/61/61
f 61/61/61 62/62/62 59/59/59
f 63/63/63 62/62/62 61/61/61
f 61/61/61 64/64/64 63/63/63
f 63/63/63 64/64/64 65/65/65
f 65/65/65 66/66/66 63/63/63
f 69/69/69 68/68/68 67/67/67
f 71/71/71 68/68/68 70/70/70
f 73/73/73 68/68/68 72/72/72
f 75/75/75 68/68/68 74/74/74
f 77/77/77 68/68/68 76/76/76
f 79/79/79 68/68/68 78/78/78
f 82/82/82 81/81/81 80/80/80
f 80/80/80 83/83/83 82/82/82
f 86/86/86 85/85/85 84/84/84
f 86/86/86 87/87/87 85/85/85
f 90/90/90 89/89/89 88/88/88
f 92/92/92 89/89/89 91/91/91
f 94/94/94 89/89/89 93/93/93
f 96/96/96 89/89/89 95/95/95
f 98/98/98 89/89/89 97/97/97
f 100/100/100 89/89/89 99/99/99
f 103/103/103 102/102/102 101/101/101
f 104/104/104 101/101/101 102/102/102
f 107/107/107 106/106/106 105/105/105
f 108/108/108 107/107/107 105/105/105
f 111/111/111 110/110/110 109/109/109
f 113/113/113 110/110/110 112/112/112
f 115/115/115 110/110/110 114/114/114
f 117/117/117 110/110/110 116/116/116
f 119/119/119 110/110/110 118/118/118
f 121/121/121 110/110/110 120/120/120
f 124/124/124 123/123/123 122/122/122
f 122/122/122 125/125/125 124/124/124
f 128/128/128 127/127/127 126/126/126
f 128/128/128 129/129/129 127/127/127
f 132/132/132 131/131/131 130/130/130
f 134/134/134 131/131/131 133/133/133
f 136/136/136 131/131/131 135/135/135
f 138/138/138 131/131/131 137/137/137
f 140/140/140 131/131/131 139/139/139
f 142/142/142 131/131/131 141/141/141
f 145/145/145 144/144/144 143/143/143
f 143/143/143 146/146/146 145/145/145
f 149/149/149 148/148/148 147/147/147
f 148/148/148 149/149/149 150/150/150
