g mesh_vignette
v 2.390874E-08 0.7120754 -6.255412E-17
v 0.713981 0.7120766 -6.135215E-17
v 0.7139804 0.4491359 0.0003000392
v 2.390874E-08 0.4491354 0.0003000392
v -0.7139786 0.4491359 0.0003000392
v -0.7139786 0.7120765 -6.135216E-17
v 2.390874E-08 0.1861955 0.0006000785
v -0.7139792 0.1861952 0.0006000785
v 0.7139801 0.1861952 0.0006000785
v 2.390874E-08 -0.4491361 0.0003000392
v -0.7139786 -0.7120758 6.135218E-17
v -0.7139786 -0.4491357 0.0003000392
v 2.390874E-08 -0.7120766 6.255414E-17
v 0.7139804 -0.4491357 0.0003000392
v 0.713981 -0.7120758 6.13522E-17
v 0.7139801 -0.1861955 0.0006000785
v 2.390874E-08 -0.1861956 0.0006000785
v -0.7139792 -0.1861955 0.0006000785
v 0.7139801 0.1861952 0.0006000785
v 2.390874E-08 0.1721408 0.0006000785
v 2.390874E-08 0.1861955 0.0006000785
v 0.7139801 0.1721406 0.0006000785
v -0.7139792 0.1861952 0.0006000785
v 2.390874E-08 0.1861955 0.0006000785
v 2.390874E-08 0.1721408 0.0006000785
v -0.7139792 0.1721406 0.0006000785
v 2.390874E-08 -0.1721409 0.0006000785
v -0.7139792 -0.1861955 0.0006000785
v -0.7139792 -0.1721408 0.0006000785
v 2.390874E-08 -0.1861956 0.0006000785
v 2.390874E-08 -0.1721409 0.0006000785
v 0.7139801 -0.1721408 0.0006000785
v 0.7139801 -0.1861955 0.0006000785
v 2.390874E-08 -0.1861956 0.0006000785
vt 0.499986 0.9265174
vt 0.9999961 0.9265174
vt 0.9999961 0.2514418
vt 0.499986 0.2514417
vt 8.949921E-05 0.2514417
vt 8.949637E-05 0.9265174
vt 0.499986 0.07348171
vt 8.949637E-05 0.07348171
vt 0.9999961 0.07348172
vt 0.4999852 0.2514417
vt 0.9999961 0.9265174
vt 0.9999961 0.2514417
vt 0.4999852 0.9265174
vt 8.949931E-05 0.2514417
vt 8.949637E-05 0.9265174
vt 8.949637E-05 0.07348171
vt 0.4999852 0.07348171
vt 0.9999961 0.07348171
vt 8.949637E-05 0.07348118
vt 0.9999961 0.9265167
vt 0.9999961 0.07348118
vt 8.949637E-05 0.9265167
vt 0.9999961 0.07348118
vt 8.949637E-05 0.07348118
vt 8.949637E-05 0.9265167
vt 0.9999961 0.9265167
vt 0.9999961 0.9265167
vt 8.949637E-05 0.07348118
vt 8.949637E-05 0.9265167
vt 0.9999961 0.07348118
vt 8.949637E-05 0.9265167
vt 0.9999961 0.9265167
vt 0.9999961 0.07348118
vt 8.949637E-05 0.07348118
vn 0 0.001141092 0.9999993
vn 0 0.001141092 0.9999993
vn 0 0.001141092 0.9999993
vn 0 0.001141092 0.9999993
vn 0 0.001141092 0.9999993
vn 0 0.001141092 0.9999993
vn 0 0.001141092 0.9999993
vn 0 0.001141091 0.9999993
vn 0 0.001141092 0.9999993
vn 0 -0.001141092 0.9999993
vn 0 -0.001141092 0.9999993
vn 0 -0.001141091 0.9999993
vn 0 -0.001141092 0.9999993
vn 0 -0.001141092 0.9999993
vn 0 -0.001141092 0.9999993
vn 0 -0.001141092 0.9999993
vn 0 -0.001141092 0.9999993
vn 0 -0.001141091 0.9999993
vn 0 0 1
vn 0 0 1
vn 0 0 1
vn 0 0 1
vn 0 0 1
vn 0 0 1
vn 0 0 1
vn 0 0 1
vn 0 0 1
vn 0 0 1
vn 0 0 1
vn 0 0 1
vn 0 0 1
vn 0 0 1
vn 0 0 1
vn 0 0 1
g mesh_vignette_0
f 3/3/3 2/2/2 1/1/1
f 1/1/1 4/4/4 3/3/3
f 5/5/5 4/4/4 1/1/1
f 6/6/6 5/5/5 1/1/1
f 7/7/7 4/4/4 5/5/5
f 5/5/5 8/8/8 7/7/7
f 9/9/9 3/3/3 4/4/4
f 4/4/4 7/7/7 9/9/9
f 12/12/12 11/11/11 10/10/10
f 11/11/11 13/13/13 10/10/10
f 10/10/10 13/13/13 14/14/14
f 13/13/13 15/15/15 14/14/14
f 10/10/10 14/14/14 16/16/16
f 17/17/17 10/10/10 16/16/16
f 12/12/12 10/10/10 17/17/17
f 18/18/18 12/12/12 17/17/17
f 21/21/21 20/20/20 19/19/19
f 20/20/20 22/22/22 19/19/19
f 25/25/25 24/24/24 23/23/23
f 23/23/23 26/26/26 25/25/25
f 29/29/29 28/28/28 27/27/27
f 28/28/28 30/30/30 27/27/27
f 33/33/33 32/32/32 31/31/31
f 31/31/31 34/34/34 33/33/33
