g mesh_ring_8_sided
v 1.055434E-07 -0.001718281 0.2182314
v 0.1543129 -0.001718308 0.1543128
v 0.1526084 -0.004978794 0.1526083
v 1.010204E-07 -0.004978794 0.2158207
v -0.1526083 -0.004978794 0.1526083
v 0.2182316 -0.001718334 -5.567245E-09
v 0.2158209 -0.004978792 -1.424079E-09
v 0.1526084 -0.004978794 -0.1526085
v 0.154313 -0.001718281 -0.154313
v -2.778469E-08 -0.001718281 -0.2182315
v 1.055434E-07 -0.001718281 0.2182314
v -0.1526083 -0.004978794 0.1526083
v -0.1543128 -0.001718308 0.154313
v -0.2182314 -0.001718334 1.173138E-07
v -0.2158208 -0.004978788 1.645867E-09
v -0.1526085 -0.004978794 -0.1526085
v -0.154313 -0.001718299 -0.1543129
v -2.778469E-08 -0.001718281 -0.2182315
v -3.149798E-08 -0.004978794 -0.2158208
v 0.1526084 -0.004978794 -0.1526085
vt 0.009607196 0.597545
vt 0.2222146 0.9157348
vt 0.3100644 0.7842582
vt 0.1646947 0.5666965
vt 0.215742 0.3100648
vt 0.5975444 0.9903934
vt 0.5666957 0.8353059
vt 0.7842578 0.6899359
vt 0.9157345 0.777786
vt 0.9903927 0.4024554
vt 0.009607196 0.597545
vt 0.215742 0.3100648
vt 0.08426529 0.2222148
vt 0.402455 0.009607375
vt 0.4333038 0.1646949
vt 0.6899353 0.2157421
vt 0.7777853 0.08426547
vt 0.9903927 0.4024554
vt 0.8353053 0.4333041
vt 0.7842578 0.6899359
vn 2.732833E-06 -0.5945077 0.8040899
vn 0.5685796 -0.5945023 0.5685809
vn 0.5685796 -0.5945023 0.5685809
vn 2.732833E-06 -0.5945077 0.8040899
vn -0.5685728 -0.594516 0.5685734
vn 0.8040907 -0.5945067 5.65414E-07
vn 0.8040907 -0.5945067 5.65414E-07
vn 0.5685786 -0.5945032 -0.568581
vn 0.5685786 -0.5945032 -0.568581
vn -1.931833E-06 -0.5944923 -0.8041013
vn 2.732833E-06 -0.5945077 0.8040899
vn -0.5685728 -0.594516 0.5685734
vn -0.5685728 -0.594516 0.5685734
vn -0.8040917 -0.5945053 -2.450127E-06
vn -0.8040917 -0.5945053 -2.450127E-06
vn -0.5685858 -0.5944905 -0.5685871
vn -0.5685858 -0.5944905 -0.5685871
vn -1.931833E-06 -0.5944923 -0.8041013
vn -1.931833E-06 -0.5944923 -0.8041013
vn 0.5685786 -0.5945032 -0.568581
g mesh_ring_8_sided_0
f 3/3/3 2/2/2 1/1/1
f 1/1/1 4/4/4 3/3/3
f 5/5/5 4/4/4 1/1/1
f 2/2/2 3/3/3 6/6/6
f 7/7/7 6/6/6 3/3/3
f 6/6/6 7/7/7 8/8/8
f 8/8/8 9/9/9 6/6/6
f 10/10/10 9/9/9 8/8/8
f 13/13/13 12/12/12 11/11/11
f 12/12/12 13/13/13 14/14/14
f 14/14/14 15/15/15 12/12/12
f 16/16/16 15/15/15 14/14/14
f 17/17/17 16/16/16 14/14/14
f 16/16/16 17/17/17 18/18/18
f 18/18/18 19/19/19 16/16/16
f 19/19/19 18/18/18 20/20/20
