g mesh_beam
v 0.09062897 0.1172751 -0.33577
v 0.03208618 0.03711125 -0.981971
v 0.04527359 0.01811124 -0.9129275
v 0.1376699 0.05267244 -0.258777
v 0.02465416 0.1464981 -0.3820358
v 0.01567932 0.05707609 -1.09234
v -0.03931957 0.1449985 -0.4210909
v -0.01375851 0.0586495 -1.134297
v -0.09073692 0.1198196 -0.4517967
v -0.03575241 0.04815025 -1.167289
v -0.1274955 0.0794974 -0.4759974
v -0.05023601 0.0322625 -1.193292
v -0.1472057 0.02861943 -0.5025553
v -0.05800217 0.01221547 -1.22183
v -0.1472057 -0.02594302 -0.5253339
v -0.05800217 -0.009283295 -1.246304
v -0.1274955 -0.076821 -0.5398952
v -0.05023601 -0.02933042 -1.261947
v -0.09073692 -0.1171431 -0.5602699
v -0.03575241 -0.04521826 -1.283835
v -0.04189461 -0.1414637 -0.5915598
v -0.01650749 -0.05480107 -1.317457
v 0.01243507 -0.1464981 -0.6384411
v 0.00489975 -0.05678452 -1.367827
v 0.06491463 -0.1315664 -0.6858039
v 0.02557785 -0.05090116 -1.418714
v 0.1084564 -0.09868516 -0.7361954
v 0.04273407 -0.03794531 -1.472858
v 0.1371799 -0.05229522 -0.7989372
v 0.05405197 -0.01966665 -1.540269
v 0.1472057 0.001338206 -0.8439072
v 0.05800217 0.001466076 -1.588587
v 0.1371799 0.05497162 -0.8919087
v 0.05405197 0.02259873 -1.640162
v 0.09062897 0.1172751 0.2958722
v 0.03208618 0.03711125 -0.3503288
v 0.04527359 0.01811124 -0.2812854
v 0.1376699 0.05267244 0.3728651
v 0.02465416 0.1464981 0.2496063
v 0.01567932 0.05707609 -0.4606975
v -0.03931957 0.1449985 0.2105513
v -0.01375851 0.0586495 -0.5026554
v -0.09073692 0.1198196 0.1798456
v -0.03575241 0.04815025 -0.5356467
v -0.1274955 0.0794974 0.1556447
v -0.05023601 0.0322625 -0.5616494
v -0.1472057 0.02861943 0.1290869
v -0.05800217 0.01221547 -0.5901875
v -0.1472057 -0.02594302 0.1063081
v -0.05800217 -0.009283295 -0.6146622
v -0.1274955 -0.076821 0.09174698
v -0.05023601 -0.02933042 -0.630305
v -0.09073692 -0.1171431 0.07137222
v -0.03575241 -0.04521826 -0.6521931
v -0.04189461 -0.1414637 0.04008224
v -0.01650749 -0.05480107 -0.6858148
v 0.01243507 -0.1464981 -0.006799011
v 0.00489975 -0.05678452 -0.7361845
v 0.06491463 -0.1315664 -0.05416183
v 0.02557785 -0.05090116 -0.7870723
v 0.1084564 -0.09868516 -0.1045534
v 0.04273407 -0.03794531 -0.8412158
v 0.1371799 -0.05229522 -0.1672951
v 0.05405197 -0.01966665 -0.9086272
v 0.1472057 0.001338206 -0.2122652
v 0.05800217 0.001466076 -0.9569451
v 0.1371799 0.05497162 -0.2602666
v 0.05405197 0.02259873 -1.00852
v 0.09062897 0.1172751 0.9301524
v 0.03208618 0.03711125 0.2839514
v 0.04527359 0.01811124 0.3529948
v 0.1376699 0.05267244 1.007146
v 0.02465416 0.1464981 0.8838866
v 0.01567932 0.05707609 0.1735828
v -0.03931957 0.1449985 0.8448313
v -0.01375851 0.0586495 0.1316248
v -0.09073692 0.1198196 0.814126
v -0.03575241 0.04815025 0.09863357
v -0.1274955 0.0794974 0.789925
v -0.05023601 0.0322625 0.07263076
v -0.1472057 0.02861943 0.7633671
v -0.05800217 0.01221547 0.04409271
v -0.1472057 -0.02594302 0.7405885
v -0.05800217 -0.009283295 0.01961807
v -0.1274955 -0.076821 0.7260274
v -0.05023601 -0.02933042 0.00397522
v -0.09073692 -0.1171431 0.7056525
v -0.03575241 -0.04521826 -0.01791275
v -0.04189461 -0.1414637 0.6743626
v -0.01650749 -0.05480107 -0.05153457
v 0.01243507 -0.1464981 0.627481
v 0.00489975 -0.05678452 -0.1019043
v 0.06491463 -0.1315664 0.5801185
v 0.02557785 -0.05090116 -0.1527921
v 0.1084564 -0.09868516 0.5297272
v 0.04273407 -0.03794531 -0.2069356
v 0.1371799 -0.05229522 0.4669852
v 0.05405197 -0.01966665 -0.2743471
v 0.1472057 0.001338206 0.4220154
v 0.05800217 0.001466076 -0.3226649
v 0.1371799 0.05497162 0.3740135
v 0.05405197 0.02259873 -0.3742401
v 0.09062897 0.1172751 1.563169
v 0.03208618 0.03711125 0.9169685
v 0.04527359 0.01811124 0.9860118
v 0.1376699 0.05267244 1.640162
v 0.02465416 0.1464981 1.516904
v 0.01567932 0.05707609 0.8065997
v -0.03931957 0.1449985 1.477848
v -0.01375851 0.0586495 0.7646417
v -0.09073692 0.1198196 1.447143
v -0.03575241 0.04815025 0.7316505
v -0.1274955 0.0794974 1.422942
v -0.05023601 0.0322625 0.7056476
v -0.1472057 0.02861943 1.396384
v -0.05800217 0.01221547 0.6771097
v -0.1472057 -0.02594302 1.373605
v -0.05800217 -0.009283295 0.652635
v -0.1274955 -0.076821 1.359044
v -0.05023601 -0.02933042 0.6369922
v -0.09073692 -0.1171431 1.33867
v -0.03575241 -0.04521826 0.6151041
v -0.04189461 -0.1414637 1.307379
v -0.01650749 -0.05480107 0.5814824
v 0.01243507 -0.1464981 1.260498
v 0.00489975 -0.05678452 0.5311125
v 0.06491463 -0.1315664 1.213135
v 0.02557785 -0.05090116 0.4802251
v 0.1084564 -0.09868516 1.162744
v 0.04273407 -0.03794531 0.4260814
v 0.1371799 -0.05229522 1.100002
v 0.05405197 -0.01966665 0.3586699
v 0.1472057 0.001338206 1.055032
v 0.05800217 0.001466076 0.310352
v 0.1371799 0.05497162 1.007031
v 0.05405197 0.02259873 0.2587768
vt -1.125097 1
vt -1.125097 0
vt -1.250036 0
vt -1.250036 1
vt -1.000085 1
vt -1.000085 0
vt -0.8750734 1
vt -0.8750734 0
vt -0.7500616 1
vt -0.7500616 0
vt -0.6250497 1
vt -0.6250497 0
vt -0.5000378 1
vt -0.5000378 0
vt -0.375026 1
vt -0.375026 0
vt -0.2500142 1
vt -0.2500142 0
vt -0.1250023 1
vt -0.1250023 0
vt 9.483927E-06 1
vt 9.483927E-06 0
vt 0.1250213 1
vt 0.1250213 0
vt 0.2500332 1
vt 0.2500332 0
vt 0.3750451 1
vt 0.3750451 0
vt 0.5000567 1
vt 0.5000567 0
vt 0.6250688 1
vt 0.6250688 0
vt 0.7499635 1
vt 0.7499635 0
vt -0.8750606 1
vt -0.8750606 0
vt -1 0
vt -1 1
vt -0.7500486 1
vt -0.7500486 0
vt -0.6250368 1
vt -0.6250368 0
vt -0.500025 1
vt -0.500025 0
vt -0.3750131 1
vt -0.3750131 0
vt -0.2500013 1
vt -0.2500013 0
vt -0.1249895 1
vt -0.1249895 0
vt 2.236519E-05 1
vt 2.236519E-05 0
vt 0.1250342 1
vt 0.1250342 0
vt 0.250046 1
vt 0.250046 0
vt 0.3750578 1
vt 0.3750578 0
vt 0.5000697 1
vt 0.5000697 0
vt 0.6250817 1
vt 0.6250817 0
vt 0.7500933 1
vt 0.7500933 0
vt 0.8751054 1
vt 0.8751054 0
vt 1 1
vt 1 0
vt -0.6250483 1
vt -0.6250483 0
vt -0.7499878 0
vt -0.7499878 1
vt -0.5000364 1
vt -0.5000364 0
vt -0.3750246 1
vt -0.3750246 0
vt -0.2500128 1
vt -0.2500128 0
vt -0.1250009 1
vt -0.1250009 0
vt 1.089461E-05 1
vt 1.089461E-05 0
vt 0.1250227 1
vt 0.1250227 0
vt 0.2500346 1
vt 0.2500346 0
vt 0.3750465 1
vt 0.3750465 0
vt 0.5000582 1
vt 0.5000582 0
vt 0.62507 1
vt 0.62507 0
vt 0.750082 1
vt 0.750082 0
vt 0.8750939 1
vt 0.8750939 0
vt 1.000106 1
vt 1.000106 0
vt 1.125118 1
vt 1.125118 0
vt 1.250012 1
vt 1.250012 0
vt -0.8750606 1
vt -0.8750606 0
vt -1 0
vt -1 1
vt -0.7500486 1
vt -0.7500486 0
vt -0.6250368 1
vt -0.6250368 0
vt -0.500025 1
vt -0.500025 0
vt -0.3750131 1
vt -0.3750131 0
vt -0.2500013 1
vt -0.2500013 0
vt -0.1249895 1
vt -0.1249895 0
vt 2.236519E-05 1
vt 2.236519E-05 0
vt 0.1250342 1
vt 0.1250342 0
vt 0.250046 1
vt 0.250046 0
vt 0.3750578 1
vt 0.3750578 0
vt 0.5000697 1
vt 0.5000697 0
vt 0.6250817 1
vt 0.6250817 0
vt 0.7500933 1
vt 0.7500933 0
vt 0.8751054 1
vt 0.8751054 0
vt 1 1
vt 1 0
vn 0.8040761 0.5789148 -0.1353494
vn 0.8040761 0.5789148 -0.1353494
vn 0.9033589 0.4051823 -0.1406056
vn 0.9033589 0.4051823 -0.1406056
vn 0.4093607 0.9031951 -0.129083
vn 0.4093607 0.9031951 -0.129083
vn -0.1234825 0.9844689 -0.1247925
vn -0.1234825 0.9844689 -0.1247925
vn -0.5210851 0.844313 -0.1249235
vn -0.5210851 0.844313 -0.1249235
vn -0.7958196 0.5925674 -0.1246398
vn -0.7958196 0.5925674 -0.1246398
vn -0.9567652 0.2627225 -0.1248088
vn -0.9567652 0.2627225 -0.1248088
vn -0.9848001 -0.1206165 -0.1249813
vn -0.9848001 -0.1206165 -0.1249813
vn -0.8728384 -0.471942 -0.1241929
vn -0.8728384 -0.471942 -0.1241929
vn -0.6641249 -0.7373808 -0.1233194
vn -0.6641249 -0.7373808 -0.1233194
vn -0.3926494 -0.911568 -0.121943
vn -0.3926494 -0.911568 -0.121943
vn -0.06196544 -0.990691 -0.1212091
vn -0.06196544 -0.990691 -0.1212091
vn 0.2959843 -0.947615 -0.1200793
vn 0.2959843 -0.947615 -0.1200793
vn 0.6004704 -0.7908437 -0.1183283
vn 0.6004704 -0.7908437 -0.1183283
vn 0.8506387 -0.5121949 -0.1186179
vn 0.8506387 -0.5121949 -0.1186179
vn 0.9821809 -0.1466191 -0.1175736
vn 0.9821809 -0.1466191 -0.1175736
vn 0.9928148 0.03203221 -0.1152938
vn 0.9928148 0.03203221 -0.1152938
vn 0.8040758 0.578915 -0.1353494
vn 0.8040758 0.578915 -0.1353494
vn 0.9033589 0.4051823 -0.1406056
vn 0.9033589 0.4051823 -0.1406056
vn 0.4093606 0.9031952 -0.1290829
vn 0.4093606 0.9031952 -0.1290829
vn -0.1234826 0.9844689 -0.1247925
vn -0.1234826 0.9844689 -0.1247925
vn -0.5210857 0.8443126 -0.1249235
vn -0.5210857 0.8443126 -0.1249235
vn -0.7958202 0.5925666 -0.1246399
vn -0.7958202 0.5925666 -0.1246399
vn -0.9567654 0.2627218 -0.1248088
vn -0.9567654 0.2627218 -0.1248088
vn -0.9848001 -0.120617 -0.1249813
vn -0.9848001 -0.120617 -0.1249813
vn -0.8728383 -0.4719421 -0.1241929
vn -0.8728383 -0.4719421 -0.1241929
vn -0.6641251 -0.7373806 -0.1233194
vn -0.6641251 -0.7373806 -0.1233194
vn -0.3926493 -0.9115681 -0.121943
vn -0.3926493 -0.9115681 -0.121943
vn -0.06196534 -0.990691 -0.1212091
vn -0.06196534 -0.990691 -0.1212091
vn 0.2959841 -0.9476151 -0.1200793
vn 0.2959841 -0.9476151 -0.1200793
vn 0.600471 -0.7908432 -0.1183283
vn 0.600471 -0.7908432 -0.1183283
vn 0.8506392 -0.512194 -0.1186179
vn 0.8506392 -0.512194 -0.1186179
vn 0.9821809 -0.1466191 -0.1175736
vn 0.9821809 -0.1466191 -0.1175736
vn 0.9928148 0.03203221 -0.1152938
vn 0.9928148 0.03203221 -0.1152938
vn 0.8040763 0.5789144 -0.1353495
vn 0.8040763 0.5789144 -0.1353495
vn 0.9033594 0.4051813 -0.1406057
vn 0.9033594 0.4051813 -0.1406057
vn 0.4093608 0.903195 -0.129083
vn 0.4093608 0.903195 -0.129083
vn -0.1234829 0.9844688 -0.1247926
vn -0.1234829 0.9844688 -0.1247926
vn -0.5210855 0.8443128 -0.1249234
vn -0.5210855 0.8443128 -0.1249234
vn -0.7958198 0.592567 -0.1246398
vn -0.7958198 0.592567 -0.1246398
vn -0.9567654 0.2627218 -0.1248088
vn -0.9567654 0.2627218 -0.1248088
vn -0.9848001 -0.1206169 -0.1249812
vn -0.9848001 -0.1206169 -0.1249812
vn -0.8728383 -0.4719422 -0.1241928
vn -0.8728383 -0.4719422 -0.1241928
vn -0.6641252 -0.7373805 -0.1233195
vn -0.6641252 -0.7373805 -0.1233195
vn -0.3926495 -0.911568 -0.121943
vn -0.3926495 -0.911568 -0.121943
vn -0.06196548 -0.990691 -0.121209
vn -0.06196548 -0.990691 -0.121209
vn 0.2959844 -0.947615 -0.1200792
vn 0.2959844 -0.947615 -0.1200792
vn 0.600471 -0.7908432 -0.1183282
vn 0.600471 -0.7908432 -0.1183282
vn 0.8506386 -0.5121952 -0.1186178
vn 0.8506386 -0.5121952 -0.1186178
vn 0.9821809 -0.1466191 -0.1175736
vn 0.9821809 -0.1466191 -0.1175736
vn 0.9928148 0.03203367 -0.1152938
vn 0.9928148 0.03203367 -0.1152938
vn 0.8040764 0.5789142 -0.1353495
vn 0.8040764 0.5789142 -0.1353495
vn 0.9033594 0.4051811 -0.1406057
vn 0.9033594 0.4051811 -0.1406057
vn 0.4093611 0.903195 -0.1290829
vn 0.4093611 0.903195 -0.1290829
vn -0.1234825 0.9844689 -0.1247926
vn -0.1234825 0.9844689 -0.1247926
vn -0.5210853 0.8443129 -0.1249234
vn -0.5210853 0.8443129 -0.1249234
vn -0.7958199 0.592567 -0.1246398
vn -0.7958199 0.592567 -0.1246398
vn -0.9567654 0.2627219 -0.1248088
vn -0.9567654 0.2627219 -0.1248088
vn -0.9848001 -0.1206168 -0.1249812
vn -0.9848001 -0.1206168 -0.1249812
vn -0.8728383 -0.4719422 -0.1241928
vn -0.8728383 -0.4719422 -0.1241928
vn -0.664125 -0.7373807 -0.1233193
vn -0.664125 -0.7373807 -0.1233193
vn -0.3926493 -0.9115681 -0.121943
vn -0.3926493 -0.9115681 -0.121943
vn -0.06196506 -0.990691 -0.1212091
vn -0.06196506 -0.990691 -0.1212091
vn 0.2959843 -0.947615 -0.1200793
vn 0.2959843 -0.947615 -0.1200793
vn 0.6004701 -0.7908438 -0.1183283
vn 0.6004701 -0.7908438 -0.1183283
vn 0.8506391 -0.5121942 -0.118618
vn 0.8506391 -0.5121942 -0.118618
vn 0.982181 -0.1466184 -0.1175736
vn 0.982181 -0.1466184 -0.1175736
vn 0.9928148 0.03203198 -0.1152938
vn 0.9928148 0.03203198 -0.1152938
g mesh_beam_0
f 3/3/3 2/2/2 1/1/1
f 1/1/1 4/4/4 3/3/3
f 5/5/5 1/1/1 2/2/2
f 5/5/5 2/2/2 6/6/6
f 7/7/7 5/5/5 6/6/6
f 6/6/6 8/8/8 7/7/7
f 9/9/9 7/7/7 8/8/8
f 8/8/8 10/10/10 9/9/9
f 11/11/11 9/9/9 10/10/10
f 10/10/10 12/12/12 11/11/11
f 13/13/13 11/11/11 12/12/12
f 12/12/12 14/14/14 13/13/13
f 15/15/15 13/13/13 14/14/14
f 14/14/14 16/16/16 15/15/15
f 17/17/17 15/15/15 16/16/16
f 16/16/16 18/18/18 17/17/17
f 19/19/19 17/17/17 18/18/18
f 18/18/18 20/20/20 19/19/19
f 21/21/21 19/19/19 20/20/20
f 20/20/20 22/22/22 21/21/21
f 23/23/23 21/21/21 22/22/22
f 22/22/22 24/24/24 23/23/23
f 25/25/25 23/23/23 24/24/24
f 24/24/24 26/26/26 25/25/25
f 27/27/27 25/25/25 26/26/26
f 27/27/27 26/26/26 28/28/28
f 29/29/29 27/27/27 28/28/28
f 29/29/29 28/28/28 30/30/30
f 31/31/31 29/29/29 30/30/30
f 30/30/30 32/32/32 31/31/31
f 33/33/33 31/31/31 32/32/32
f 32/32/32 34/34/34 33/33/33
f 37/37/37 36/36/36 35/35/35
f 35/35/35 38/38/38 37/37/37
f 39/39/39 35/35/35 36/36/36
f 39/39/39 36/36/36 40/40/40
f 41/41/41 39/39/39 40/40/40
f 40/40/40 42/42/42 41/41/41
f 43/43/43 41/41/41 42/42/42
f 42/42/42 44/44/44 43/43/43
f 45/45/45 43/43/43 44/44/44
f 44/44/44 46/46/46 45/45/45
f 47/47/47 45/45/45 46/46/46
f 46/46/46 48/48/48 47/47/47
f 49/49/49 47/47/47 48/48/48
f 48/48/48 50/50/50 49/49/49
f 51/51/51 49/49/49 50/50/50
f 50/50/50 52/52/52 51/51/51
f 53/53/53 51/51/51 52/52/52
f 52/52/52 54/54/54 53/53/53
f 55/55/55 53/53/53 54/54/54
f 54/54/54 56/56/56 55/55/55
f 57/57/57 55/55/55 56/56/56
f 56/56/56 58/58/58 57/57/57
f 59/59/59 57/57/57 58/58/58
f 58/58/58 60/60/60 59/59/59
f 61/61/61 59/59/59 60/60/60
f 61/61/61 60/60/60 62/62/62
f 63/63/63 61/61/61 62/62/62
f 63/63/63 62/62/62 64/64/64
f 65/65/65 63/63/63 64/64/64
f 64/64/64 66/66/66 65/65/65
f 67/67/67 65/65/65 66/66/66
f 66/66/66 68/68/68 67/67/67
f 71/71/71 70/70/70 69/69/69
f 69/69/69 72/72/72 71/71/71
f 73/73/73 69/69/69 70/70/70
f 73/73/73 70/70/70 74/74/74
f 75/75/75 73/73/73 74/74/74
f 74/74/74 76/76/76 75/75/75
f 77/77/77 75/75/75 76/76/76
f 76/76/76 78/78/78 77/77/77
f 79/79/79 77/77/77 78/78/78
f 78/78/78 80/80/80 79/79/79
f 81/81/81 79/79/79 80/80/80
f 80/80/80 82/82/82 81/81/81
f 83/83/83 81/81/81 82/82/82
f 82/82/82 84/84/84 83/83/83
f 85/85/85 83/83/83 84/84/84
f 84/84/84 86/86/86 85/85/85
f 87/87/87 85/85/85 86/86/86
f 86/86/86 88/88/88 87/87/87
f 89/89/89 87/87/87 88/88/88
f 88/88/88 90/90/90 89/89/89
f 91/91/91 89/89/89 90/90/90
f 90/90/90 92/92/92 91/91/91
f 93/93/93 91/91/91 92/92/92
f 92/92/92 94/94/94 93/93/93
f 95/95/95 93/93/93 94/94/94
f 95/95/95 94/94/94 96/96/96
f 97/97/97 95/95/95 96/96/96
f 97/97/97 96/96/96 98/98/98
f 99/99/99 97/97/97 98/98/98
f 98/98/98 100/100/100 99/99/99
f 101/101/101 99/99/99 100/100/100
f 100/100/100 102/102/102 101/101/101
f 105/105/105 104/104/104 103/103/103
f 103/103/103 106/106/106 105/105/105
f 107/107/107 103/103/103 104/104/104
f 107/107/107 104/104/104 108/108/108
f 109/109/109 107/107/107 108/108/108
f 108/108/108 110/110/110 109/109/109
f 111/111/111 109/109/109 110/110/110
f 110/110/110 112/112/112 111/111/111
f 113/113/113 111/111/111 112/112/112
f 112/112/112 114/114/114 113/113/113
f 115/115/115 113/113/113 114/114/114
f 114/114/114 116/116/116 115/115/115
f 117/117/117 115/115/115 116/116/116
f 116/116/116 118/118/118 117/117/117
f 119/119/119 117/117/117 118/118/118
f 118/118/118 120/120/120 119/119/119
f 121/121/121 119/119/119 120/120/120
f 120/120/120 122/122/122 121/121/121
f 123/123/123 121/121/121 122/122/122
f 122/122/122 124/124/124 123/123/123
f 125/125/125 123/123/123 124/124/124
f 124/124/124 126/126/126 125/125/125
f 127/127/127 125/125/125 126/126/126
f 126/126/126 128/128/128 127/127/127
f 129/129/129 127/127/127 128/128/128
f 129/129/129 128/128/128 130/130/130
f 131/131/131 129/129/129 130/130/130
f 131/131/131 130/130/130 132/132/132
f 133/133/133 131/131/131 132/132/132
f 132/132/132 134/134/134 133/133/133
f 135/135/135 133/133/133 134/134/134
f 134/134/134 136/136/136 135/135/135
