g mesh_whirl_cylinder
v 0.1576523 -0.06530171 0.03215056
v 0.1673627 -0.03329038 0.03215059
v 0.1542729 -0.06390187 0.0003740606
v 0.1637752 -0.03257679 0.0003740629
v 0.138842 -0.09277115 0.0003740629
v 0.1418833 -0.09480338 0.03215057
v 0.1180755 -0.1180753 0.0003740725
v 0.1206619 -0.1206618 0.03215062
v 0.09480345 -0.141883 0.03215064
v 0.09277127 -0.1388418 0.0003740773
v 0.0653018 -0.1576523 0.03215063
v 0.06390201 -0.1542728 0.0003740725
v 0.03329062 -0.1673629 0.03215062
v 0.03257701 -0.1637752 0.0003740677
v 9.916495E-08 -0.1706415 0.03215063
v 9.670106E-08 -0.1669837 0.0003740725
v 0.1706417 1.192093E-08 0.03215059
v 0.1669839 1.81202E-08 0.0003740629
v 0.1637753 0.03257697 0.0003740629
v 0.1673629 0.03329059 0.03215059
v 0.154273 0.063902 0.0003740629
v 0.1576524 0.06530174 0.03215057
v 0.138842 0.09277134 0.0003740534
v 0.1418834 0.09480356 0.03215054
v 0.1180755 0.1180755 0.0003740725
v 0.1206619 0.120662 0.03215063
v 0.09480343 0.1418832 0.03215063
v 0.09277127 0.138842 0.0003740725
v 0.06530176 0.1576526 0.03215063
v 0.06390198 0.154273 0.0003740725
v 0.03329053 0.1673632 0.03215063
v 0.03257693 0.1637754 0.0003740725
v -5.088236E-09 0.1706416 0.03215063
v -5.62895E-09 0.1669838 0.0003740725
v -0.03257694 0.1637754 0.0003740725
v -0.03329053 0.1673632 0.03215063
v -0.06390195 0.154273 0.0003740725
v -0.06530174 0.1576525 0.03215063
v -0.0927713 0.138842 0.0003740677
v -0.09480343 0.1418832 0.03215062
v -0.1180754 0.1180755 0.0003740677
v -0.1206619 0.1206619 0.03215062
v -0.1418833 0.09480348 0.03215054
v -0.138842 0.09277128 0.0003740534
v -0.1576523 0.06530167 0.03215057
v -0.1542729 0.06390194 0.0003740629
v -0.1673628 0.03329052 0.03215059
v -0.1637752 0.03257692 0.0003740653
v -0.1706416 -5.00679E-08 0.03215059
v -0.1669838 -3.402935E-08 0.0003740653
v -0.1637752 -0.03257695 0.0003740629
v -0.1673628 -0.03329054 0.03215059
v -0.1542728 -0.06390198 0.0003740582
v -0.1576523 -0.06530183 0.03215056
v -0.1388419 -0.09277134 0.0003740582
v -0.1418833 -0.09480353 0.03215057
v -0.1180753 -0.1180754 0.0003740725
v -0.1206618 -0.1206619 0.03215062
v -0.09480327 -0.141883 0.03215062
v -0.09277112 -0.1388418 0.0003740725
v -0.06530162 -0.1576524 0.03215062
v -0.06390185 -0.1542729 0.0003740677
v -0.03329041 -0.167363 0.03215063
v -0.03257681 -0.1637753 0.0003740725
v 9.916495E-08 -0.1706415 0.03215063
v 9.670106E-08 -0.1669837 0.0003740725
v -0.04311188 -0.2167384 1.272472E-07
v 1.01612E-07 -0.2209849 1.272472E-07
v -0.08456714 -0.2041631 1.272472E-07
v -0.1227725 -0.1837422 1.272472E-07
v -0.1562597 -0.15626 1.272472E-07
v -0.1837422 -0.1227727 1.272472E-07
v -0.2041631 -0.08456723 1.272472E-07
v -0.2167385 -0.04311206 1.272472E-07
v -0.220985 -6.25996E-08 1.272472E-07
v -0.2167385 0.04311194 1.272472E-07
v -0.2041631 0.08456718 1.272472E-07
v -0.1837422 0.1227727 1.272472E-07
v -0.15626 0.15626 1.272472E-07
v -0.1227727 0.1837424 1.272472E-07
v -0.08456722 0.2041632 1.272472E-07
v -0.04311204 0.2167386 1.272472E-07
v -3.407714E-08 0.2209851 1.272472E-07
v 0.043112 0.2167386 1.272472E-07
v 0.08456726 0.2041633 1.272472E-07
v 0.1227727 0.1837424 1.272472E-07
v 0.1562598 0.15626 1.272472E-07
v 0.1837424 0.1227727 1.272472E-07
v 0.2041633 0.08456729 1.272472E-07
v 0.2167386 0.04311203 1.272472E-07
v 0.2209851 -8.665711E-10 1.272472E-07
v 0.2167386 -0.04311187 1.272472E-07
v 0.2041632 -0.08456711 1.272472E-07
v 0.1837423 -0.1227725 1.272472E-07
v 0.1562598 -0.1562598 1.272472E-07
v 0.1227727 -0.1837422 1.272472E-07
v 0.08456729 -0.2041631 1.272472E-07
v 0.04311211 -0.2167384 1.272472E-07
v 1.01612E-07 -0.2209849 1.272472E-07
vt 1.119165 0.9477271
vt 1.057255 0.9477276
vt 1.119165 0.4047001
vt 1.057255 0.4047
vt 1.181075 0.4047001
vt 1.181075 0.9477273
vt 1.242985 0.4047002
vt 1.242985 0.9477282
vt 1.304895 0.9477286
vt 1.304895 0.4047004
vt 1.366805 0.9477284
vt 1.366805 0.4047003
vt 1.428716 0.9477281
vt 1.428715 0.4047002
vt 1.495812 0.9477286
vt 1.495812 0.4047004
vt 0.9953446 0.9477276
vt 0.9953446 0.4047
vt 0.9334344 0.4047001
vt 0.9334344 0.9477277
vt 0.8715242 0.4047002
vt 0.8715242 0.9477273
vt 0.8096141 0.4046999
vt 0.8096139 0.9477267
vt 0.7477039 0.4047003
vt 0.7477038 0.9477284
vt 0.6857939 0.9477284
vt 0.6857938 0.4047003
vt 0.6238834 0.9477284
vt 0.6238835 0.4047003
vt 0.5619732 0.9477284
vt 0.5619733 0.4047003
vt 0.5000632 0.9477284
vt 0.5000632 0.4047003
vt 0.438153 0.4047003
vt 0.4381531 0.9477284
vt 0.3762428 0.4047003
vt 0.3762428 0.9477284
vt 0.3143324 0.4047002
vt 0.3143324 0.9477281
vt 0.2524225 0.4047002
vt 0.2524225 0.9477281
vt 0.1905125 0.9477267
vt 0.1905124 0.4046999
vt 0.128602 0.9477273
vt 0.1286021 0.4047002
vt 0.06669199 0.9477276
vt 0.06669199 0.4047001
vt 0.004781842 0.9477277
vt 0.004781842 0.4047001
vt -0.05712831 0.4047
vt -0.05712831 0.9477276
vt -0.1190385 0.4047
vt -0.1190386 0.9477271
vt -0.1809486 0.4047
vt -0.1809486 0.9477273
vt -0.2428588 0.4047002
vt -0.2428588 0.9477282
vt -0.3047686 0.9477282
vt -0.3047687 0.4047002
vt -0.3666792 0.9477281
vt -0.366679 0.4047002
vt -0.4285891 0.9477284
vt -0.4285891 0.4047003
vt -0.4958124 0.9477286
vt -0.4958124 0.4047004
vt -0.4285891 0.9501097
vt -0.4958124 0.9501097
vt -0.366679 0.9501097
vt -0.3047689 0.9501097
vt -0.2428586 0.9501097
vt -0.1809486 0.9501098
vt -0.1190385 0.9501098
vt -0.05712831 0.9501097
vt 0.004781842 0.9501098
vt 0.06669199 0.9501098
vt 0.1286023 0.9501101
vt 0.1905124 0.95011
vt 0.2524225 0.9501097
vt 0.3143324 0.9501097
vt 0.3762427 0.9501097
vt 0.438153 0.9501097
vt 0.5000632 0.9501097
vt 0.5619733 0.9501097
vt 0.6238835 0.9501097
vt 0.6857936 0.9501097
vt 0.7477039 0.9501097
vt 0.8096141 0.95011
vt 0.8715242 0.9501101
vt 0.9334344 0.9501097
vt 0.9953446 0.9501097
vt 1.057255 0.9501097
vt 1.119165 0.95011
vt 1.181075 0.95011
vt 1.242985 0.9501097
vt 1.304895 0.9501097
vt 1.366805 0.9501097
vt 1.428715 0.9501097
vt 1.495812 0.9501097
vn 0.9178194 -0.3801716 -0.1143557
vn 0.9743509 -0.1938125 -0.1143547
vn 0.6901214 -0.2858564 0.6648448
vn 0.732628 -0.1457303 0.664845
vn 0.6210929 -0.4150002 0.6648447
vn 0.8260155 -0.5519249 -0.1143558
vn 0.5281945 -0.5281965 0.6648452
vn 0.7024668 -0.7024695 -0.1143548
vn 0.5519264 -0.8260147 -0.1143546
vn 0.4150012 -0.621092 0.6648449
vn 0.3801768 -0.917817 -0.1143575
vn 0.2858605 -0.6901203 0.6648441
vn 0.1938089 -0.9743512 -0.1143583
vn 0.1457279 -0.7326295 0.6648438
vn 6.887265E-07 -0.9934397 -0.114357
vn 5.314462E-07 -0.7469822 0.664844
vn 0.99344 -3.125473E-06 -0.1143551
vn 0.7469812 -2.342236E-06 0.6648452
vn 0.7326287 0.1457291 0.6648445
vn 0.9743511 0.1938107 -0.1143565
vn 0.6901214 0.2858577 0.6648442
vn 0.9178186 0.3801729 -0.1143569
vn 0.621093 0.4150005 0.6648443
vn 0.8260152 0.5519251 -0.1143567
vn 0.528194 0.5281972 0.6648449
vn 0.7024658 0.7024704 -0.1143553
vn 0.5519259 0.8260151 -0.1143545
vn 0.4150008 0.6210923 0.6648448
vn 0.3801773 0.9178167 -0.1143579
vn 0.2858611 0.6901203 0.6648439
vn 0.1938072 0.9743514 -0.1143592
vn 0.1457267 0.73263 0.6648436
vn -5.951493E-07 0.9934397 -0.1143571
vn -4.620978E-07 0.7469825 0.6648438
vn -0.1457273 0.7326297 0.6648438
vn -0.1938081 0.9743513 -0.1143586
vn -0.2858607 0.6901203 0.6648442
vn -0.3801769 0.9178169 -0.1143574
vn -0.415001 0.6210916 0.6648453
vn -0.5519265 0.8260148 -0.1143535
vn -0.5281947 0.5281959 0.6648455
vn -0.7024674 0.7024691 -0.1143541
vn -0.8260157 0.5519246 -0.114356
vn -0.6210931 0.4150001 0.6648447
vn -0.917819 0.3801721 -0.1143568
vn -0.6901215 0.285857 0.6648443
vn -0.9743512 0.1938099 -0.1143565
vn -0.7326288 0.1457285 0.6648445
vn -0.9934399 0 -0.1143558
vn -0.7469816 0 0.6648447
vn -0.7326288 -0.1457291 0.6648444
vn -0.9743511 -0.1938107 -0.1143566
vn -0.6901214 -0.2858578 0.6648442
vn -0.9178185 -0.3801731 -0.1143574
vn -0.6210926 -0.4150011 0.6648444
vn -0.8260148 -0.5519259 -0.1143566
vn -0.5281932 -0.5281976 0.6648452
vn -0.7024652 -0.7024712 -0.1143546
vn -0.5519257 -0.8260152 -0.1143539
vn -0.4150006 -0.6210923 0.6648451
vn -0.3801768 -0.9178169 -0.1143577
vn -0.2858606 -0.6901203 0.6648441
vn -0.1938078 -0.9743513 -0.1143589
vn -0.1457271 -0.7326299 0.6648437
vn 6.887265E-07 -0.9934397 -0.114357
vn 5.314462E-07 -0.7469822 0.664844
vn -0.001350937 -0.006791544 0.999976
vn 0 -0.006924588 0.999976
vn -0.002649911 -0.006397491 0.999976
vn -0.00384706 -0.005757603 0.999976
vn -0.004896421 -0.004896334 0.999976
vn -0.005757494 -0.003846925 0.999976
vn -0.006397297 -0.002649865 0.999976
vn -0.006791339 -0.001350959 0.999976
vn -0.006924408 0 0.999976
vn -0.00679138 0.001350931 0.999976
vn -0.00639731 0.00264991 0.999976
vn -0.005757459 0.003846937 0.999976
vn -0.004896378 0.00489625 0.999976
vn -0.003847051 0.00575754 0.999976
vn -0.002649931 0.006397492 0.999976
vn -0.001350961 0.00679157 0.999976
vn 0 0.006924612 0.999976
vn 0.001350959 0.006791571 0.999976
vn 0.002649956 0.006397524 0.999976
vn 0.003847082 0.005757608 0.999976
vn 0.004896462 0.004896293 0.999976
vn 0.00575748 0.003846943 0.999976
vn 0.006397284 0.002649896 0.999976
vn 0.00679139 0.001350914 0.999976
vn 0.006924402 0 0.999976
vn 0.00679137 -0.001350933 0.999976
vn 0.006397366 -0.00264985 0.999976
vn 0.005757532 -0.003846963 0.999976
vn 0.004896451 -0.00489636 0.999976
vn 0.003847082 -0.005757638 0.999976
vn 0.002649889 -0.006397547 0.999976
vn 0.001350937 -0.006791531 0.999976
vn 0 -0.006924588 0.999976
g mesh_whirl_cylinder_0
f 3/3/3 2/2/2 1/1/1
f 3/3/3 4/4/4 2/2/2
f 5/5/5 3/3/3 1/1/1
f 5/5/5 1/1/1 6/6/6
f 7/7/7 5/5/5 6/6/6
f 7/7/7 6/6/6 8/8/8
f 7/7/7 8/8/8 9/9/9
f 9/9/9 10/10/10 7/7/7
f 10/10/10 9/9/9 11/11/11
f 11/11/11 12/12/12 10/10/10
f 12/12/12 11/11/11 13/13/13
f 13/13/13 14/14/14 12/12/12
f 14/14/14 13/13/13 15/15/15
f 15/15/15 16/16/16 14/14/14
f 4/4/4 17/17/17 2/2/2
f 4/4/4 18/18/18 17/17/17
f 17/17/17 18/18/18 19/19/19
f 19/19/19 20/20/20 17/17/17
f 20/20/20 19/19/19 21/21/21
f 21/21/21 22/22/22 20/20/20
f 22/22/22 21/21/21 23/23/23
f 23/23/23 24/24/24 22/22/22
f 24/24/24 23/23/23 25/25/25
f 25/25/25 26/26/26 24/24/24
f 25/25/25 27/27/27 26/26/26
f 25/25/25 28/28/28 27/27/27
f 28/28/28 29/29/29 27/27/27
f 28/28/28 30/30/30 29/29/29
f 30/30/30 31/31/31 29/29/29
f 30/30/30 32/32/32 31/31/31
f 32/32/32 33/33/33 31/31/31
f 32/32/32 34/34/34 33/33/33
f 33/33/33 34/34/34 35/35/35
f 35/35/35 36/36/36 33/33/33
f 36/36/36 35/35/35 37/37/37
f 37/37/37 38/38/38 36/36/36
f 38/38/38 37/37/37 39/39/39
f 39/39/39 40/40/40 38/38/38
f 40/40/40 39/39/39 41/41/41
f 41/41/41 42/42/42 40/40/40
f 41/41/41 43/43/43 42/42/42
f 41/41/41 44/44/44 43/43/43
f 44/44/44 45/45/45 43/43/43
f 44/44/44 46/46/46 45/45/45
f 46/46/46 47/47/47 45/45/45
f 46/46/46 48/48/48 47/47/47
f 49/49/49 47/47/47 48/48/48
f 48/48/48 50/50/50 49/49/49
f 49/49/49 50/50/50 51/51/51
f 51/51/51 52/52/52 49/49/49
f 52/52/52 51/51/51 53/53/53
f 53/53/53 54/54/54 52/52/52
f 54/54/54 53/53/53 55/55/55
f 55/55/55 56/56/56 54/54/54
f 56/56/56 55/55/55 57/57/57
f 57/57/57 58/58/58 56/56/56
f 57/57/57 59/59/59 58/58/58
f 57/57/57 60/60/60 59/59/59
f 60/60/60 61/61/61 59/59/59
f 60/60/60 62/62/62 61/61/61
f 62/62/62 63/63/63 61/61/61
f 62/62/62 64/64/64 63/63/63
f 64/64/64 65/65/65 63/63/63
f 64/64/64 66/66/66 65/65/65
f 67/67/67 66/66/66 64/64/64
f 67/67/67 64/64/64 62/62/62
f 67/67/67 68/68/68 66/66/66
f 62/62/62 69/69/69 67/67/67
f 69/69/69 62/62/62 60/60/60
f 60/60/60 70/70/70 69/69/69
f 60/60/60 71/71/71 70/70/70
f 57/57/57 71/71/71 60/60/60
f 71/71/71 57/57/57 55/55/55
f 55/55/55 72/72/72 71/71/71
f 72/72/72 55/55/55 73/73/73
f 55/55/55 53/53/53 73/73/73
f 73/73/73 53/53/53 51/51/51
f 51/51/51 74/74/74 73/73/73
f 74/74/74 51/51/51 50/50/50
f 50/50/50 75/75/75 74/74/74
f 76/76/76 75/75/75 50/50/50
f 50/50/50 48/48/48 76/76/76
f 77/77/77 76/76/76 48/48/48
f 48/48/48 46/46/46 77/77/77
f 77/77/77 46/46/46 44/44/44
f 44/44/44 78/78/78 77/77/77
f 78/78/78 44/44/44 41/41/41
f 41/41/41 79/79/79 78/78/78
f 80/80/80 79/79/79 41/41/41
f 80/80/80 41/41/41 39/39/39
f 39/39/39 81/81/81 80/80/80
f 37/37/37 81/81/81 39/39/39
f 81/81/81 37/37/37 35/35/35
f 35/35/35 82/82/82 81/81/81
f 82/82/82 35/35/35 34/34/34
f 34/34/34 83/83/83 82/82/82
f 83/83/83 34/34/34 84/84/84
f 34/34/34 32/32/32 84/84/84
f 85/85/85 84/84/84 32/32/32
f 32/32/32 30/30/30 85/85/85
f 85/85/85 30/30/30 28/28/28
f 28/28/28 86/86/86 85/85/85
f 87/87/87 86/86/86 28/28/28
f 28/28/28 25/25/25 87/87/87
f 87/87/87 25/25/25 23/23/23
f 23/23/23 88/88/88 87/87/87
f 89/89/89 88/88/88 23/23/23
f 89/89/89 23/23/23 21/21/21
f 89/89/89 21/21/21 19/19/19
f 19/19/19 90/90/90 89/89/89
f 90/90/90 19/19/19 18/18/18
f 18/18/18 91/91/91 90/90/90
f 18/18/18 92/92/92 91/91/91
f 4/4/4 92/92/92 18/18/18
f 4/4/4 93/93/93 92/92/92
f 3/3/3 93/93/93 4/4/4
f 93/93/93 3/3/3 5/5/5
f 5/5/5 94/94/94 93/93/93
f 94/94/94 5/5/5 7/7/7
f 7/7/7 95/95/95 94/94/94
f 95/95/95 7/7/7 10/10/10
f 10/10/10 96/96/96 95/95/95
f 97/97/97 96/96/96 10/10/10
f 10/10/10 12/12/12 97/97/97
f 98/98/98 97/97/97 12/12/12
f 12/12/12 14/14/14 98/98/98
f 98/98/98 14/14/14 16/16/16
f 16/16/16 99/99/99 98/98/98
