g mesh_electric_power_curved
v -2.314079 0 -0.6520414
v -3.849166 0 0.629953
v -4.070948 0 0.3278688
v -2.388006 0 -0.7527357
v -2.228175 0 -0.5613493
v -3.591451 0 0.9020289
v -2.131633 0 -0.4820748
v -3.301827 0 1.139851
v -2.984812 0 1.33971
v -2.025962 0 -0.4154559
v -1.912809 0 -0.36253
v -2.645354 0 1.498485
v -2.288747 0 1.613699
v -1.793939 0 -0.3241258
v -1.671211 0 -0.3008403
v -1.92056 0 1.683555
v -1.546535 0 1.706962
v -1.546535 0 -0.2930381
v -1.421861 0 -0.3008401
v -1.172512 0 1.683555
v -0.8043235 0 1.613699
v -1.299132 0 -0.3241258
v -1.180263 0 -0.3625305
v -0.4477183 0 1.498485
v -0.108259 0 1.33971
v -1.06711 0 -0.4154556
v 0.2087563 0 1.139851
v -0.961439 0 -0.4820753
v -0.8648972 0 -0.561349
v 0.4983803 0 0.9020291
v 0.7560946 0 0.6299527
v -0.7789927 0 -0.6520414
v -0.7050645 0 -0.752736
v 0.9778774 0 0.3278687
vt 0.9375 0
vt 0.9375 1
vt 1 1
vt 1 0
vt 0.875 0
vt 0.875 1
vt 0.8125 0
vt 0.8125 1
vt 0.75 1
vt 0.75 0
vt 0.6875 0
vt 0.6875 1
vt 0.625 1
vt 0.625 0
vt 0.5625 0
vt 0.5625 1
vt 0.5 1
vt 0.5 0
vt 0.4375 0
vt 0.4375 1
vt 0.375 1
vt 0.375 0
vt 0.3125 0
vt 0.3125 1
vt 0.25 1
vt 0.25 0
vt 0.1875 1
vt 0.1875 0
vt 0.125 0
vt 0.125 1
vt 0.0625 1
vt 0.0625 0
vt 0 0
vt 0 1
vn 0 1 0
vn 0 1 0
vn 0 1 0
vn 0 1 0
vn 0 1 0
vn 0 1 0
vn 0 1 0
vn 0 1 0
vn 0 1 0
vn 0 1 0
vn 0 1 0
vn 0 1 0
vn 0 1 0
vn 0 1 0
vn 0 1 0
vn 0 1 0
vn 0 1 0
vn 0 1 0
vn 0 1 0
vn 0 1 0
vn 0 1 0
vn 0 1 0
vn 0 1 0
vn 0 1 0
vn 0 1 0
vn 0 1 0
vn 0 1 0
vn 0 1 0
vn 0 1 0
vn 0 1 0
vn 0 1 0
vn 0 1 0
vn 0 1 0
vn 0 1 0
g mesh_electric_power_curved_0
f 3/3/3 2/2/2 1/1/1
f 1/1/1 4/4/4 3/3/3
f 5/5/5 1/1/1 2/2/2
f 2/2/2 6/6/6 5/5/5
f 7/7/7 5/5/5 6/6/6
f 6/6/6 8/8/8 7/7/7
f 8/8/8 9/9/9 7/7/7
f 9/9/9 10/10/10 7/7/7
f 11/11/11 10/10/10 9/9/9
f 9/9/9 12/12/12 11/11/11
f 11/11/11 12/12/12 13/13/13
f 13/13/13 14/14/14 11/11/11
f 15/15/15 14/14/14 13/13/13
f 13/13/13 16/16/16 15/15/15
f 15/15/15 16/16/16 17/17/17
f 17/17/17 18/18/18 15/15/15
f 19/19/19 18/18/18 17/17/17
f 17/17/17 20/20/20 19/19/19
f 19/19/19 20/20/20 21/21/21
f 21/21/21 22/22/22 19/19/19
f 23/23/23 22/22/22 21/21/21
f 21/21/21 24/24/24 23/23/23
f 23/23/23 24/24/24 25/25/25
f 26/26/26 23/23/23 25/25/25
f 26/26/26 25/25/25 27/27/27
f 28/28/28 26/26/26 27/27/27
f 29/29/29 28/28/28 27/27/27
f 27/27/27 30/30/30 29/29/29
f 30/30/30 31/31/31 29/29/29
f 32/32/32 29/29/29 31/31/31
f 33/33/33 32/32/32 31/31/31
f 31/31/31 34/34/34 33/33/33
