g mesh_ring_outward
v 0.2730899 0.02089142 0.05432081
v 0.1795549 0.001022315 0.03571553
v 0.1691372 0.001022091 0.0700588
v 0.2572451 0.02089144 0.1065543
v 0.2315145 0.02089143 0.1546929
v 0.1522192 0.001022091 0.1017099
v 0.1968869 0.02089143 0.1968869
v 0.1294518 0.001022911 0.1294513
v 0.1017097 0.001022911 0.1522195
v 0.1546931 0.0208914 0.2315143
v 0.1065545 0.0208914 0.2572453
v 0.07005892 0.001022911 0.169137
v 0.05432107 0.0208914 0.2730897
v 0.03571584 0.001022911 0.1795544
v 1.008311E-07 0.001022911 0.1830723
v 1.166599E-07 0.0208914 0.2784398
v -0.05432085 0.0208914 0.2730897
v -0.03571562 0.001022911 0.1795545
v -0.07005876 0.001022911 0.169137
v -0.1065543 0.0208914 0.2572455
v -0.1017096 0.001022911 0.1522197
v -0.1546929 0.0208914 0.2315145
v -0.1968868 0.02089145 0.196887
v -0.1294517 0.001022911 0.1294514
v -0.1522191 0.001022091 0.10171
v -0.2315144 0.02089144 0.1546931
v -0.1691371 0.001022091 0.07005889
v -0.2572451 0.02089145 0.1065546
v -0.27309 0.02089143 0.05432106
v -0.1795549 0.001022315 0.03571577
v -0.1830729 0.001022403 4.102488E-08
v -0.2784402 0.02089143 8.583068E-08
v -0.27309 0.02089144 -0.05432087
v -0.179555 0.00102232 -0.03571554
v -0.1691371 0.001022091 -0.07005894
v -0.2572452 0.02089145 -0.1065544
v -0.2315145 0.02089145 -0.154693
v -0.1522192 0.001022091 -0.10171
v -0.196887 0.02089138 -0.1968869
v -0.1294519 0.001022911 -0.1294514
v -0.1017096 0.001022911 -0.1522197
v -0.1546932 0.02089138 -0.2315145
v -0.1065545 0.02089138 -0.2572454
v -0.07005881 0.001022911 -0.1691371
v -0.05432104 0.02089138 -0.27309
v -0.03571574 0.001022911 -0.1795546
v -1.101686E-08 0.001022911 -0.1830724
v -5.975523E-08 0.02089138 -0.2784404
v 0.05432095 0.02089138 -0.27309
v 0.03571573 0.001022911 -0.1795546
v 0.07005892 0.001022911 -0.1691372
v 0.1065544 0.02089138 -0.2572455
v 0.1017097 0.001022911 -0.1522198
v 0.1546931 0.02089138 -0.2315146
v 0.196887 0.02089136 -0.196887
v 0.1294519 0.001022911 -0.1294514
v 0.1522193 0.001022091 -0.1017101
v 0.2315146 0.02089143 -0.1546931
v 0.1691372 0.001022091 -0.07005896
v 0.2572453 0.02089143 -0.1065545
v 0.2730902 0.02089142 -0.05432101
v 0.1795551 0.001022315 -0.03571572
v 0.183073 0.001022403 -1.899124E-08
v 0.2784404 0.02089142 0
v 0.2730899 0.02089142 0.05432081
v 0.1795549 0.001022315 0.03571553
v 0.1674132 0.0002434444 0.03330025
v 0.1576992 0.0002435779 0.06532108
v 0.1691372 0.001022091 0.0700588
v 0.1795549 0.001022315 0.03571553
v 0.1419261 0.0002435779 0.09483168
v 0.1522192 0.001022091 0.1017099
v 0.1294518 0.001022911 0.1294513
v 0.120698 0.000242939 0.1206979
v 0.09483202 0.000242939 0.1419257
v 0.1017097 0.001022911 0.1522195
v 0.06532124 0.000242939 0.1576994
v 0.07005892 0.001022911 0.169137
v 0.03571584 0.001022911 0.1795544
v 0.03330052 0.000242939 0.1674127
v 1.008311E-07 0.001022911 0.1830723
v 9.585006E-08 0.000242939 0.1706926
v -0.03330034 0.000242939 0.1674128
v -0.03571562 0.001022911 0.1795545
v -0.06532107 0.000242939 0.1576995
v -0.07005876 0.001022911 0.169137
v -0.1017096 0.001022911 0.1522197
v -0.09483186 0.000242939 0.1419259
v -0.1294517 0.001022911 0.1294514
v -0.1206978 0.000242939 0.1206981
v -0.141926 0.0002435684 0.09483191
v -0.1522191 0.001022091 0.10171
v -0.1691371 0.001022091 0.07005889
v -0.1576992 0.0002435684 0.06532128
v -0.1674131 0.0002434444 0.03330057
v -0.1795549 0.001022315 0.03571577
v -0.1830729 0.001022403 4.102488E-08
v -0.1706925 0.0002433946 1.239777E-07
v -0.179555 0.00102232 -0.03571554
v -0.1674131 0.0002434444 -0.03330064
v -0.1691371 0.001022091 -0.07005894
v -0.1576993 0.0002435875 -0.0653211
v -0.1419261 0.0002435779 -0.09483153
v -0.1522192 0.001022091 -0.10171
v -0.1206979 0.000242939 -0.1206977
v -0.1294519 0.001022911 -0.1294514
v -0.09483199 0.000242939 -0.1419262
v -0.1017096 0.001022911 -0.1522197
v -0.06532124 0.000242939 -0.1576989
v -0.07005881 0.001022911 -0.1691371
v -0.03330054 0.000242939 -0.1674123
v -0.03571574 0.001022911 -0.1795546
v -8.958868E-09 0.000242939 -0.1706923
v -1.101686E-08 0.001022911 -0.1830724
v 0.03571573 0.001022911 -0.1795546
v 0.03330046 0.000242939 -0.1674124
v 0.06532122 0.000242939 -0.157699
v 0.07005892 0.001022911 -0.1691372
v 0.09483202 0.000242939 -0.1419262
v 0.1017097 0.001022911 -0.1522198
v 0.1294519 0.001022911 -0.1294514
v 0.120698 0.000242939 -0.1206977
v 0.1522193 0.001022091 -0.1017101
v 0.1419262 0.0002435779 -0.09483159
v 0.1691372 0.001022091 -0.07005896
v 0.1576994 0.0002435875 -0.06532114
v 0.1674132 0.0002434444 -0.03330065
v 0.1795551 0.001022315 -0.03571572
v 0.183073 0.001022403 -1.899124E-08
v 0.1706926 0.00024339 3.814697E-08
v 0.1674132 0.0002434444 0.03330025
v 0.1795549 0.001022315 0.03571553
vt -4.450982 0.9639233
vt -4.450982 0.009701935
vt -4.141546 0.009701935
vt -4.141546 0.9639233
vt -3.832109 0.9639233
vt -3.832109 0.009701935
vt -3.522673 0.9639233
vt -3.522673 0.009701935
vt -3.213237 0.009701935
vt -3.213237 0.9639233
vt -2.9038 0.9639233
vt -2.9038 0.009701935
vt -2.594364 0.9639233
vt -2.594364 0.009701935
vt -2.284928 0.009701935
vt -2.284928 0.9639233
vt -1.975491 0.9639233
vt -1.975491 0.009701935
vt -1.666055 0.009701935
vt -1.666055 0.9639233
vt -1.356618 0.009701935
vt -1.356618 0.9639233
vt -1.047182 0.9639233
vt -1.047182 0.009701935
vt -0.7377458 0.009701935
vt -0.7377458 0.9639233
vt -0.4283093 0.009701935
vt -0.4283093 0.9639233
vt -0.118873 0.9639233
vt -0.118873 0.009701935
vt 0.1905635 0.009701935
vt 0.1905635 0.9639233
vt 0.4999999 0.9639233
vt 0.4999999 0.009701935
vt 0.8094363 0.009701935
vt 0.8094363 0.9639233
vt 1.118873 0.9639233
vt 1.118873 0.009701935
vt 1.428309 0.9639233
vt 1.428309 0.009701935
vt 1.737746 0.009701935
vt 1.737746 0.9639233
vt 2.047182 0.9639233
vt 2.047182 0.009701935
vt 2.356618 0.9639233
vt 2.356618 0.009701935
vt 2.666054 0.009701935
vt 2.666054 0.9639233
vt 2.975492 0.9639233
vt 2.975492 0.009701935
vt 3.284927 0.009701935
vt 3.284927 0.9639233
vt 3.594364 0.009701935
vt 3.594364 0.9639233
vt 3.9038 0.9639233
vt 3.9038 0.009701935
vt 4.213236 0.009701935
vt 4.213236 0.9639233
vt 4.522672 0.009701935
vt 4.522672 0.9639233
vt 4.832109 0.9639233
vt 4.832109 0.009701935
vt 5.141545 0.009701935
vt 5.141545 0.9639233
vt 5.450982 0.9639233
vt 5.450982 0.009701935
vt -4.450982 0.9656066
vt -4.141546 0.9656066
vt -4.141546 0.009701935
vt -4.450982 0.009701935
vt -3.832109 0.9656066
vt -3.832109 0.009701935
vt -3.522673 0.009701935
vt -3.522673 0.9656066
vt -3.213237 0.9656066
vt -3.213237 0.009701935
vt -2.9038 0.9656066
vt -2.9038 0.009701935
vt -2.594364 0.009701935
vt -2.594364 0.9656066
vt -2.284928 0.009701935
vt -2.284928 0.9656066
vt -1.975491 0.9656066
vt -1.975491 0.009701935
vt -1.666055 0.9656066
vt -1.666055 0.009701935
vt -1.356618 0.009701935
vt -1.356618 0.9656066
vt -1.047182 0.009701935
vt -1.047182 0.9656066
vt -0.7377458 0.9656066
vt -0.7377458 0.009701935
vt -0.4283093 0.009701935
vt -0.4283093 0.9656066
vt -0.118873 0.9656066
vt -0.118873 0.009701935
vt 0.1905635 0.009701935
vt 0.1905635 0.9656066
vt 0.4999999 0.009701935
vt 0.4999999 0.9656066
vt 0.8094363 0.009701935
vt 0.8094363 0.9656066
vt 1.118873 0.9656066
vt 1.118873 0.009701935
vt 1.428309 0.9656066
vt 1.428309 0.009701935
vt 1.737746 0.9656066
vt 1.737746 0.009701935
vt 2.047182 0.9656066
vt 2.047182 0.009701935
vt 2.356618 0.9656066
vt 2.356618 0.009701935
vt 2.666054 0.9656066
vt 2.666054 0.009701935
vt 2.975492 0.009701935
vt 2.975492 0.9656066
vt 3.284927 0.9656066
vt 3.284927 0.009701935
vt 3.594364 0.9656066
vt 3.594364 0.009701935
vt 3.9038 0.009701935
vt 3.9038 0.9656066
vt 4.213236 0.009701935
vt 4.213236 0.9656066
vt 4.522672 0.009701935
vt 4.522672 0.9656066
vt 4.832109 0.9656066
vt 4.832109 0.009701935
vt 5.141545 0.009701935
vt 5.141545 0.9656066
vt 5.450982 0.9656066
vt 5.450982 0.009701935
vn 0.2000448 -0.9789785 0.03979047
vn 0.1311387 -0.9910209 0.0260838
vn 0.1235228 -0.9910219 0.05116331
vn 0.1884394 -0.9789782 0.07805268
vn 0.1695862 -0.9789787 0.1133194
vn 0.1111732 -0.9910206 0.074289
vn 0.1442182 -0.9789794 0.1442237
vn 0.0945641 -0.9910167 0.09456975
vn 0.07430829 -0.991015 0.1112091
vn 0.113313 -0.9789799 0.1695832
vn 0.07805008 -0.9789799 0.1884315
vn 0.05118347 -0.9910151 0.1235693
vn 0.03978924 -0.9789799 0.2000377
vn 0.02609305 -0.991015 0.1311808
vn 0 -0.991015 0.1337509
vn 0 -0.9789799 0.2039565
vn -0.039789 -0.9789799 0.2000377
vn -0.02609291 -0.991015 0.1311809
vn -0.05118315 -0.9910151 0.1235694
vn -0.07804964 -0.9789799 0.1884317
vn -0.07430815 -0.991015 0.111209
vn -0.113313 -0.9789799 0.1695833
vn -0.1442184 -0.9789793 0.1442237
vn -0.09456421 -0.9910167 0.09456979
vn -0.1111734 -0.9910205 0.07428934
vn -0.169586 -0.9789787 0.1133195
vn -0.123523 -0.9910219 0.05116369
vn -0.188439 -0.9789783 0.07805304
vn -0.2000446 -0.9789785 0.03979009
vn -0.1311386 -0.9910209 0.02608355
vn -0.1337119 -0.9910203 0
vn -0.2039627 -0.9789787 0
vn -0.2000447 -0.9789785 -0.03978985
vn -0.1311386 -0.9910209 -0.02608343
vn -0.1235226 -0.9910219 -0.05116338
vn -0.1884391 -0.9789783 -0.07805285
vn -0.1695862 -0.9789787 -0.1133191
vn -0.1111728 -0.9910206 -0.07428857
vn -0.1442183 -0.9789795 -0.1442232
vn -0.09456387 -0.9910168 -0.09456912
vn -0.07430791 -0.9910151 -0.1112089
vn -0.1133126 -0.9789799 -0.1695831
vn -0.07805002 -0.97898 -0.1884313
vn -0.05118304 -0.9910152 -0.1235686
vn -0.0397896 -0.9789801 -0.2000371
vn -0.02609301 -0.9910152 -0.1311793
vn 0 -0.9910152 -0.1337493
vn 0 -0.9789801 -0.2039557
vn 0.03978939 -0.97898 -0.2000372
vn 0.02609288 -0.9910152 -0.1311793
vn 0.05118288 -0.9910152 -0.1235685
vn 0.0780499 -0.9789799 -0.1884315
vn 0.07430781 -0.9910151 -0.1112088
vn 0.1133126 -0.9789799 -0.1695833
vn 0.144218 -0.9789795 -0.1442233
vn 0.09456374 -0.9910168 -0.09456917
vn 0.1111727 -0.9910206 -0.07428857
vn 0.169586 -0.9789788 -0.1133192
vn 0.1235224 -0.9910219 -0.05116338
vn 0.188439 -0.9789783 -0.07805288
vn 0.2000445 -0.9789785 -0.03979005
vn 0.1311384 -0.9910209 -0.02608356
vn 0.133712 -0.9910203 3.976808E-07
vn 0.2039626 -0.9789787 6.22249E-07
vn 0.2000448 -0.9789785 0.03979047
vn 0.1311387 -0.9910209 0.0260838
vn 0.06157915 -0.998027 0.01224713
vn 0.05799046 -0.9980282 0.0240189
vn 0.1235228 -0.9910219 0.05116331
vn 0.1311387 -0.9910209 0.0260838
vn 0.0522062 -0.9980267 0.03488836
vn 0.1111732 -0.9910206 0.074289
vn 0.0945641 -0.9910167 0.09456975
vn 0.04443917 -0.998023 0.04444498
vn 0.03493376 -0.9980212 0.05228151
vn 0.07430829 -0.991015 0.1112091
vn 0.02406215 -0.9980212 0.05809218
vn 0.05118347 -0.9910151 0.1235693
vn 0.02609305 -0.991015 0.1311808
vn 0.012267 -0.9980211 0.06167118
vn 0 -0.991015 0.1337509
vn 0 -0.9980211 0.06287982
vn -0.01226696 -0.9980211 0.06167123
vn -0.02609291 -0.991015 0.1311809
vn -0.02406193 -0.9980212 0.05809215
vn -0.05118315 -0.9910151 0.1235694
vn -0.07430815 -0.991015 0.111209
vn -0.03493351 -0.9980212 0.05228129
vn -0.09456421 -0.9910167 0.09456979
vn -0.04443925 -0.998023 0.04444507
vn -0.0522069 -0.9980266 0.03488893
vn -0.1111734 -0.9910205 0.07428934
vn -0.123523 -0.9910219 0.05116369
vn -0.0579913 -0.9980281 0.02401931
vn -0.06157915 -0.998027 0.01224703
vn -0.1311386 -0.9910209 0.02608355
vn -0.1337119 -0.9910203 0
vn -0.06279485 -0.9980264 0
vn -0.1311386 -0.9910209 -0.02608343
vn -0.06157888 -0.9980271 -0.01224702
vn -0.1235226 -0.9910219 -0.05116338
vn -0.05799026 -0.9980282 -0.02401887
vn -0.05220547 -0.9980267 -0.0348878
vn -0.1111728 -0.9910206 -0.07428857
vn -0.04443868 -0.998023 -0.04444423
vn -0.09456387 -0.9910168 -0.09456912
vn -0.03493339 -0.9980212 -0.0522812
vn -0.07430791 -0.9910151 -0.1112089
vn -0.02406134 -0.9980213 -0.05809088
vn -0.05118304 -0.9910152 -0.1235686
vn -0.01226655 -0.9980213 -0.06166862
vn -0.02609301 -0.9910152 -0.1311793
vn 0 -0.9980213 -0.06287728
vn 0 -0.9910152 -0.1337493
vn 0.02609288 -0.9910152 -0.1311793
vn 0.0122665 -0.9980213 -0.06166866
vn 0.02406114 -0.9980213 -0.05809061
vn 0.05118288 -0.9910152 -0.1235685
vn 0.03493319 -0.9980212 -0.05228087
vn 0.07430781 -0.9910151 -0.1112088
vn 0.09456374 -0.9910168 -0.09456917
vn 0.04443867 -0.998023 -0.04444424
vn 0.1111727 -0.9910206 -0.07428857
vn 0.05220537 -0.9980268 -0.03488781
vn 0.1235224 -0.9910219 -0.05116338
vn 0.05799003 -0.9980282 -0.02401884
vn 0.06157879 -0.9980271 -0.01224707
vn 0.1311384 -0.9910209 -0.02608356
vn 0.133712 -0.9910203 3.976808E-07
vn 0.06279516 -0.9980264 1.711338E-07
vn 0.06157915 -0.998027 0.01224713
vn 0.1311387 -0.9910209 0.0260838
g mesh_ring_outward_0
f 3/3/3 2/2/2 1/1/1
f 1/1/1 4/4/4 3/3/3
f 3/3/3 4/4/4 5/5/5
f 5/5/5 6/6/6 3/3/3
f 6/6/6 5/5/5 7/7/7
f 7/7/7 8/8/8 6/6/6
f 7/7/7 9/9/9 8/8/8
f 10/10/10 9/9/9 7/7/7
f 9/9/9 10/10/10 11/11/11
f 11/11/11 12/12/12 9/9/9
f 12/12/12 11/11/11 13/13/13
f 13/13/13 14/14/14 12/12/12
f 15/15/15 14/14/14 13/13/13
f 15/15/15 13/13/13 16/16/16
f 15/15/15 16/16/16 17/17/17
f 17/17/17 18/18/18 15/15/15
f 19/19/19 18/18/18 17/17/17
f 17/17/17 20/20/20 19/19/19
f 21/21/21 19/19/19 20/20/20
f 20/20/20 22/22/22 21/21/21
f 21/21/21 22/22/22 23/23/23
f 23/23/23 24/24/24 21/21/21
f 25/25/25 24/24/24 23/23/23
f 23/23/23 26/26/26 25/25/25
f 26/26/26 27/27/27 25/25/25
f 28/28/28 27/27/27 26/26/26
f 27/27/27 28/28/28 29/29/29
f 29/29/29 30/30/30 27/27/27
f 29/29/29 31/31/31 30/30/30
f 32/32/32 31/31/31 29/29/29
f 31/31/31 32/32/32 33/33/33
f 33/33/33 34/34/34 31/31/31
f 35/35/35 34/34/34 33/33/33
f 35/35/35 33/33/33 36/36/36
f 35/35/35 36/36/36 37/37/37
f 37/37/37 38/38/38 35/35/35
f 38/38/38 37/37/37 39/39/39
f 39/39/39 40/40/40 38/38/38
f 41/41/41 40/40/40 39/39/39
f 39/39/39 42/42/42 41/41/41
f 41/41/41 42/42/42 43/43/43
f 43/43/43 44/44/44 41/41/41
f 44/44/44 43/43/43 45/45/45
f 45/45/45 46/46/46 44/44/44
f 47/47/47 46/46/46 45/45/45
f 45/45/45 48/48/48 47/47/47
f 47/47/47 48/48/48 49/49/49
f 49/49/49 50/50/50 47/47/47
f 49/49/49 51/51/51 50/50/50
f 52/52/52 51/51/51 49/49/49
f 52/52/52 53/53/53 51/51/51
f 53/53/53 52/52/52 54/54/54
f 53/53/53 54/54/54 55/55/55
f 55/55/55 56/56/56 53/53/53
f 57/57/57 56/56/56 55/55/55
f 57/57/57 55/55/55 58/58/58
f 59/59/59 57/57/57 58/58/58
f 58/58/58 60/60/60 59/59/59
f 59/59/59 60/60/60 61/61/61
f 61/61/61 62/62/62 59/59/59
f 63/63/63 62/62/62 61/61/61
f 61/61/61 64/64/64 63/63/63
f 63/63/63 64/64/64 65/65/65
f 65/65/65 66/66/66 63/63/63
f 69/69/69 68/68/68 67/67/67
f 67/67/67 70/70/70 69/69/69
f 68/68/68 69/69/69 71/71/71
f 69/69/69 72/72/72 71/71/71
f 71/71/71 72/72/72 73/73/73
f 73/73/73 74/74/74 71/71/71
f 74/74/74 73/73/73 75/75/75
f 76/76/76 75/75/75 73/73/73
f 75/75/75 76/76/76 77/77/77
f 78/78/78 77/77/77 76/76/76
f 77/77/77 78/78/78 79/79/79
f 79/79/79 80/80/80 77/77/77
f 80/80/80 79/79/79 81/81/81
f 81/81/81 82/82/82 80/80/80
f 83/83/83 82/82/82 81/81/81
f 81/81/81 84/84/84 83/83/83
f 85/85/85 83/83/83 84/84/84
f 84/84/84 86/86/86 85/85/85
f 85/85/85 86/86/86 87/87/87
f 87/87/87 88/88/88 85/85/85
f 88/88/88 87/87/87 89/89/89
f 89/89/89 90/90/90 88/88/88
f 91/91/91 90/90/90 89/89/89
f 89/89/89 92/92/92 91/91/91
f 91/91/91 92/92/92 93/93/93
f 93/93/93 94/94/94 91/91/91
f 94/94/94 93/93/93 95/95/95
f 96/96/96 95/95/95 93/93/93
f 95/95/95 96/96/96 97/97/97
f 97/97/97 98/98/98 95/95/95
f 98/98/98 97/97/97 99/99/99
f 99/99/99 100/100/100 98/98/98
f 100/100/100 99/99/99 101/101/101
f 101/101/101 102/102/102 100/100/100
f 103/103/103 102/102/102 101/101/101
f 104/104/104 103/103/103 101/101/101
f 105/105/105 103/103/103 104/104/104
f 104/104/104 106/106/106 105/105/105
f 107/107/107 105/105/105 106/106/106
f 106/106/106 108/108/108 107/107/107
f 109/109/109 107/107/107 108/108/108
f 108/108/108 110/110/110 109/109/109
f 111/111/111 109/109/109 110/110/110
f 110/110/110 112/112/112 111/111/111
f 111/111/111 112/112/112 113/113/113
f 112/112/112 114/114/114 113/113/113
f 113/113/113 114/114/114 115/115/115
f 115/115/115 116/116/116 113/113/113
f 116/116/116 115/115/115 117/117/117
f 118/118/118 117/117/117 115/115/115
f 117/117/117 118/118/118 119/119/119
f 120/120/120 119/119/119 118/118/118
f 119/119/119 120/120/120 121/121/121
f 121/121/121 122/122/122 119/119/119
f 122/122/122 121/121/121 123/123/123
f 123/123/123 124/124/124 122/122/122
f 124/124/124 123/123/123 125/125/125
f 125/125/125 126/126/126 124/124/124
f 127/127/127 126/126/126 125/125/125
f 125/125/125 128/128/128 127/127/127
f 127/127/127 128/128/128 129/129/129
f 129/129/129 130/130/130 127/127/127
f 131/131/131 130/130/130 129/129/129
f 129/129/129 132/132/132 131/131/131
