g mesh_ring_smooth
v 0.2116738 -0.004978794 0.0421044
v 0.1993923 -0.00497877 0.08259094
v 0.225192 0.01610167 0.09327746
v 0.2390625 0.01610168 0.04755237
v 0.1794484 -0.00497877 0.1199035
v 0.2026675 0.01610166 0.135418
v 0.1526084 -0.004978794 0.1526083
v 0.1723546 0.01610171 0.1723544
v 0.1354182 0.01610174 0.2026674
v 0.1199036 -0.004978794 0.1794483
v 0.08259113 -0.004978794 0.1993922
v 0.09327769 0.01610174 0.225192
v 0.04210464 -0.004978794 0.2116737
v 0.04755261 0.01610172 0.2390625
v 1.010204E-07 -0.004978794 0.2158207
v 1.089631E-07 0.01610174 0.2437461
v -0.0475524 0.01610174 0.2390626
v -0.04210442 -0.004978794 0.2116737
v -0.09327749 0.01610172 0.2251921
v -0.08259096 -0.004978794 0.1993923
v -0.135418 0.01610172 0.2026675
v -0.1199035 -0.004978794 0.1794484
v -0.1526083 -0.004978794 0.1526084
v -0.1723545 0.01610171 0.1723546
v -0.1794483 -0.004978782 0.1199038
v -0.2026674 0.01610166 0.1354182
v -0.1993923 -0.004978782 0.08259109
v -0.225192 0.01610167 0.09327769
v -0.2116737 -0.004978794 0.04210462
v -0.2390626 0.01610168 0.04755259
v -0.2158208 -0.004978788 5.886632E-08
v -0.2437462 0.01610169 7.990626E-08
v -0.2390627 0.01610169 -0.04755245
v -0.2116737 -0.004978782 -0.04210451
v -0.2251921 0.01610166 -0.09327756
v -0.1993923 -0.004978758 -0.08259107
v -0.2026676 0.01610166 -0.1354181
v -0.1794484 -0.00497877 -0.1199036
v -0.1723546 0.01610172 -0.1723545
v -0.1526085 -0.004978794 -0.1526084
v -0.1199038 -0.004978794 -0.1794485
v -0.1354182 0.01610172 -0.2026675
v -0.09327768 0.01610174 -0.2251921
v -0.08259107 -0.004978794 -0.1993924
v -0.04210461 -0.004978794 -0.2116738
v -0.04755257 0.01610174 -0.2390627
v -3.149798E-08 -0.004978794 -0.2158209
v -3.995313E-08 0.01610174 -0.2437462
v 0.0475525 0.01610174 -0.2390627
v 0.04210453 -0.004978794 -0.2116739
v 0.09327763 0.01610174 -0.2251922
v 0.08259109 -0.004978794 -0.1993924
v 0.1354181 0.01610174 -0.2026676
v 0.1199036 -0.004978794 -0.1794485
v 0.1526084 -0.004978794 -0.1526085
v 0.1723546 0.01610174 -0.1723547
v 0.2026676 0.01610166 -0.1354182
v 0.1794485 -0.00497877 -0.1199037
v 0.1993924 -0.004978758 -0.08259112
v 0.2251922 0.01610166 -0.09327767
v 0.2116739 -0.004978794 -0.04210456
v 0.2390628 0.01610169 -0.04755254
v 0.2158209 -0.004978792 -1.424079E-09
v 0.2437463 0.01610169 0
vt 0.4999996 0.8418742
vt 0.4333032 0.8353052
vt 0.4024543 0.9903927
vt 0.4999994 1
vt 0.36917 0.8158507
vt 0.3086578 0.9619397
vt 0.3100644 0.7842582
vt 0.2222146 0.9157348
vt 0.1464463 0.8535534
vt 0.2582581 0.7417417
vt 0.215742 0.6899351
vt 0.08426487 0.7777851
vt 0.1841494 0.6308295
vt 0.03806007 0.6913416
vt 0.1646947 0.5666965
vt 0.009607196 0.597545
vt -8.940697E-08 0.4999999
vt 0.1581259 0.5
vt 0.009607315 0.4024547
vt 0.164695 0.4333037
vt 0.03806025 0.3086582
vt 0.1841494 0.3691704
vt 0.215742 0.3100648
vt 0.08426529 0.2222148
vt 0.2582584 0.2582586
vt 0.1464467 0.1464465
vt 0.310065 0.2157421
vt 0.222215 0.08426511
vt 0.3691705 0.1841497
vt 0.3086584 0.03806019
vt 0.4333038 0.1646949
vt 0.402455 0.009607375
vt 0.5000002 5.960464E-08
vt 0.5000002 0.1581262
vt 0.5975454 0.009607434
vt 0.5666967 0.1646952
vt 0.6913419 0.03806043
vt 0.6308299 0.1841497
vt 0.7777853 0.08426547
vt 0.6899353 0.2157421
vt 0.7417415 0.2582587
vt 0.8535535 0.146447
vt 0.9157349 0.2222154
vt 0.7842579 0.3100654
vt 0.8158503 0.3691709
vt 0.9619398 0.3086589
vt 0.8353053 0.4333041
vt 0.9903927 0.4024554
vt 0.9999999 0.5000008
vt 0.841874 0.5000007
vt 0.9903924 0.597546
vt 0.8353049 0.5666971
vt 0.9619396 0.6913426
vt 0.8158501 0.6308303
vt 0.7842578 0.6899359
vt 0.9157345 0.777786
vt 0.8535529 0.8535544
vt 0.7417412 0.7417422
vt 0.6899346 0.7842586
vt 0.7777846 0.9157357
vt 0.6308291 0.815851
vt 0.691341 0.9619406
vt 0.5666957 0.8353059
vt 0.5975444 0.9903934
vn 0.5909164 -0.7981238 0.1175421
vn 0.5566311 -0.7981242 0.2305637
vn 0.5566311 -0.7981242 0.2305637
vn 0.5909164 -0.7981238 0.1175421
vn 0.5009553 -0.7981239 0.334727
vn 0.5009553 -0.7981239 0.334727
vn 0.4260278 -0.7981231 0.426028
vn 0.4260278 -0.7981231 0.426028
vn 0.3347278 -0.7981231 0.5009558
vn 0.3347278 -0.7981231 0.5009558
vn 0.2305646 -0.7981238 0.5566313
vn 0.2305646 -0.7981238 0.5566313
vn 0.1175411 -0.798124 0.5909165
vn 0.1175411 -0.798124 0.5909165
vn 1.250168E-07 -0.7981239 0.6024933
vn 1.250168E-07 -0.7981239 0.6024933
vn -0.1175404 -0.7981242 0.5909163
vn -0.1175404 -0.7981242 0.5909163
vn -0.2305633 -0.7981243 0.5566311
vn -0.2305633 -0.7981243 0.5566311
vn -0.3347267 -0.798124 0.5009553
vn -0.3347267 -0.798124 0.5009553
vn -0.4260268 -0.7981237 0.4260278
vn -0.4260268 -0.7981237 0.4260278
vn -0.500954 -0.7981246 0.3347271
vn -0.500954 -0.7981246 0.3347271
vn -0.5566296 -0.7981253 0.2305636
vn -0.5566296 -0.7981253 0.2305636
vn -0.5909153 -0.7981248 0.1175408
vn -0.5909153 -0.7981248 0.1175408
vn -0.602492 -0.7981249 1.43676E-07
vn -0.602492 -0.7981249 1.43676E-07
vn -0.5909144 -0.7981256 -0.1175401
vn -0.5909144 -0.7981256 -0.1175401
vn -0.5566294 -0.7981257 -0.2305627
vn -0.5566294 -0.7981257 -0.2305627
vn -0.5009546 -0.7981245 -0.3347264
vn -0.5009546 -0.7981245 -0.3347264
vn -0.426028 -0.7981232 -0.4260277
vn -0.426028 -0.7981232 -0.4260277
vn -0.3347275 -0.7981231 -0.5009561
vn -0.3347275 -0.7981231 -0.5009561
vn -0.2305641 -0.7981238 -0.5566316
vn -0.2305641 -0.7981238 -0.5566316
vn -0.1175411 -0.7981238 -0.5909167
vn -0.1175411 -0.7981238 -0.5909167
vn -2.444358E-07 -0.7981237 -0.6024936
vn -2.444358E-07 -0.7981237 -0.6024936
vn 0.1175405 -0.7981239 -0.5909167
vn 0.1175405 -0.7981239 -0.5909167
vn 0.230564 -0.7981241 -0.5566311
vn 0.230564 -0.7981241 -0.5566311
vn 0.3347272 -0.7981237 -0.5009553
vn 0.3347272 -0.7981237 -0.5009553
vn 0.4260269 -0.7981238 -0.4260276
vn 0.4260269 -0.7981238 -0.4260276
vn 0.5009538 -0.7981248 -0.3347267
vn 0.5009538 -0.7981248 -0.3347267
vn 0.5566293 -0.7981256 -0.2305632
vn 0.5566293 -0.7981256 -0.2305632
vn 0.5909148 -0.7981252 -0.1175406
vn 0.5909148 -0.7981252 -0.1175406
vn 0.6024928 -0.7981244 1.207252E-06
vn 0.6024928 -0.7981244 1.207252E-06
g mesh_ring_smooth_0
f 3/3/3 2/2/2 1/1/1
f 1/1/1 4/4/4 3/3/3
f 2/2/2 3/3/3 5/5/5
f 3/3/3 6/6/6 5/5/5
f 5/5/5 6/6/6 7/7/7
f 8/8/8 7/7/7 6/6/6
f 7/7/7 8/8/8 9/9/9
f 9/9/9 10/10/10 7/7/7
f 9/9/9 11/11/11 10/10/10
f 12/12/12 11/11/11 9/9/9
f 13/13/13 11/11/11 12/12/12
f 14/14/14 13/13/13 12/12/12
f 15/15/15 13/13/13 14/14/14
f 16/16/16 15/15/15 14/14/14
f 15/15/15 16/16/16 17/17/17
f 17/17/17 18/18/18 15/15/15
f 18/18/18 17/17/17 19/19/19
f 19/19/19 20/20/20 18/18/18
f 20/20/20 19/19/19 21/21/21
f 21/21/21 22/22/22 20/20/20
f 23/23/23 22/22/22 21/21/21
f 21/21/21 24/24/24 23/23/23
f 25/25/25 23/23/23 24/24/24
f 24/24/24 26/26/26 25/25/25
f 25/25/25 26/26/26 27/27/27
f 26/26/26 28/28/28 27/27/27
f 27/27/27 28/28/28 29/29/29
f 30/30/30 29/29/29 28/28/28
f 29/29/29 30/30/30 31/31/31
f 32/32/32 31/31/31 30/30/30
f 31/31/31 32/32/32 33/33/33
f 33/33/33 34/34/34 31/31/31
f 34/34/34 33/33/33 35/35/35
f 35/35/35 36/36/36 34/34/34
f 36/36/36 35/35/35 37/37/37
f 37/37/37 38/38/38 36/36/36
f 38/38/38 37/37/37 39/39/39
f 39/39/39 40/40/40 38/38/38
f 41/41/41 40/40/40 39/39/39
f 39/39/39 42/42/42 41/41/41
f 41/41/41 42/42/42 43/43/43
f 43/43/43 44/44/44 41/41/41
f 45/45/45 44/44/44 43/43/43
f 43/43/43 46/46/46 45/45/45
f 47/47/47 45/45/45 46/46/46
f 46/46/46 48/48/48 47/47/47
f 47/47/47 48/48/48 49/49/49
f 49/49/49 50/50/50 47/47/47
f 50/50/50 49/49/49 51/51/51
f 51/51/51 52/52/52 50/50/50
f 52/52/52 51/51/51 53/53/53
f 53/53/53 54/54/54 52/52/52
f 55/55/55 54/54/54 53/53/53
f 56/56/56 55/55/55 53/53/53
f 55/55/55 56/56/56 57/57/57
f 57/57/57 58/58/58 55/55/55
f 59/59/59 58/58/58 57/57/57
f 57/57/57 60/60/60 59/59/59
f 61/61/61 59/59/59 60/60/60
f 60/60/60 62/62/62 61/61/61
f 63/63/63 61/61/61 62/62/62
f 62/62/62 64/64/64 63/63/63
f 63/63/63 64/64/64 4/4/4
f 4/4/4 1/1/1 63/63/63
