g mesh_moon
v 0.8974041 0.3717164 -4.126881E-17
v 0.952679 0.1894992 -2.103863E-17
v 0.7543651 0.2288337 0.2646403
v 0.6093716 0.5000978 0.2646403
v 0.8076425 0.539649 -5.991307E-17
v 0.6868436 0.6868429 -7.625488E-17
v 0.5396497 0.807642 -8.966629E-17
v 0.3716068 0.6952267 0.2646403
v 0.3717174 0.8974038 -9.963183E-17
v 0.1895001 0.952679 -1.057686E-16
v 0.07726818 0.7845135 0.2646403
v 4.342247E-07 0.9713432 -1.078408E-16
v -0.2288338 0.7543652 0.2646403
v -0.1894992 0.9526792 -1.057686E-16
v -0.3717166 0.8974043 -9.963189E-17
v -0.500098 0.6093717 0.2646403
v -0.5396491 0.8076426 -8.966635E-17
v -0.6868432 0.6868437 -7.625497E-17
v -0.8076423 0.5396498 -5.991316E-17
v -0.6952269 0.3716068 0.2646403
v -0.8974041 0.3717174 -4.126892E-17
v -0.9526793 0.1895 -2.103873E-17
v -0.7845137 0.07726811 0.2646403
v -0.9713435 3.184314E-07 -3.535299E-23
v -0.7543655 -0.228834 0.2646403
v -0.9526795 -0.1894994 2.103866E-17
v -0.8974046 -0.3717168 4.126886E-17
v -0.6093718 -0.5000982 0.2646403
v -0.8076429 -0.5396494 5.991312E-17
v -0.6868439 -0.6868435 7.625496E-17
v -0.5396498 -0.8076426 8.966635E-17
v -0.3716068 -0.6952271 0.2646403
v -0.3717173 -0.8974046 9.963192E-17
v -0.1894999 -0.9526796 1.057687E-16
v -0.07726802 -0.7845139 0.2646403
v -1.592157E-07 -0.9713438 1.078408E-16
v 0.2288342 -0.7543657 0.2646403
v 0.1894997 -0.9526798 1.057687E-16
v 0.3717171 -0.8974048 9.963196E-17
v 0.5000985 -0.609372 0.2646403
v 0.5396497 -0.8076431 8.96664E-17
v 0.6868439 -0.686844 7.625502E-17
v 0.8076429 -0.5396499 5.991317E-17
v 0.6952274 -0.3716069 0.2646403
v 0.8974048 -0.3717173 4.126891E-17
v 0.9526799 -0.1894998 2.103871E-17
v 0.7845142 -0.07726791 0.2646403
v 0.9713441 0 0
v 0.1710318 -0.3199781 0.4487025
v -0.1053209 -0.3471963 0.4487025
v -0.319978 -0.1710317 0.4487025
v -0.3471962 0.1053209 0.4487025
v -0.1710316 0.3199779 0.4487025
v 0.1053209 0.3471918 0.4487025
v 0.3199778 0.1710315 0.4487025
v 0.3471965 -0.1053209 0.4487025
v 0 2.156817E-16 0.4856721
vt 0.05792838 0.3168871
vt 0.03069919 0.4066496
vt 0.205599 0.4106975
vt 0.2621844 0.3048354
vt 0.1021461 0.2341616
vt 0.1616533 0.1616521
vt 0.2341629 0.1021451
vt 0.3549747 0.2286782
vt 0.3168884 0.05792743
vt 0.4066509 0.03069836
vt 0.4698434 0.1938353
vt 0.5000008 0.02150431
vt 0.5893029 0.2056081
vt 0.5933506 0.03069854
vt 0.683113 0.05792788
vt 0.6951663 0.2621891
vt 0.7658386 0.1021456
vt 0.838348 0.1616528
vt 0.897855 0.2341625
vt 0.7713172 0.3549764
vt 0.9420727 0.316888
vt 0.9693018 0.4066506
vt 0.8061624 0.4698479
vt 0.9784958 0.5000005
vt 0.7943963 0.5893075
vt 0.9693016 0.5933504
vt 0.9420724 0.6831129
vt 0.7378107 0.6951708
vt 0.8978544 0.7658384
vt 0.8383473 0.8383479
vt 0.7658376 0.897855
vt 0.6450206 0.7713215
vt 0.683112 0.9420726
vt 0.5933494 0.9693016
vt 0.5301518 0.8061665
vt 0.4999996 0.9784957
vt 0.4106922 0.7944007
vt 0.4066497 0.9693015
vt 0.3168873 0.9420723
vt 0.3048286 0.7378153
vt 0.2341616 0.8978544
vt 0.1616521 0.8383472
vt 0.1021451 0.7658373
vt 0.2286778 0.6450249
vt 0.05792743 0.6831117
vt 0.03069833 0.5933491
vt 0.193833 0.5301557
vt 0.02150431 0.4999992
vt 0.4302179 0.6305479
vt 0.5429643 0.6416526
vt 0.6305404 0.5697809
vt 0.6416451 0.4570351
vt 0.5697735 0.3694591
vt 0.457027 0.3583538
vt 0.3694511 0.4302247
vt 0.3583463 0.542972
vt 0.4999955 0.5000035
vn 0.7552985 0.3116821 0.5765227
vn 0.8011689 0.1604681 0.5765227
vn 0.6374472 0.1942964 0.7455937
vn 0.5156977 0.4220729 0.745594
vn 0.6787761 0.4548456 0.5765228
vn 0.5785291 0.576997 0.5765227
vn 0.4530454 0.679979 0.5765227
vn 0.3133551 0.5881306 0.7455944
vn 0.313684 0.7544694 0.5765226
vn 0.1583428 0.8015916 0.5765228
vn 0.06620346 0.6631033 0.7455944
vn 0.001083319 0.8170803 0.5765228
vn -0.1942949 0.6374471 0.7455941
vn -0.1604661 0.8011691 0.5765229
vn -0.3116821 0.7552982 0.576523
vn -0.4220727 0.515698 0.7455938
vn -0.4548455 0.6787759 0.576523
vn -0.5769969 0.5785291 0.5765229
vn -0.6799789 0.4530455 0.5765228
vn -0.5881309 0.3133557 0.7455939
vn -0.7544693 0.3136839 0.5765229
vn -0.8015915 0.1583428 0.5765229
vn -0.663104 0.06620302 0.7455938
vn -0.8170803 0.001083341 0.5765229
vn -0.6374474 -0.1942954 0.7455939
vn -0.8011692 -0.1604659 0.5765229
vn -0.7552984 -0.3116819 0.576523
vn -0.5156978 -0.4220727 0.745594
vn -0.6787758 -0.4548456 0.576523
vn -0.5785289 -0.576997 0.5765231
vn -0.4530452 -0.6799788 0.5765231
vn -0.3133555 -0.5881309 0.745594
vn -0.3136837 -0.7544691 0.5765231
vn -0.1583426 -0.8015913 0.5765232
vn -0.06620292 -0.6631038 0.7455941
vn -0.001083334 -0.8170801 0.5765231
vn 0.1942955 -0.6374472 0.745594
vn 0.1604662 -0.8011691 0.5765229
vn 0.3116823 -0.7552983 0.5765229
vn 0.4220727 -0.5156977 0.745594
vn 0.4548456 -0.6787758 0.5765232
vn 0.5769969 -0.5785289 0.5765231
vn 0.6799789 -0.4530452 0.5765231
vn 0.5881309 -0.3133554 0.745594
vn 0.7544691 -0.3136836 0.5765232
vn 0.8015913 -0.1583425 0.5765231
vn 0.6631039 -0.06620197 0.745594
vn 0.8170801 -0.001081588 0.5765231
vn 0.127047 -0.2376885 0.962997
vn -0.07823531 -0.257907 0.962997
vn -0.2376885 -0.127047 0.962997
vn -0.257907 0.0782354 0.962997
vn -0.1270461 0.2376886 0.9629971
vn 0.0782355 0.2579066 0.9629971
vn 0.237688 0.1270476 0.9629971
vn 0.257907 -0.0782351 0.962997
vn 1.489782E-07 3.131822E-07 1
g mesh_moon_0
f 3/3/3 2/2/2 1/1/1
f 4/4/4 3/3/3 1/1/1
f 1/1/1 5/5/5 4/4/4
f 4/4/4 5/5/5 6/6/6
f 4/4/4 6/6/6 7/7/7
f 4/4/4 7/7/7 8/8/8
f 8/8/8 7/7/7 9/9/9
f 8/8/8 9/9/9 10/10/10
f 10/10/10 11/11/11 8/8/8
f 11/11/11 10/10/10 12/12/12
f 13/13/13 11/11/11 12/12/12
f 12/12/12 14/14/14 13/13/13
f 13/13/13 14/14/14 15/15/15
f 16/16/16 13/13/13 15/15/15
f 15/15/15 17/17/17 16/16/16
f 16/16/16 17/17/17 18/18/18
f 16/16/16 18/18/18 19/19/19
f 16/16/16 19/19/19 20/20/20
f 20/20/20 19/19/19 21/21/21
f 20/20/20 21/21/21 22/22/22
f 22/22/22 23/23/23 20/20/20
f 23/23/23 22/22/22 24/24/24
f 25/25/25 23/23/23 24/24/24
f 24/24/24 26/26/26 25/25/25
f 25/25/25 26/26/26 27/27/27
f 28/28/28 25/25/25 27/27/27
f 27/27/27 29/29/29 28/28/28
f 28/28/28 29/29/29 30/30/30
f 28/28/28 30/30/30 31/31/31
f 28/28/28 31/31/31 32/32/32
f 32/32/32 31/31/31 33/33/33
f 32/32/32 33/33/33 34/34/34
f 34/34/34 35/35/35 32/32/32
f 35/35/35 34/34/34 36/36/36
f 37/37/37 35/35/35 36/36/36
f 36/36/36 38/38/38 37/37/37
f 37/37/37 38/38/38 39/39/39
f 40/40/40 37/37/37 39/39/39
f 39/39/39 41/41/41 40/40/40
f 40/40/40 41/41/41 42/42/42
f 40/40/40 42/42/42 43/43/43
f 40/40/40 43/43/43 44/44/44
f 44/44/44 43/43/43 45/45/45
f 44/44/44 45/45/45 46/46/46
f 46/46/46 47/47/47 44/44/44
f 47/47/47 46/46/46 48/48/48
f 3/3/3 47/47/47 48/48/48
f 48/48/48 2/2/2 3/3/3
f 35/35/35 37/37/37 49/49/49
f 49/49/49 37/37/37 40/40/40
f 49/49/49 50/50/50 35/35/35
f 50/50/50 32/32/32 35/35/35
f 28/28/28 32/32/32 50/50/50
f 50/50/50 51/51/51 28/28/28
f 51/51/51 25/25/25 28/28/28
f 23/23/23 25/25/25 51/51/51
f 51/51/51 52/52/52 23/23/23
f 52/52/52 20/20/20 23/23/23
f 16/16/16 20/20/20 52/52/52
f 52/52/52 53/53/53 16/16/16
f 53/53/53 13/13/13 16/16/16
f 11/11/11 13/13/13 53/53/53
f 53/53/53 54/54/54 11/11/11
f 54/54/54 8/8/8 11/11/11
f 8/8/8 54/54/54 55/55/55
f 55/55/55 4/4/4 8/8/8
f 55/55/55 3/3/3 4/4/4
f 3/3/3 55/55/55 56/56/56
f 56/56/56 47/47/47 3/3/3
f 56/56/56 44/44/44 47/47/47
f 40/40/40 44/44/44 56/56/56
f 56/56/56 49/49/49 40/40/40
f 57/57/57 55/55/55 54/54/54
f 57/57/57 54/54/54 53/53/53
f 57/57/57 49/49/49 56/56/56
f 57/57/57 56/56/56 55/55/55
f 57/57/57 53/53/53 52/52/52
f 57/57/57 52/52/52 51/51/51
f 57/57/57 51/51/51 50/50/50
f 57/57/57 50/50/50 49/49/49
