g mesh_ring
v 0.2730899 0.02089142 0.05432081
v 0.2390625 0.000561614 0.04755237
v 0.225192 0.0005616093 0.09327746
v 0.2572451 0.02089144 0.1065543
v 0.2026675 0.0005616093 0.135418
v 0.2315145 0.02089143 0.1546929
v 0.1723546 0.000561657 0.1723544
v 0.1968869 0.02089143 0.1968869
v 0.1354182 0.000561657 0.2026674
v 0.1546931 0.0208914 0.2315143
v 0.09327769 0.000561657 0.225192
v 0.1065545 0.0208914 0.2572453
v 0.05432107 0.0208914 0.2730897
v 0.04755261 0.000561657 0.2390625
v 1.166599E-07 0.0208914 0.2784398
v 1.089631E-07 0.000561657 0.2437461
v -0.0475524 0.000561657 0.2390626
v -0.05432085 0.0208914 0.2730897
v -0.09327749 0.000561657 0.2251921
v -0.1065543 0.0208914 0.2572455
v -0.1546929 0.0208914 0.2315145
v -0.135418 0.000561657 0.2026675
v -0.1723545 0.000561657 0.1723546
v -0.1968868 0.02089145 0.196887
v -0.2315144 0.02089144 0.1546931
v -0.2026674 0.0005616093 0.1354182
v -0.2572451 0.02089145 0.1065546
v -0.225192 0.0005616093 0.09327769
v -0.27309 0.02089143 0.05432106
v -0.2390626 0.000561614 0.04755259
v -0.2437462 0.0005616205 7.990626E-08
v -0.2784402 0.02089143 8.583068E-08
v -0.27309 0.02089144 -0.05432087
v -0.2390627 0.000561614 -0.04755245
v -0.2572452 0.02089145 -0.1065544
v -0.2251921 0.0005616093 -0.09327756
v -0.2315145 0.02089145 -0.154693
v -0.2026676 0.0005616093 -0.1354181
v -0.1723546 0.000561657 -0.1723545
v -0.196887 0.02089138 -0.1968869
v -0.1354182 0.000561657 -0.2026675
v -0.1546932 0.02089138 -0.2315145
v -0.09327768 0.000561657 -0.2251921
v -0.1065545 0.02089138 -0.2572454
v -0.05432104 0.02089138 -0.27309
v -0.04755257 0.000561657 -0.2390627
v -3.995313E-08 0.000561657 -0.2437462
v -5.975523E-08 0.02089138 -0.2784404
v 0.05432095 0.02089138 -0.27309
v 0.0475525 0.000561657 -0.2390627
v 0.09327763 0.000561657 -0.2251922
v 0.1065544 0.02089138 -0.2572455
v 0.1546931 0.02089138 -0.2315146
v 0.1354181 0.000561657 -0.2026676
v 0.1723546 0.000561657 -0.1723547
v 0.196887 0.02089136 -0.196887
v 0.2315146 0.02089143 -0.1546931
v 0.2026676 0.0005616093 -0.1354182
v 0.2251922 0.0005616093 -0.09327767
v 0.2572453 0.02089143 -0.1065545
v 0.2390628 0.000561614 -0.04755254
v 0.2730902 0.02089142 -0.05432101
v 0.2437463 0.0005616205 0
v 0.2784404 0.02089142 0
v 0.2730899 0.02089142 0.05432081
v 0.2390625 0.000561614 0.04755237
v 0.1674129 -0.00497879 0.03330037
v 0.1576995 -0.004978771 0.06532117
v 0.225192 0.0005616093 0.09327746
v 0.2390625 0.000561614 0.04755237
v 0.1419258 -0.004978771 0.09483168
v 0.2026675 0.0005616093 0.135418
v 0.1206981 -0.00497879 0.1206979
v 0.1723546 0.000561657 0.1723544
v 0.1354182 0.000561657 0.2026674
v 0.09483184 -0.00497879 0.1419257
v 0.06532136 -0.00497879 0.1576993
v 0.09327769 0.000561657 0.225192
v 0.03330058 -0.00497879 0.1674127
v 0.04755261 0.000561657 0.2390625
v 9.585008E-08 -0.00497879 0.1706927
v 1.089631E-07 0.000561657 0.2437461
v -0.0475524 0.000561657 0.2390626
v -0.03330038 -0.00497879 0.1674128
v -0.06532119 -0.00497879 0.1576994
v -0.09327749 0.000561657 0.2251921
v -0.09483168 -0.00497879 0.1419258
v -0.135418 0.000561657 0.2026675
v -0.1206979 -0.00497879 0.120698
v -0.1723545 0.000561657 0.1723546
v -0.1419257 -0.004978781 0.09483189
v -0.2026674 0.0005616093 0.1354182
v -0.225192 0.0005616093 0.09327769
v -0.1576994 -0.004978781 0.0653213
v -0.1674128 -0.00497879 0.03330054
v -0.2390626 0.000561614 0.04755259
v -0.1706927 -0.004978785 2.861023E-08
v -0.2437462 0.0005616205 7.990626E-08
v -0.2390627 0.000561614 -0.04755245
v -0.1674128 -0.004978781 -0.03330049
v -0.2251921 0.0005616093 -0.09327756
v -0.1576994 -0.004978762 -0.06532131
v -0.2026676 0.0005616093 -0.1354181
v -0.1419258 -0.004978771 -0.09483184
v -0.1206981 -0.00497879 -0.1206981
v -0.1723546 0.000561657 -0.1723545
v -0.1354182 0.000561657 -0.2026675
v -0.09483191 -0.00497879 -0.1419259
v -0.09327768 0.000561657 -0.2251921
v -0.0653213 -0.00497879 -0.1576995
v -0.03330052 -0.00497879 -0.1674129
v -0.04755257 0.000561657 -0.2390627
v -8.958718E-09 -0.00497879 -0.1706928
v -3.995313E-08 0.000561657 -0.2437462
v 0.0475525 0.000561657 -0.2390627
v 0.0333005 -0.00497879 -0.167413
v 0.09327763 0.000561657 -0.2251922
v 0.06532133 -0.00497879 -0.1576995
v 0.1354181 0.000561657 -0.2026676
v 0.09483184 -0.00497879 -0.1419259
v 0.1206981 -0.00497879 -0.1206981
v 0.1723546 0.000561657 -0.1723547
v 0.2026676 0.0005616093 -0.1354182
v 0.1419259 -0.004978771 -0.09483188
v 0.1576995 -0.004978762 -0.06532136
v 0.2251922 0.0005616093 -0.09327767
v 0.167413 -0.00497879 -0.03330053
v 0.2390628 0.000561614 -0.04755254
v 0.1706929 -0.004978789 -1.907349E-08
v 0.2437463 0.0005616205 0
v 0.2390625 0.000561614 0.04755237
v 0.1674129 -0.00497879 0.03330037
vt -4.450982 0.9639233
vt -4.450982 0.009701935
vt -4.141546 0.009701935
vt -4.141546 0.9639233
vt -3.832109 0.009701935
vt -3.832109 0.9639233
vt -3.522673 0.009701935
vt -3.522673 0.9639233
vt -3.213237 0.009701935
vt -3.213237 0.9639233
vt -2.9038 0.009701935
vt -2.9038 0.9639233
vt -2.594364 0.9639233
vt -2.594364 0.009701935
vt -2.284928 0.9639233
vt -2.284928 0.009701935
vt -1.975491 0.009701935
vt -1.975491 0.9639233
vt -1.666055 0.009701935
vt -1.666055 0.9639233
vt -1.356618 0.9639233
vt -1.356618 0.009701935
vt -1.047182 0.009701935
vt -1.047182 0.9639233
vt -0.7377458 0.9639233
vt -0.7377458 0.009701935
vt -0.4283093 0.9639233
vt -0.4283093 0.009701935
vt -0.118873 0.9639233
vt -0.118873 0.009701935
vt 0.1905635 0.009701935
vt 0.1905635 0.9639233
vt 0.4999999 0.9639233
vt 0.4999999 0.009701935
vt 0.8094363 0.9639233
vt 0.8094363 0.009701935
vt 1.118873 0.9639233
vt 1.118873 0.009701935
vt 1.428309 0.009701935
vt 1.428309 0.9639233
vt 1.737746 0.009701935
vt 1.737746 0.9639233
vt 2.047182 0.009701935
vt 2.047182 0.9639233
vt 2.356618 0.9639233
vt 2.356618 0.009701935
vt 2.666054 0.009701935
vt 2.666054 0.9639233
vt 2.975492 0.9639233
vt 2.975492 0.009701935
vt 3.284927 0.009701935
vt 3.284927 0.9639233
vt 3.594364 0.9639233
vt 3.594364 0.009701935
vt 3.9038 0.009701935
vt 3.9038 0.9639233
vt 4.213236 0.9639233
vt 4.213236 0.009701935
vt 4.522672 0.009701935
vt 4.522672 0.9639233
vt 4.832109 0.009701935
vt 4.832109 0.9639233
vt 5.141545 0.009701935
vt 5.141545 0.9639233
vt 5.450982 0.9639233
vt 5.450982 0.009701935
vt -4.450982 0.9656066
vt -4.141546 0.9656066
vt -4.141546 0.009701935
vt -4.450982 0.009701935
vt -3.832109 0.9656066
vt -3.832109 0.009701935
vt -3.522673 0.9656066
vt -3.522673 0.009701935
vt -3.213237 0.009701935
vt -3.213237 0.9656066
vt -2.9038 0.9656066
vt -2.9038 0.009701935
vt -2.594364 0.9656066
vt -2.594364 0.009701935
vt -2.284928 0.9656066
vt -2.284928 0.009701935
vt -1.975491 0.009701935
vt -1.975491 0.9656066
vt -1.666055 0.9656066
vt -1.666055 0.009701935
vt -1.356618 0.9656066
vt -1.356618 0.009701935
vt -1.047182 0.9656066
vt -1.047182 0.009701935
vt -0.7377458 0.9656066
vt -0.7377458 0.009701935
vt -0.4283093 0.009701935
vt -0.4283093 0.9656066
vt -0.118873 0.9656066
vt -0.118873 0.009701935
vt 0.1905635 0.9656066
vt 0.1905635 0.009701935
vt 0.4999999 0.009701935
vt 0.4999999 0.9656066
vt 0.8094363 0.009701935
vt 0.8094363 0.9656066
vt 1.118873 0.009701935
vt 1.118873 0.9656066
vt 1.428309 0.9656066
vt 1.428309 0.009701935
vt 1.737746 0.009701935
vt 1.737746 0.9656066
vt 2.047182 0.009701935
vt 2.047182 0.9656066
vt 2.356618 0.9656066
vt 2.356618 0.009701935
vt 2.666054 0.9656066
vt 2.666054 0.009701935
vt 2.975492 0.009701935
vt 2.975492 0.9656066
vt 3.284927 0.009701935
vt 3.284927 0.9656066
vt 3.594364 0.009701935
vt 3.594364 0.9656066
vt 3.9038 0.9656066
vt 3.9038 0.009701935
vt 4.213236 0.009701935
vt 4.213236 0.9656066
vt 4.522672 0.9656066
vt 4.522672 0.009701935
vt 4.832109 0.9656066
vt 4.832109 0.009701935
vt 5.141545 0.9656066
vt 5.141545 0.009701935
vt 5.450982 0.009701935
vt 5.450982 0.9656066
vn 0.495856 -0.8627852 0.09863336
vn 0.2923982 -0.9545263 0.05816248
vn 0.2754332 -0.9545263 0.114088
vn 0.4670868 -0.8627851 0.1934732
vn 0.2478832 -0.9545264 0.1656301
vn 0.4203665 -0.8627855 0.2808795
vn 0.2108071 -0.9545264 0.2108071
vn 0.3574918 -0.8627859 0.3574916
vn 0.1656303 -0.9545265 0.2478824
vn 0.2808798 -0.8627863 0.4203646
vn 0.1140877 -0.9545266 0.2754323
vn 0.1934725 -0.8627865 0.4670843
vn 0.09863096 -0.8627854 0.495856
vn 0.0581612 -0.9545262 0.2923984
vn 1.734406E-07 -0.8627847 0.5055717
vn 1.052136E-07 -0.9545261 0.2981274
vn -0.0581609 -0.9545262 0.2923986
vn -0.09863043 -0.8627853 0.4958564
vn -0.1140873 -0.9545266 0.2754323
vn -0.1934718 -0.8627866 0.4670846
vn -0.2808794 -0.8627863 0.4203648
vn -0.16563 -0.9545265 0.2478825
vn -0.2108069 -0.9545264 0.2108074
vn -0.3574916 -0.8627858 0.357492
vn -0.4203662 -0.8627853 0.2808802
vn -0.247883 -0.9545264 0.1656305
vn -0.4670861 -0.8627853 0.193474
vn -0.2754328 -0.9545264 0.1140883
vn -0.4958556 -0.8627855 0.09863214
vn -0.2923978 -0.9545264 0.05816173
vn -0.2981264 -0.9545264 0
vn -0.5055702 -0.8627855 1.063023E-07
vn -0.4958563 -0.8627852 -0.09863161
vn -0.2923981 -0.9545264 -0.05816146
vn -0.4670867 -0.862785 -0.1934735
vn -0.2754331 -0.9545263 -0.114088
vn -0.4203669 -0.8627851 -0.2808799
vn -0.2478833 -0.9545263 -0.1656302
vn -0.2108073 -0.9545264 -0.210807
vn -0.3574921 -0.8627858 -0.3574913
vn -0.16563 -0.9545266 -0.2478822
vn -0.2808792 -0.8627866 -0.4203643
vn -0.1140876 -0.9545267 -0.275432
vn -0.1934724 -0.8627868 -0.4670838
vn -0.09863172 -0.8627865 -0.495854
vn -0.0581616 -0.9545266 -0.2923974
vn -1.137024E-07 -0.9545266 -0.2981257
vn -1.902252E-07 -0.8627865 -0.5055684
vn 0.09863138 -0.8627864 -0.4958543
vn 0.05816139 -0.9545266 -0.2923975
vn 0.1140875 -0.9545267 -0.2754322
vn 0.1934722 -0.8627867 -0.4670842
vn 0.2808789 -0.8627865 -0.4203647
vn 0.1656298 -0.9545266 -0.2478825
vn 0.2108069 -0.9545265 -0.2108071
vn 0.3574914 -0.8627861 -0.3574916
vn 0.4203663 -0.8627854 -0.2808798
vn 0.247883 -0.9545264 -0.1656302
vn 0.275433 -0.9545264 -0.1140882
vn 0.4670865 -0.8627851 -0.1934737
vn 0.2923979 -0.9545264 -0.05816177
vn 0.4958558 -0.8627854 -0.09863213
vn 0.2981263 -0.9545265 8.389588E-07
vn 0.5055698 -0.8627856 1.465853E-06
vn 0.495856 -0.8627852 0.09863336
vn 0.2923982 -0.9545263 0.05816248
vn 0.07417013 -0.9971365 0.0147536
vn 0.06986661 -0.9971365 0.02893973
vn 0.2754332 -0.9545263 0.114088
vn 0.2923982 -0.9545263 0.05816248
vn 0.06287835 -0.9971365 0.0420141
vn 0.2478832 -0.9545264 0.1656301
vn 0.05347395 -0.9971364 0.05347417
vn 0.2108071 -0.9545264 0.2108071
vn 0.1656303 -0.9545265 0.2478824
vn 0.04201438 -0.9971364 0.06287897
vn 0.02893999 -0.9971364 0.06986729
vn 0.1140877 -0.9545266 0.2754323
vn 0.01475353 -0.9971364 0.07417071
vn 0.0581612 -0.9545262 0.2923984
vn 0 -0.9971364 0.0756238
vn 1.052136E-07 -0.9545261 0.2981274
vn -0.0581609 -0.9545262 0.2923986
vn -0.01475346 -0.9971364 0.07417069
vn -0.0289399 -0.9971364 0.06986729
vn -0.1140873 -0.9545266 0.2754323
vn -0.04201425 -0.9971364 0.06287897
vn -0.16563 -0.9545265 0.2478825
vn -0.0534738 -0.9971364 0.05347424
vn -0.2108069 -0.9545264 0.2108074
vn -0.06287827 -0.9971365 0.04201422
vn -0.247883 -0.9545264 0.1656305
vn -0.2754328 -0.9545264 0.1140883
vn -0.06986657 -0.9971365 0.02893971
vn -0.07417005 -0.9971365 0.01475338
vn -0.2923978 -0.9545264 0.05816173
vn -0.07562318 -0.9971365 0
vn -0.2981264 -0.9545264 0
vn -0.2923981 -0.9545264 -0.05816146
vn -0.07416988 -0.9971365 -0.01475337
vn -0.2754331 -0.9545263 -0.114088
vn -0.06986643 -0.9971365 -0.02893957
vn -0.2478833 -0.9545263 -0.1656302
vn -0.06287831 -0.9971365 -0.04201399
vn -0.05347391 -0.9971364 -0.05347411
vn -0.2108073 -0.9545264 -0.210807
vn -0.16563 -0.9545266 -0.2478822
vn -0.04201432 -0.9971364 -0.06287897
vn -0.1140876 -0.9545267 -0.275432
vn -0.02893996 -0.9971364 -0.06986731
vn -0.01475356 -0.9971364 -0.07417071
vn -0.0581616 -0.9545266 -0.2923974
vn 0 -0.9971364 -0.07562382
vn -1.137024E-07 -0.9545266 -0.2981257
vn 0.05816139 -0.9545266 -0.2923975
vn 0.01475349 -0.9971364 -0.07417072
vn 0.1140875 -0.9545267 -0.2754322
vn 0.02893994 -0.9971364 -0.06986729
vn 0.1656298 -0.9545266 -0.2478825
vn 0.0420143 -0.9971364 -0.06287894
vn 0.05347382 -0.9971364 -0.05347414
vn 0.2108069 -0.9545265 -0.2108071
vn 0.247883 -0.9545264 -0.1656302
vn 0.06287821 -0.9971365 -0.04201402
vn 0.06986642 -0.9971365 -0.0289397
vn 0.275433 -0.9545264 -0.1140882
vn 0.07416997 -0.9971365 -0.01475346
vn 0.2923979 -0.9545264 -0.05816177
vn 0.07562326 -0.9971365 1.697382E-07
vn 0.2981263 -0.9545265 8.389588E-07
vn 0.2923982 -0.9545263 0.05816248
vn 0.07417013 -0.9971365 0.0147536
g mesh_ring_0
f 3/3/3 2/2/2 1/1/1
f 1/1/1 4/4/4 3/3/3
f 3/3/3 4/4/4 5/5/5
f 4/4/4 6/6/6 5/5/5
f 5/5/5 6/6/6 7/7/7
f 8/8/8 7/7/7 6/6/6
f 7/7/7 8/8/8 9/9/9
f 10/10/10 9/9/9 8/8/8
f 10/10/10 11/11/11 9/9/9
f 12/12/12 11/11/11 10/10/10
f 11/11/11 12/12/12 13/13/13
f 13/13/13 14/14/14 11/11/11
f 14/14/14 13/13/13 15/15/15
f 15/15/15 16/16/16 14/14/14
f 17/17/17 16/16/16 15/15/15
f 15/15/15 18/18/18 17/17/17
f 19/19/19 17/17/17 18/18/18
f 18/18/18 20/20/20 19/19/19
f 19/19/19 20/20/20 21/21/21
f 21/21/21 22/22/22 19/19/19
f 23/23/23 22/22/22 21/21/21
f 21/21/21 24/24/24 23/23/23
f 23/23/23 24/24/24 25/25/25
f 25/25/25 26/26/26 23/23/23
f 26/26/26 25/25/25 27/27/27
f 27/27/27 28/28/28 26/26/26
f 28/28/28 27/27/27 29/29/29
f 29/29/29 30/30/30 28/28/28
f 30/30/30 29/29/29 31/31/31
f 32/32/32 31/31/31 29/29/29
f 31/31/31 32/32/32 33/33/33
f 33/33/33 34/34/34 31/31/31
f 34/34/34 33/33/33 35/35/35
f 35/35/35 36/36/36 34/34/34
f 36/36/36 35/35/35 37/37/37
f 37/37/37 38/38/38 36/36/36
f 39/39/39 38/38/38 37/37/37
f 37/37/37 40/40/40 39/39/39
f 41/41/41 39/39/39 40/40/40
f 40/40/40 42/42/42 41/41/41
f 43/43/43 41/41/41 42/42/42
f 42/42/42 44/44/44 43/43/43
f 43/43/43 44/44/44 45/45/45
f 45/45/45 46/46/46 43/43/43
f 47/47/47 46/46/46 45/45/45
f 45/45/45 48/48/48 47/47/47
f 47/47/47 48/48/48 49/49/49
f 49/49/49 50/50/50 47/47/47
f 50/50/50 49/49/49 51/51/51
f 52/52/52 51/51/51 49/49/49
f 51/51/51 52/52/52 53/53/53
f 53/53/53 54/54/54 51/51/51
f 55/55/55 54/54/54 53/53/53
f 56/56/56 55/55/55 53/53/53
f 55/55/55 56/56/56 57/57/57
f 57/57/57 58/58/58 55/55/55
f 59/59/59 58/58/58 57/57/57
f 57/57/57 60/60/60 59/59/59
f 61/61/61 59/59/59 60/60/60
f 60/60/60 62/62/62 61/61/61
f 63/63/63 61/61/61 62/62/62
f 62/62/62 64/64/64 63/63/63
f 63/63/63 64/64/64 65/65/65
f 65/65/65 66/66/66 63/63/63
f 69/69/69 68/68/68 67/67/67
f 67/67/67 70/70/70 69/69/69
f 71/71/71 68/68/68 69/69/69
f 69/69/69 72/72/72 71/71/71
f 72/72/72 73/73/73 71/71/71
f 74/74/74 73/73/73 72/72/72
f 73/73/73 74/74/74 75/75/75
f 75/75/75 76/76/76 73/73/73
f 75/75/75 77/77/77 76/76/76
f 77/77/77 75/75/75 78/78/78
f 79/79/79 77/77/77 78/78/78
f 79/79/79 78/78/78 80/80/80
f 81/81/81 79/79/79 80/80/80
f 81/81/81 80/80/80 82/82/82
f 81/81/81 82/82/82 83/83/83
f 83/83/83 84/84/84 81/81/81
f 85/85/85 84/84/84 83/83/83
f 83/83/83 86/86/86 85/85/85
f 87/87/87 85/85/85 86/86/86
f 86/86/86 88/88/88 87/87/87
f 89/89/89 87/87/87 88/88/88
f 88/88/88 90/90/90 89/89/89
f 91/91/91 89/89/89 90/90/90
f 90/90/90 92/92/92 91/91/91
f 91/91/91 92/92/92 93/93/93
f 93/93/93 94/94/94 91/91/91
f 93/93/93 95/95/95 94/94/94
f 96/96/96 95/95/95 93/93/93
f 96/96/96 97/97/97 95/95/95
f 98/98/98 97/97/97 96/96/96
f 97/97/97 98/98/98 99/99/99
f 99/99/99 100/100/100 97/97/97
f 100/100/100 99/99/99 101/101/101
f 101/101/101 102/102/102 100/100/100
f 102/102/102 101/101/101 103/103/103
f 103/103/103 104/104/104 102/102/102
f 105/105/105 104/104/104 103/103/103
f 103/103/103 106/106/106 105/105/105
f 105/105/105 106/106/106 107/107/107
f 107/107/107 108/108/108 105/105/105
f 108/108/108 107/107/107 109/109/109
f 109/109/109 110/110/110 108/108/108
f 111/111/111 110/110/110 109/109/109
f 109/109/109 112/112/112 111/111/111
f 113/113/113 111/111/111 112/112/112
f 112/112/112 114/114/114 113/113/113
f 113/113/113 114/114/114 115/115/115
f 115/115/115 116/116/116 113/113/113
f 116/116/116 115/115/115 117/117/117
f 117/117/117 118/118/118 116/116/116
f 118/118/118 117/117/117 119/119/119
f 119/119/119 120/120/120 118/118/118
f 119/119/119 121/121/121 120/120/120
f 121/121/121 119/119/119 122/122/122
f 121/121/121 122/122/122 123/123/123
f 123/123/123 124/124/124 121/121/121
f 125/125/125 124/124/124 123/123/123
f 123/123/123 126/126/126 125/125/125
f 127/127/127 125/125/125 126/126/126
f 126/126/126 128/128/128 127/127/127
f 129/129/129 127/127/127 128/128/128
f 128/128/128 130/130/130 129/129/129
f 129/129/129 130/130/130 131/131/131
f 131/131/131 132/132/132 129/129/129
