g pCylinder1
v 0.9510571 -1 -0.3090172
v 0.8090175 -1 -0.5877856
v 0.5877856 -1 -0.8090175
v 0.3090172 -1 -0.951057
v 0 -1 -1
v -0.3090172 -1 -0.951057
v -0.5877855 -1 -0.8090173
v -0.8090172 -1 -0.5877854
v -0.9510568 -1 -0.3090171
v -1 -1 0
v -0.9510568 -1 0.3090171
v -0.8090172 -1 0.5877854
v -0.5877854 -1 0.8090171
v -0.3090171 -1 0.9510567
v -2.980232E-08 -1 1
v 0.309017 -1 0.9510566
v 0.5877852 -1 0.8090171
v 0.809017 -1 0.5877853
v 0.9510565 -1 0.309017
v 1 -1 0
v 0.9510571 1 -0.3090172
v 0.8090175 1 -0.5877856
v 0.5877856 1 -0.8090175
v 0.3090172 1 -0.951057
v 0 1 -1
v -0.3090172 1 -0.951057
v -0.5877855 1 -0.8090173
v -0.8090172 1 -0.5877854
v -0.9510568 1 -0.3090171
v -1 1 0
v -0.9510568 1 0.3090171
v -0.8090172 1 0.5877854
v -0.5877854 1 0.8090171
v -0.3090171 1 0.9510567
v -2.980232E-08 1 1
v 0.309017 1 0.9510566
v 0.5877852 1 0.8090171
v 0.809017 1 0.5877853
v 0.9510565 1 0.309017
v 1 1 0
v 0 -1 0
v 0 1 0
v 0.9510571 1 -0.3090172
v 0.9510571 -1 -0.3090172
v 0.8090175 -1 -0.5877856
v 0.9510571 -1 -0.3090172
v 0.5877856 -1 -0.8090175
v 0 -1 0
v 0.3090172 -1 -0.951057
v 0 -1 0
v 0 -1 -1
v 0 -1 0
v -0.3090172 -1 -0.951057
v 0 -1 0
v -0.5877855 -1 -0.8090173
v 0 -1 0
v -0.8090172 -1 -0.5877854
v 0 -1 0
v -0.9510568 -1 -0.3090171
v 0 -1 0
v -1 -1 0
v 0 -1 0
v -0.9510568 -1 0.3090171
v 0 -1 0
v -0.8090172 -1 0.5877854
v 0 -1 0
v -0.5877854 -1 0.8090171
v 0 -1 0
v -0.3090171 -1 0.9510567
v 0 -1 0
v -2.980232E-08 -1 1
v 0 -1 0
v 0.309017 -1 0.9510566
v 0 -1 0
v 0.5877852 -1 0.8090171
v 0 -1 0
v 0.809017 -1 0.5877853
v 0 -1 0
v 0.9510565 -1 0.309017
v 0 -1 0
v 1 -1 0
v 0 -1 0
v 0.9510571 -1 -0.3090172
v 0 -1 0
v 0.9510571 1 -0.3090172
v 0.8090175 1 -0.5877856
v 0 1 0
v 0.5877856 1 -0.8090175
v 0 1 0
v 0.3090172 1 -0.951057
v 0 1 0
v 0 1 -1
v 0 1 0
v -0.3090172 1 -0.951057
v 0 1 0
v -0.5877855 1 -0.8090173
v 0 1 0
v -0.8090172 1 -0.5877854
v 0 1 0
v -0.9510568 1 -0.3090171
v 0 1 0
v -1 1 0
v 0 1 0
v -0.9510568 1 0.3090171
v 0 1 0
v -0.8090172 1 0.5877854
v 0 1 0
v -0.5877854 1 0.8090171
v 0 1 0
v -0.3090171 1 0.9510567
v 0 1 0
v -2.980232E-08 1 1
v 0 1 0
v 0.309017 1 0.9510566
v 0 1 0
v 0.5877852 1 0.8090171
v 0 1 0
v 0.809017 1 0.5877853
v 0 1 0
v 0.9510565 1 0.309017
v 0 1 0
v 1 1 0
v 0 1 0
v 0.9510571 1 -0.3090172
vt 0 0.1591549
vt 0.05 0.1591549
vt 0.1 0.1591549
vt 0.15 0.1591549
vt 0.2 0.1591549
vt 0.25 0.1591549
vt 0.3 0.1591549
vt 0.35 0.1591549
vt 0.4 0.1591549
vt 0.45 0.1591549
vt 0.5000001 0.1591549
vt 0.5500001 0.1591549
vt 0.6000001 0.1591549
vt 0.6500001 0.1591549
vt 0.7000001 0.1591549
vt 0.7500001 0.1591549
vt 0.8000001 0.1591549
vt 0.8500001 0.1591549
vt 0.9000002 0.1591549
vt 0.9500002 0.1591549
vt 0 0.4774648
vt 0.05 0.4774648
vt 0.1 0.4774648
vt 0.15 0.4774648
vt 0.2 0.4774648
vt 0.25 0.4774648
vt 0.3 0.4774648
vt 0.35 0.4774648
vt 0.4 0.4774648
vt 0.45 0.4774648
vt 0.5000001 0.4774648
vt 0.5500001 0.4774648
vt 0.6000001 0.4774648
vt 0.6500001 0.4774648
vt 0.7000001 0.4774648
vt 0.7500001 0.4774648
vt 0.8000001 0.4774648
vt 0.8500001 0.4774648
vt 0.9000002 0.4774648
vt 0.9500002 0.4774648
vt 0.5 0
vt 0.5 0.6366197
vt 1 0.4774648
vt 1 0.1591549
vt 0.05 0.1591549
vt 0 0.1591549
vt 0.1 0.1591549
vt 0.5 0
vt 0.15 0.1591549
vt 0.5 0
vt 0.2 0.1591549
vt 0.5 0
vt 0.25 0.1591549
vt 0.5 0
vt 0.3 0.1591549
vt 0.5 0
vt 0.35 0.1591549
vt 0.5 0
vt 0.4 0.1591549
vt 0.5 0
vt 0.45 0.1591549
vt 0.5 0
vt 0.5000001 0.1591549
vt 0.5 0
vt 0.5500001 0.1591549
vt 0.5 0
vt 0.6000001 0.1591549
vt 0.5 0
vt 0.6500001 0.1591549
vt 0.5 0
vt 0.7000001 0.1591549
vt 0.5 0
vt 0.7500001 0.1591549
vt 0.5 0
vt 0.8000001 0.1591549
vt 0.5 0
vt 0.8500001 0.1591549
vt 0.5 0
vt 0.9000002 0.1591549
vt 0.5 0
vt 0.9500002 0.1591549
vt 0.5 0
vt 1 0.1591549
vt 0.5 0
vt 0 0.4774648
vt 0.05 0.4774648
vt 0.5 0.6366197
vt 0.1 0.4774648
vt 0.5 0.6366197
vt 0.15 0.4774648
vt 0.5 0.6366197
vt 0.2 0.4774648
vt 0.5 0.6366197
vt 0.25 0.4774648
vt 0.5 0.6366197
vt 0.3 0.4774648
vt 0.5 0.6366197
vt 0.35 0.4774648
vt 0.5 0.6366197
vt 0.4 0.4774648
vt 0.5 0.6366197
vt 0.45 0.4774648
vt 0.5 0.6366197
vt 0.5000001 0.4774648
vt 0.5 0.6366197
vt 0.5500001 0.4774648
vt 0.5 0.6366197
vt 0.6000001 0.4774648
vt 0.5 0.6366197
vt 0.6500001 0.4774648
vt 0.5 0.6366197
vt 0.7000001 0.4774648
vt 0.5 0.6366197
vt 0.7500001 0.4774648
vt 0.5 0.6366197
vt 0.8000001 0.4774648
vt 0.5 0.6366197
vt 0.8500001 0.4774648
vt 0.5 0.6366197
vt 0.9000002 0.4774648
vt 0.5 0.6366197
vt 0.9500002 0.4774648
vt 0.5 0.6366197
vt 1 0.4774648
vn 0.9510568 0 -0.309016
vn 0.809017 0 -0.5877852
vn 0.5877851 0 -0.8090171
vn 0.3090168 0 -0.9510565
vn 0 0 -1
vn -0.3090171 0 -0.9510565
vn -0.5877855 0 -0.8090168
vn -0.8090171 0 -0.5877851
vn -0.9510565 0 -0.3090169
vn -1 0 0
vn -0.9510565 0 0.309017
vn -0.8090169 0 0.5877854
vn -0.5877852 0 0.8090171
vn -0.3090169 0 0.9510565
vn 0 0 1
vn 0.3090171 0 0.9510565
vn 0.5877852 0 0.809017
vn 0.809017 0 0.5877852
vn 0.9510565 0 0.3090169
vn 1 0 0
vn 0.9510568 0 -0.309016
vn 0.809017 0 -0.5877852
vn 0.5877851 0 -0.8090171
vn 0.3090168 0 -0.9510565
vn 0 0 -1
vn -0.3090171 0 -0.9510565
vn -0.5877855 0 -0.8090168
vn -0.8090171 0 -0.5877851
vn -0.9510565 0 -0.3090169
vn -1 0 0
vn -0.9510565 0 0.309017
vn -0.8090169 0 0.5877854
vn -0.5877852 0 0.8090171
vn -0.3090169 0 0.9510565
vn 0 0 1
vn 0.3090171 0 0.9510565
vn 0.5877852 0 0.809017
vn 0.809017 0 0.5877852
vn 0.9510565 0 0.3090169
vn 1 0 0
vn 0 -1 0
vn 0 1 0
vn 0.9510568 0 -0.309016
vn 0.9510568 0 -0.309016
vn 0 -1 0
vn 0 -1 0
vn 0 -1 0
vn 0 -1 0
vn 0 -1 0
vn 0 -1 0
vn 0 -1 0
vn 0 -1 0
vn 0 -1 0
vn 0 -1 0
vn 0 -1 0
vn 0 -1 0
vn 0 -1 0
vn 0 -1 0
vn 0 -1 0
vn 0 -1 0
vn 0 -1 0
vn 0 -1 0
vn 0 -1 0
vn 0 -1 0
vn 0 -1 0
vn 0 -1 0
vn 0 -1 0
vn 0 -1 0
vn 0 -1 0
vn 0 -1 0
vn 0 -1 0
vn 0 -1 0
vn 0 -1 0
vn 0 -1 0
vn 0 -1 0
vn 0 -1 0
vn 0 -1 0
vn 0 -1 0
vn 0 -1 0
vn 0 -1 0
vn 0 -1 0
vn 0 -1 0
vn 0 -1 0
vn 0 -1 0
vn 0 1 0
vn 0 1 0
vn 0 1 0
vn 0 1 0
vn 0 1 0
vn 0 1 0
vn 0 1 0
vn 0 1 0
vn 0 1 0
vn 0 1 0
vn 0 1 0
vn 0 1 0
vn 0 1 0
vn 0 1 0
vn 0 1 0
vn 0 1 0
vn 0 1 0
vn 0 1 0
vn 0 1 0
vn 0 1 0
vn 0 1 0
vn 0 1 0
vn 0 1 0
vn 0 1 0
vn 0 1 0
vn 0 1 0
vn 0 1 0
vn 0 1 0
vn 0 1 0
vn 0 1 0
vn 0 1 0
vn 0 1 0
vn 0 1 0
vn 0 1 0
vn 0 1 0
vn 0 1 0
vn 0 1 0
vn 0 1 0
vn 0 1 0
vn 0 1 0
g pCylinder1_0
f 22/22/22 21/21/21 1/1/1
f 2/2/2 22/22/22 1/1/1
f 23/23/23 22/22/22 2/2/2
f 3/3/3 23/23/23 2/2/2
f 24/24/24 23/23/23 3/3/3
f 4/4/4 24/24/24 3/3/3
f 25/25/25 24/24/24 4/4/4
f 5/5/5 25/25/25 4/4/4
f 26/26/26 25/25/25 5/5/5
f 6/6/6 26/26/26 5/5/5
f 27/27/27 26/26/26 6/6/6
f 7/7/7 27/27/27 6/6/6
f 28/28/28 27/27/27 7/7/7
f 8/8/8 28/28/28 7/7/7
f 29/29/29 28/28/28 8/8/8
f 9/9/9 29/29/29 8/8/8
f 30/30/30 29/29/29 9/9/9
f 10/10/10 30/30/30 9/9/9
f 31/31/31 30/30/30 10/10/10
f 11/11/11 31/31/31 10/10/10
f 32/32/32 31/31/31 11/11/11
f 12/12/12 32/32/32 11/11/11
f 33/33/33 32/32/32 12/12/12
f 13/13/13 33/33/33 12/12/12
f 34/34/34 33/33/33 13/13/13
f 14/14/14 34/34/34 13/13/13
f 35/35/35 34/34/34 14/14/14
f 15/15/15 35/35/35 14/14/14
f 36/36/36 35/35/35 15/15/15
f 16/16/16 36/36/36 15/15/15
f 37/37/37 36/36/36 16/16/16
f 17/17/17 37/37/37 16/16/16
f 38/38/38 37/37/37 17/17/17
f 18/18/18 38/38/38 17/17/17
f 39/39/39 38/38/38 18/18/18
f 19/19/19 39/39/39 18/18/18
f 40/40/40 39/39/39 19/19/19
f 20/20/20 40/40/40 19/19/19
f 43/43/43 40/40/40 20/20/20
f 44/44/44 43/43/43 20/20/20
f 46/46/46 41/41/41 45/45/45
f 45/45/45 48/48/48 47/47/47
f 47/47/47 50/50/50 49/49/49
f 49/49/49 52/52/52 51/51/51
f 51/51/51 54/54/54 53/53/53
f 53/53/53 56/56/56 55/55/55
f 55/55/55 58/58/58 57/57/57
f 57/57/57 60/60/60 59/59/59
f 59/59/59 62/62/62 61/61/61
f 61/61/61 64/64/64 63/63/63
f 63/63/63 66/66/66 65/65/65
f 65/65/65 68/68/68 67/67/67
f 67/67/67 70/70/70 69/69/69
f 69/69/69 72/72/72 71/71/71
f 71/71/71 74/74/74 73/73/73
f 73/73/73 76/76/76 75/75/75
f 75/75/75 78/78/78 77/77/77
f 77/77/77 80/80/80 79/79/79
f 79/79/79 82/82/82 81/81/81
f 81/81/81 84/84/84 83/83/83
f 86/86/86 42/42/42 85/85/85
f 88/88/88 87/87/87 86/86/86
f 90/90/90 89/89/89 88/88/88
f 92/92/92 91/91/91 90/90/90
f 94/94/94 93/93/93 92/92/92
f 96/96/96 95/95/95 94/94/94
f 98/98/98 97/97/97 96/96/96
f 100/100/100 99/99/99 98/98/98
f 102/102/102 101/101/101 100/100/100
f 104/104/104 103/103/103 102/102/102
f 106/106/106 105/105/105 104/104/104
f 108/108/108 107/107/107 106/106/106
f 110/110/110 109/109/109 108/108/108
f 112/112/112 111/111/111 110/110/110
f 114/114/114 113/113/113 112/112/112
f 116/116/116 115/115/115 114/114/114
f 118/118/118 117/117/117 116/116/116
f 120/120/120 119/119/119 118/118/118
f 122/122/122 121/121/121 120/120/120
f 124/124/124 123/123/123 122/122/122
