g petalMesh
v -0.0005362811 -0.0003965316 -0.0009950566
v -0.001612982 -8.807146E-05 -0.0005973669
v -0.001019049 -0.0002709217 -0.00117387
v -2.383197E-05 -0.0004874784 -0.0006221641
v -0.001787049 3.70344E-05 0.0003283441
v -0.001585485 -0.0001199346 0.001439089
v -0.0009824383 -0.0002388918 0.002276261
v 0.0001752138 -0.0002250147 0.002397035
v 0.001198384 0.0001650913 0.001577779
v 0.001805216 6.351734E-05 0.0006881513
v 0.001856053 -9.378516E-05 -1.034154E-05
v 0.0005529641 -0.0005225649 -0.0008011775
v 0.001346311 -0.0003596562 -0.0006368825
v 0.001618137 -0.0002496193 -0.0004946874
vn 0.2795476 0.9556585 -0.09257405
vn 0.2652913 0.9549605 -0.1329326
vn 0.2623384 0.9643083 -0.0358907
vn 0.08737504 0.9797678 -0.1800574
vn 0.3234189 0.9419154 -0.09052972
vn 0.45212 0.8862337 0.1008823
vn 0.212834 0.9769964 -0.01340179
vn -0.2203801 0.9720522 -0.08091352
vn -0.3639486 0.9271727 -0.08883838
vn -0.1185107 0.9477903 -0.2960554
vn -0.04470691 0.9543148 -0.2954397
vn -0.1152538 0.9459451 -0.3031574
vn -0.1585018 0.9489925 -0.2725627
vn -0.1149854 0.9524108 -0.2822981
g petalMesh_0
f 3/3/3 2/2/2 1/1/1
f 1/1/1 2/2/2 4/4/4
f 2/2/2 5/5/5 4/4/4
f 5/5/5 6/6/6 4/4/4
f 6/6/6 7/7/7 4/4/4
f 7/7/7 8/8/8 4/4/4
f 8/8/8 9/9/9 4/4/4
f 9/9/9 10/10/10 4/4/4
f 4/4/4 10/10/10 11/11/11
f 12/12/12 4/4/4 11/11/11
f 13/13/13 12/12/12 11/11/11
f 14/14/14 13/13/13 11/11/11
