g pokestop_far_unvisited_ring
v 0.2948275 -0.01 -0.09579527
v 0.2948275 0.01 -0.09579527
v 0.31 0.01 2.220446E-18
v 0.31 -0.01 -2.220446E-18
v 0.2507953 -0.01 -0.1822134
v 0.2507953 0.01 -0.1822134
v 0.1822134 -0.01 -0.2507953
v 0.1822134 0.01 -0.2507953
v 0.09579527 -0.01 -0.2948276
v 0.09579527 0.01 -0.2948276
v 0 -0.01 -0.3100001
v 0 0.01 -0.3100001
v -0.09579529 -0.01 -0.2948276
v -0.09579529 0.01 -0.2948276
v -0.1822135 -0.01 -0.2507953
v -0.1822135 0.01 -0.2507953
v -0.2507953 -0.01 -0.1822135
v -0.2507953 0.01 -0.1822135
v -0.2948276 -0.01 -0.09579529
v -0.2948276 0.01 -0.09579529
v -0.3100001 -0.01 9.536743E-09
v -0.3100001 0.01 9.536743E-09
v -0.2948276 -0.01 0.09579531
v -0.2948276 0.01 0.09579531
v -0.2507954 -0.01 0.1822135
v -0.2507954 0.01 0.1822135
v -0.1822135 -0.01 0.2507954
v -0.1822135 0.01 0.2507954
v -0.0957953 -0.01 0.2948277
v -0.0957953 0.01 0.2948277
v 9.536743E-09 -0.01 0.3100002
v 9.536743E-09 0.01 0.3100002
v 0.09579533 -0.01 0.2948277
v 0.09579533 0.01 0.2948277
v 0.1822135 -0.01 0.2507954
v 0.1822135 0.01 0.2507954
v 0.2507954 -0.01 0.1822135
v 0.2507954 0.01 0.1822135
v 0.2948277 -0.01 0.09579531
v 0.2948277 0.01 0.09579531
v 0.31 -0.01 -2.220446E-18
v 0.31 0.01 2.220446E-18
v 0.2948275 0.01 -0.09579527
v 0.3138487 0.01 -0.1019756
v 0.33 0.01 2.220446E-18
v 0.31 0.01 2.220446E-18
v 0.2507953 0.01 -0.1822134
v 0.2669756 0.01 -0.1939691
v 0.1822134 0.01 -0.2507953
v 0.1939691 0.01 -0.2669756
v 0.09579527 0.01 -0.2948276
v 0.1019756 0.01 -0.3138487
v 0 0.01 -0.3100001
v 9.536743E-09 0.01 -0.33
v -0.09579529 0.01 -0.2948276
v -0.1019756 0.01 -0.3138487
v -0.1822135 0.01 -0.2507953
v -0.1939691 0.01 -0.2669756
v -0.2507953 0.01 -0.1822135
v -0.2669756 0.01 -0.1939692
v -0.2948276 0.01 -0.09579529
v -0.3138487 0.01 -0.1019756
v -0.3100001 0.01 9.536743E-09
v -0.3300001 0.01 2.220446E-18
v -0.2948276 0.01 0.09579531
v -0.3138487 0.01 0.1019756
v -0.2507954 0.01 0.1822135
v -0.2669757 0.01 0.1939692
v -0.1822135 0.01 0.2507954
v -0.1939692 0.01 0.2669757
v -0.0957953 0.01 0.2948277
v -0.1019756 0.01 0.3138487
v 9.536743E-09 0.01 0.3100002
v 9.536743E-09 0.01 0.3300001
v 0.09579533 0.01 0.2948277
v 0.1019756 0.01 0.3138487
v 0.1822135 0.01 0.2507954
v 0.1939692 0.01 0.2669757
v 0.2507954 0.01 0.1822135
v 0.2669757 0.01 0.1939692
v 0.2948277 0.01 0.09579531
v 0.3138487 0.01 0.1019756
v 0.31 0.01 2.220446E-18
v 0.33 0.01 2.220446E-18
v 0.3138487 0.01 -0.1019756
v 0.3138487 -0.01 -0.1019756
v 0.33 -0.01 -2.220446E-18
v 0.33 0.01 2.220446E-18
v 0.2669756 0.01 -0.1939691
v 0.2669756 -0.01 -0.1939691
v 0.1939691 0.01 -0.2669756
v 0.1939691 -0.01 -0.2669756
v 0.1019756 0.01 -0.3138487
v 0.1019756 -0.01 -0.3138487
v 9.536743E-09 0.01 -0.33
v 9.536743E-09 -0.01 -0.33
v -0.1019756 0.01 -0.3138487
v -0.1019756 -0.01 -0.3138487
v -0.1939691 0.01 -0.2669756
v -0.1939691 -0.01 -0.2669756
v -0.2669756 0.01 -0.1939692
v -0.2669756 -0.01 -0.1939692
v -0.3138487 0.01 -0.1019756
v -0.3138487 -0.01 -0.1019756
v -0.3300001 0.01 2.220446E-18
v -0.3300001 -0.01 -2.220446E-18
v -0.3138487 0.01 0.1019756
v -0.3138487 -0.01 0.1019756
v -0.2669757 0.01 0.1939692
v -0.2669757 -0.01 0.1939692
v -0.1939692 0.01 0.2669757
v -0.1939692 -0.01 0.2669757
v -0.1019756 0.01 0.3138487
v -0.1019756 -0.01 0.3138487
v 9.536743E-09 0.01 0.3300001
v 9.536743E-09 -0.01 0.3300001
v 0.1019756 0.01 0.3138487
v 0.1019756 -0.01 0.3138487
v 0.1939692 0.01 0.2669757
v 0.1939692 -0.01 0.2669757
v 0.2669757 0.01 0.1939692
v 0.2669757 -0.01 0.1939692
v 0.3138487 0.01 0.1019756
v 0.3138487 -0.01 0.1019756
v 0.33 0.01 2.220446E-18
v 0.33 -0.01 -2.220446E-18
v 0.3138487 -0.01 -0.1019756
v 0.2948275 -0.01 -0.09579527
v 0.31 -0.01 -2.220446E-18
v 0.33 -0.01 -2.220446E-18
v 0.2669756 -0.01 -0.1939691
v 0.2507953 -0.01 -0.1822134
v 0.1939691 -0.01 -0.2669756
v 0.1822134 -0.01 -0.2507953
v 0.1019756 -0.01 -0.3138487
v 0.09579527 -0.01 -0.2948276
v 9.536743E-09 -0.01 -0.33
v 0 -0.01 -0.3100001
v -0.1019756 -0.01 -0.3138487
v -0.09579529 -0.01 -0.2948276
v -0.1939691 -0.01 -0.2669756
v -0.1822135 -0.01 -0.2507953
v -0.2669756 -0.01 -0.1939692
v -0.2507953 -0.01 -0.1822135
v -0.3138487 -0.01 -0.1019756
v -0.2948276 -0.01 -0.09579529
v -0.3300001 -0.01 -2.220446E-18
v -0.3100001 -0.01 9.536743E-09
v -0.3138487 -0.01 0.1019756
v -0.2948276 -0.01 0.09579531
v -0.2669757 -0.01 0.1939692
v -0.2507954 -0.01 0.1822135
v -0.1939692 -0.01 0.2669757
v -0.1822135 -0.01 0.2507954
v -0.1019756 -0.01 0.3138487
v -0.0957953 -0.01 0.2948277
v 9.536743E-09 -0.01 0.3300001
v 9.536743E-09 -0.01 0.3100002
v 0.1019756 -0.01 0.3138487
v 0.09579533 -0.01 0.2948277
v 0.1939692 -0.01 0.2669757
v 0.1822135 -0.01 0.2507954
v 0.2669757 -0.01 0.1939692
v 0.2507954 -0.01 0.1822135
v 0.3138487 -0.01 0.1019756
v 0.2948277 -0.01 0.09579531
v 0.33 -0.01 -2.220446E-18
v 0.31 -0.01 -2.220446E-18
vt 0.05 1
vt 0.05 0.75
vt 0 0.75
vt 0 1
vt 0.1 1
vt 0.1 0.75
vt 0.15 1
vt 0.15 0.75
vt 0.2 1
vt 0.2 0.75
vt 0.25 1
vt 0.25 0.75
vt 0.3 1
vt 0.3 0.75
vt 0.35 1
vt 0.35 0.75
vt 0.4 1
vt 0.4 0.75
vt 0.45 1
vt 0.45 0.75
vt 0.5000001 1
vt 0.5000001 0.75
vt 0.5500001 1
vt 0.5500001 0.75
vt 0.6000001 1
vt 0.6000001 0.75
vt 0.6500001 1
vt 0.6500001 0.75
vt 0.7000001 1
vt 0.7000001 0.75
vt 0.7500001 1
vt 0.7500001 0.75
vt 0.8000001 1
vt 0.8000001 0.75
vt 0.8500001 1
vt 0.8500001 0.75
vt 0.9000002 1
vt 0.9000002 0.75
vt 0.9500002 1
vt 0.9500002 0.75
vt 1 1
vt 1 0.75
vt 0.05 0.75
vt 0.05 0.5
vt 0 0.5
vt 0 0.75
vt 0.1 0.75
vt 0.1 0.5
vt 0.15 0.75
vt 0.15 0.5
vt 0.2 0.75
vt 0.2 0.5
vt 0.25 0.75
vt 0.25 0.5
vt 0.3 0.75
vt 0.3 0.5
vt 0.35 0.75
vt 0.35 0.5
vt 0.4 0.75
vt 0.4 0.5
vt 0.45 0.75
vt 0.45 0.5
vt 0.5000001 0.75
vt 0.5000001 0.5
vt 0.5500001 0.75
vt 0.5500001 0.5
vt 0.6000001 0.75
vt 0.6000001 0.5
vt 0.6500001 0.75
vt 0.6500001 0.5
vt 0.7000001 0.75
vt 0.7000001 0.5
vt 0.7500001 0.75
vt 0.7500001 0.5
vt 0.8000001 0.75
vt 0.8000001 0.5
vt 0.8500001 0.75
vt 0.8500001 0.5
vt 0.9000002 0.75
vt 0.9000002 0.5
vt 0.9500002 0.75
vt 0.9500002 0.5
vt 1 0.75
vt 1 0.5
vt 0.05 0.5
vt 0.05 0.25
vt 0 0.25
vt 0 0.5
vt 0.1 0.5
vt 0.1 0.25
vt 0.15 0.5
vt 0.15 0.25
vt 0.2 0.5
vt 0.2 0.25
vt 0.25 0.5
vt 0.25 0.25
vt 0.3 0.5
vt 0.3 0.25
vt 0.35 0.5
vt 0.35 0.25
vt 0.4 0.5
vt 0.4 0.25
vt 0.45 0.5
vt 0.45 0.25
vt 0.5000001 0.5
vt 0.5000001 0.25
vt 0.5500001 0.5
vt 0.5500001 0.25
vt 0.6000001 0.5
vt 0.6000001 0.25
vt 0.6500001 0.5
vt 0.6500001 0.25
vt 0.7000001 0.5
vt 0.7000001 0.25
vt 0.7500001 0.5
vt 0.7500001 0.25
vt 0.8000001 0.5
vt 0.8000001 0.25
vt 0.8500001 0.5
vt 0.8500001 0.25
vt 0.9000002 0.5
vt 0.9000002 0.25
vt 0.9500002 0.5
vt 0.9500002 0.25
vt 1 0.5
vt 1 0.25
vt 0.05 0.25
vt 0.05 0
vt 0 0
vt 0 0.25
vt 0.1 0.25
vt 0.1 0
vt 0.15 0.25
vt 0.15 0
vt 0.2 0.25
vt 0.2 0
vt 0.25 0.25
vt 0.25 0
vt 0.3 0.25
vt 0.3 0
vt 0.35 0.25
vt 0.35 0
vt 0.4 0.25
vt 0.4 0
vt 0.45 0.25
vt 0.45 0
vt 0.5000001 0.25
vt 0.5000001 0
vt 0.5500001 0.25
vt 0.5500001 0
vt 0.6000001 0.25
vt 0.6000001 0
vt 0.6500001 0.25
vt 0.6500001 0
vt 0.7000001 0.25
vt 0.7000001 0
vt 0.7500001 0.25
vt 0.7500001 0
vt 0.8000001 0.25
vt 0.8000001 0
vt 0.8500001 0.25
vt 0.8500001 0
vt 0.9000002 0.25
vt 0.9000002 0
vt 0.9500002 0.25
vt 0.9500002 0
vt 1 0.25
vt 1 0
vn -0.9510565 0 0.309017
vn -0.9510565 0 0.309017
vn -1 0 8.952092E-07
vn -1 0 8.952092E-07
vn -0.8090171 0 0.5877852
vn -0.8090171 0 0.5877852
vn -0.5877854 0 0.8090169
vn -0.5877854 0 0.8090169
vn -0.3090171 0 0.9510565
vn -0.3090171 0 0.9510565
vn 0 0 1
vn 0 0 1
vn 0.3090169 0 0.9510565
vn 0.3090169 0 0.9510565
vn 0.5877852 0 0.809017
vn 0.5877852 0 0.809017
vn 0.809017 0 0.5877852
vn 0.809017 0 0.5877852
vn 0.9510565 0 0.3090171
vn 0.9510565 0 0.3090171
vn 1 0 1.188331E-07
vn 1 0 1.188331E-07
vn 0.9510565 0 -0.309017
vn 0.9510565 0 -0.309017
vn 0.8090171 0 -0.5877852
vn 0.8090171 0 -0.5877852
vn 0.5877854 0 -0.8090169
vn 0.5877854 0 -0.8090169
vn 0.309017 0 -0.9510565
vn 0.309017 0 -0.9510565
vn 0 0 -1
vn 0 0 -1
vn -0.3090169 0 -0.9510565
vn -0.3090169 0 -0.9510565
vn -0.5877852 0 -0.8090171
vn -0.5877852 0 -0.8090171
vn -0.809017 0 -0.5877852
vn -0.809017 0 -0.5877852
vn -0.9510568 0 -0.3090161
vn -0.9510568 0 -0.3090161
vn -1 0 8.952092E-07
vn -1 0 8.952092E-07
vn 0 1 0
vn 0 1 0
vn 0 1 0
vn 0 1 0
vn 0 1 0
vn 0 1 0
vn 0 1 0
vn 0 1 0
vn 0 1 0
vn 0 1 0
vn 0 1 0
vn 0 1 0
vn 0 1 0
vn 0 1 0
vn 0 1 0
vn 0 1 0
vn 0 1 0
vn 0 1 0
vn 0 1 0
vn 0 1 0
vn 0 1 0
vn 0 1 0
vn 0 1 0
vn 0 1 0
vn 0 1 0
vn 0 1 0
vn 0 1 0
vn 0 1 0
vn 0 1 0
vn 0 1 0
vn 0 1 0
vn 0 1 0
vn 0 1 0
vn 0 1 0
vn 0 1 0
vn 0 1 0
vn 0 1 0
vn 0 1 0
vn 0 1 0
vn 0 1 0
vn 0 1 0
vn 0 1 0
vn 0.9510565 0 -0.3090169
vn 0.9510565 0 -0.3090169
vn 1 0 -3.646616E-07
vn 1 0 -3.646616E-07
vn 0.8090171 0 -0.5877852
vn 0.8090171 0 -0.5877852
vn 0.5877852 0 -0.809017
vn 0.5877852 0 -0.809017
vn 0.3090171 0 -0.9510565
vn 0.3090171 0 -0.9510565
vn 0 0 -1
vn 0 0 -1
vn -0.3090169 0 -0.9510565
vn -0.3090169 0 -0.9510565
vn -0.5877851 0 -0.8090171
vn -0.5877851 0 -0.8090171
vn -0.8090169 0 -0.5877853
vn -0.8090169 0 -0.5877853
vn -0.9510565 0 -0.3090171
vn -0.9510565 0 -0.3090171
vn -1 0 0
vn -1 0 0
vn -0.9510565 0 0.3090169
vn -0.9510565 0 0.3090169
vn -0.809017 0 0.5877852
vn -0.809017 0 0.5877852
vn -0.5877852 0 0.809017
vn -0.5877852 0 0.809017
vn -0.3090169 0 0.9510565
vn -0.3090169 0 0.9510565
vn 0 0 1
vn 0 0 1
vn 0.309017 0 0.9510565
vn 0.309017 0 0.9510565
vn 0.5877852 0 0.809017
vn 0.5877852 0 0.809017
vn 0.809017 0 0.5877852
vn 0.809017 0 0.5877852
vn 0.9510567 0 0.3090166
vn 0.9510567 0 0.3090166
vn 1 0 -3.646616E-07
vn 1 0 -3.646616E-07
vn 0 -1 0
vn 0 -1 0
vn 0 -1 0
vn 0 -1 0
vn 0 -1 0
vn 0 -1 0
vn 0 -1 0
vn 0 -1 0
vn 0 -1 0
vn 0 -1 0
vn 0 -1 0
vn 0 -1 0
vn 0 -1 0
vn 0 -1 0
vn 0 -1 0
vn 0 -1 0
vn 0 -1 0
vn 0 -1 0
vn 0 -1 0
vn 0 -1 0
vn 0 -1 0
vn 0 -1 0
vn 0 -1 0
vn 0 -1 0
vn 0 -1 0
vn 0 -1 0
vn 0 -1 0
vn 0 -1 0
vn 0 -1 0
vn 0 -1 0
vn 0 -1 0
vn 0 -1 0
vn 0 -1 0
vn 0 -1 0
vn 0 -1 0
vn 0 -1 0
vn 0 -1 0
vn 0 -1 0
vn 0 -1 0
vn 0 -1 0
vn 0 -1 0
vn 0 -1 0
g pokestop_far_unvisited_ring_0
f 3/3/3 2/2/2 1/1/1
f 4/4/4 3/3/3 1/1/1
f 1/1/1 2/2/2 5/5/5
f 2/2/2 6/6/6 5/5/5
f 5/5/5 6/6/6 7/7/7
f 6/6/6 8/8/8 7/7/7
f 7/7/7 8/8/8 9/9/9
f 8/8/8 10/10/10 9/9/9
f 9/9/9 10/10/10 11/11/11
f 10/10/10 12/12/12 11/11/11
f 11/11/11 12/12/12 13/13/13
f 12/12/12 14/14/14 13/13/13
f 13/13/13 14/14/14 15/15/15
f 14/14/14 16/16/16 15/15/15
f 15/15/15 16/16/16 17/17/17
f 16/16/16 18/18/18 17/17/17
f 17/17/17 18/18/18 19/19/19
f 18/18/18 20/20/20 19/19/19
f 19/19/19 20/20/20 21/21/21
f 20/20/20 22/22/22 21/21/21
f 21/21/21 22/22/22 23/23/23
f 22/22/22 24/24/24 23/23/23
f 23/23/23 24/24/24 25/25/25
f 24/24/24 26/26/26 25/25/25
f 25/25/25 26/26/26 27/27/27
f 26/26/26 28/28/28 27/27/27
f 27/27/27 28/28/28 29/29/29
f 28/28/28 30/30/30 29/29/29
f 29/29/29 30/30/30 31/31/31
f 30/30/30 32/32/32 31/31/31
f 31/31/31 32/32/32 33/33/33
f 32/32/32 34/34/34 33/33/33
f 33/33/33 34/34/34 35/35/35
f 34/34/34 36/36/36 35/35/35
f 35/35/35 36/36/36 37/37/37
f 36/36/36 38/38/38 37/37/37
f 37/37/37 38/38/38 39/39/39
f 38/38/38 40/40/40 39/39/39
f 39/39/39 40/40/40 41/41/41
f 40/40/40 42/42/42 41/41/41
f 45/45/45 44/44/44 43/43/43
f 46/46/46 45/45/45 43/43/43
f 43/43/43 44/44/44 47/47/47
f 44/44/44 48/48/48 47/47/47
f 47/47/47 48/48/48 49/49/49
f 48/48/48 50/50/50 49/49/49
f 49/49/49 50/50/50 51/51/51
f 50/50/50 52/52/52 51/51/51
f 51/51/51 52/52/52 53/53/53
f 52/52/52 54/54/54 53/53/53
f 53/53/53 54/54/54 55/55/55
f 54/54/54 56/56/56 55/55/55
f 55/55/55 56/56/56 57/57/57
f 56/56/56 58/58/58 57/57/57
f 57/57/57 58/58/58 59/59/59
f 58/58/58 60/60/60 59/59/59
f 59/59/59 60/60/60 61/61/61
f 60/60/60 62/62/62 61/61/61
f 61/61/61 62/62/62 63/63/63
f 62/62/62 64/64/64 63/63/63
f 63/63/63 64/64/64 65/65/65
f 64/64/64 66/66/66 65/65/65
f 65/65/65 66/66/66 67/67/67
f 66/66/66 68/68/68 67/67/67
f 67/67/67 68/68/68 69/69/69
f 68/68/68 70/70/70 69/69/69
f 69/69/69 70/70/70 71/71/71
f 70/70/70 72/72/72 71/71/71
f 71/71/71 72/72/72 73/73/73
f 72/72/72 74/74/74 73/73/73
f 73/73/73 74/74/74 75/75/75
f 74/74/74 76/76/76 75/75/75
f 75/75/75 76/76/76 77/77/77
f 76/76/76 78/78/78 77/77/77
f 77/77/77 78/78/78 79/79/79
f 78/78/78 80/80/80 79/79/79
f 79/79/79 80/80/80 81/81/81
f 80/80/80 82/82/82 81/81/81
f 81/81/81 82/82/82 83/83/83
f 82/82/82 84/84/84 83/83/83
f 87/87/87 86/86/86 85/85/85
f 88/88/88 87/87/87 85/85/85
f 85/85/85 86/86/86 89/89/89
f 86/86/86 90/90/90 89/89/89
f 89/89/89 90/90/90 91/91/91
f 90/90/90 92/92/92 91/91/91
f 91/91/91 92/92/92 93/93/93
f 92/92/92 94/94/94 93/93/93
f 93/93/93 94/94/94 95/95/95
f 94/94/94 96/96/96 95/95/95
f 95/95/95 96/96/96 97/97/97
f 96/96/96 98/98/98 97/97/97
f 97/97/97 98/98/98 99/99/99
f 98/98/98 100/100/100 99/99/99
f 99/99/99 100/100/100 101/101/101
f 100/100/100 102/102/102 101/101/101
f 101/101/101 102/102/102 103/103/103
f 102/102/102 104/104/104 103/103/103
f 103/103/103 104/104/104 105/105/105
f 104/104/104 106/106/106 105/105/105
f 105/105/105 106/106/106 107/107/107
f 106/106/106 108/108/108 107/107/107
f 107/107/107 108/108/108 109/109/109
f 108/108/108 110/110/110 109/109/109
f 109/109/109 110/110/110 111/111/111
f 110/110/110 112/112/112 111/111/111
f 111/111/111 112/112/112 113/113/113
f 112/112/112 114/114/114 113/113/113
f 113/113/113 114/114/114 115/115/115
f 114/114/114 116/116/116 115/115/115
f 115/115/115 116/116/116 117/117/117
f 116/116/116 118/118/118 117/117/117
f 117/117/117 118/118/118 119/119/119
f 118/118/118 120/120/120 119/119/119
f 119/119/119 120/120/120 121/121/121
f 120/120/120 122/122/122 121/121/121
f 121/121/121 122/122/122 123/123/123
f 122/122/122 124/124/124 123/123/123
f 123/123/123 124/124/124 125/125/125
f 124/124/124 126/126/126 125/125/125
f 129/129/129 128/128/128 127/127/127
f 130/130/130 129/129/129 127/127/127
f 127/127/127 128/128/128 131/131/131
f 128/128/128 132/132/132 131/131/131
f 131/131/131 132/132/132 133/133/133
f 132/132/132 134/134/134 133/133/133
f 133/133/133 134/134/134 135/135/135
f 134/134/134 136/136/136 135/135/135
f 135/135/135 136/136/136 137/137/137
f 136/136/136 138/138/138 137/137/137
f 137/137/137 138/138/138 139/139/139
f 138/138/138 140/140/140 139/139/139
f 139/139/139 140/140/140 141/141/141
f 140/140/140 142/142/142 141/141/141
f 141/141/141 142/142/142 143/143/143
f 142/142/142 144/144/144 143/143/143
f 143/143/143 144/144/144 145/145/145
f 144/144/144 146/146/146 145/145/145
f 145/145/145 146/146/146 147/147/147
f 146/146/146 148/148/148 147/147/147
f 147/147/147 148/148/148 149/149/149
f 148/148/148 150/150/150 149/149/149
f 149/149/149 150/150/150 151/151/151
f 150/150/150 152/152/152 151/151/151
f 151/151/151 152/152/152 153/153/153
f 152/152/152 154/154/154 153/153/153
f 153/153/153 154/154/154 155/155/155
f 154/154/154 156/156/156 155/155/155
f 155/155/155 156/156/156 157/157/157
f 156/156/156 158/158/158 157/157/157
f 157/157/157 158/158/158 159/159/159
f 158/158/158 160/160/160 159/159/159
f 159/159/159 160/160/160 161/161/161
f 160/160/160 162/162/162 161/161/161
f 161/161/161 162/162/162 163/163/163
f 162/162/162 164/164/164 163/163/163
f 163/163/163 164/164/164 165/165/165
f 164/164/164 166/166/166 165/165/165
f 165/165/165 166/166/166 167/167/167
f 166/166/166 168/168/168 167/167/167
