g pokestop_ia_arc_top
v -56.44871 119.0007 -8.149031
v -44.48327 117.6715 -8.149006
v -44.48328 117.6715 8.148893
v -56.44872 119.0007 8.14887
v -27.14311 113.7138 8.148934
v -27.1431 113.7138 -8.148966
v -10.5868 107.2159 8.148898
v -10.5868 107.2159 -8.148919
v 4.816088 98.32291 8.148889
v 4.816094 98.32298 -8.148889
v 18.72173 87.23365 8.148922
v 18.72173 87.23364 -8.148897
v 30.81917 74.1957 8.148815
v 30.81918 74.1957 -8.148922
v 40.83842 59.50029 8.148872
v 40.83843 59.50032 -8.149027
v 48.55536 43.47581 8.148927
v 48.55537 43.4758 -8.148972
v 53.79782 26.48014 8.148983
v 53.79783 26.48013 -8.148917
v 56.44867 8.892915 8.149035
v 56.44868 8.892906 -8.148867
v 56.44864 -8.892976 8.148757
v 56.44865 -8.892947 -8.148819
v 53.79786 -26.48018 8.1488
v 53.79787 -26.48017 -8.148778
v 48.55536 -43.47586 8.148835
v 48.55537 -43.47586 -8.148743
v 40.83828 -59.50037 8.148864
v 40.83828 -59.50038 -8.149036
v 30.81917 -74.19576 8.148884
v 30.81918 -74.19574 -8.148853
v 18.72173 -87.2337 8.148898
v 18.72173 -87.2337 -8.148922
v 4.816088 -98.32299 8.148903
v 4.816094 -98.323 -8.148896
v -10.5868 -107.2159 8.1489
v -10.5868 -107.2159 -8.14892
v -27.14311 -113.7138 8.148888
v -27.1431 -113.7138 -8.14885
v -44.48328 -117.6716 8.148868
v -44.48327 -117.6715 -8.149032
v -56.44872 -119.0007 8.14885
v -56.44871 -119.0007 -8.14905
v -56.44872 119.0007 8.14887
v -44.48328 117.6715 8.148893
v -53.21563 59.73507 8.14903
v -56.44872 60.40979 8.149022
v -44.41311 57.72594 8.149051
v -27.14311 113.7138 8.148934
v -36.00843 54.42737 8.148912
v -10.5868 107.2159 8.148898
v -28.18923 49.91288 8.148939
v 4.816088 98.32291 8.148889
v -21.13013 44.28349 8.148965
v 18.72173 87.23365 8.148922
v -14.98894 37.66486 8.148912
v 30.81917 74.1957 8.148815
v -9.902827 30.20492 8.148902
v 40.83842 59.50029 8.148872
v -5.985334 22.07018 8.14889
v 48.55536 43.47581 8.148927
v -3.324065 13.44241 8.148896
v 53.79782 26.48014 8.148983
v -1.978337 4.514382 8.148892
v 56.44867 8.892915 8.149035
v -1.978374 -4.514442 8.148897
v 56.44864 -8.892976 8.148757
v -3.324028 -13.44247 8.148887
v 53.79786 -26.48018 8.1488
v -5.985334 -22.07022 8.148886
v 48.55536 -43.47586 8.148835
v -9.902864 -30.20492 8.1489
v 40.83828 -59.50037 8.148864
v -14.98894 -37.66494 8.14887
v 30.81917 -74.19576 8.148884
v -21.13013 -44.28354 8.148877
v 18.72173 -87.2337 8.148898
v -28.18923 -49.91296 8.148879
v 4.816088 -98.32299 8.148903
v -36.0085 -54.42738 8.148877
v -10.5868 -107.2159 8.1489
v -44.41311 -57.72598 8.149034
v -27.14311 -113.7138 8.148888
v -53.21563 -59.73511 8.149022
v -44.48328 -117.6716 8.148868
v -56.44872 -60.40984 8.149019
v -56.44872 -119.0007 8.14885
v -56.44872 60.40979 8.149022
v -53.21563 59.73507 8.14903
v -53.21563 59.73506 -8.14887
v -56.44871 60.40978 -8.148877
v -44.4131 57.72597 -8.148849
v -44.41311 57.72594 8.149051
v -36.00842 54.42736 -8.148825
v -36.00843 54.42737 8.148912
v -28.18922 49.91295 -8.14896
v -28.18923 49.91288 8.148939
v -21.13012 44.28352 -8.148933
v -21.13013 44.28349 8.148965
v -14.98894 37.66489 -8.148907
v -14.98894 37.66486 8.148912
v -9.902822 30.20491 -8.148876
v -9.902827 30.20492 8.148902
v -5.985328 22.07016 -8.14889
v -5.985334 22.07018 8.14889
v -3.324059 13.44244 -8.148901
v -3.324065 13.44241 8.148896
v -1.978331 4.51441 -8.148897
v -1.978337 4.514382 8.148892
v -1.978368 -4.514452 -8.148893
v -1.978374 -4.514442 8.148897
v -3.324023 -13.44248 -8.148892
v -3.324028 -13.44247 8.148887
v -5.985328 -22.07021 -8.148894
v -5.985334 -22.07022 8.148886
v -9.902858 -30.20493 -8.148879
v -9.902864 -30.20492 8.1489
v -14.98894 -37.66493 -8.14887
v -14.98894 -37.66494 8.14887
v -21.13012 -44.28355 -8.148862
v -21.13013 -44.28354 8.148877
v -28.18922 -49.91295 -8.148859
v -28.18923 -49.91296 8.148879
v -36.0085 -54.42738 -8.148862
v -36.0085 -54.42738 8.148877
v -44.41325 -57.72599 -8.148868
v -44.41311 -57.72598 8.149034
v -53.21563 -59.7351 -8.148877
v -53.21563 -59.73511 8.149022
v -56.44871 -60.40983 -8.148881
v -56.44872 -60.40984 8.149019
v -56.44871 60.40978 -8.148877
v -53.21563 59.73506 -8.14887
v -44.48327 117.6715 -8.149006
v -56.44871 119.0007 -8.149031
v -27.1431 113.7138 -8.148966
v -44.4131 57.72597 -8.148849
v -10.5868 107.2159 -8.148919
v -36.00842 54.42736 -8.148825
v 4.816094 98.32298 -8.148889
v -28.18922 49.91295 -8.14896
v 18.72173 87.23364 -8.148897
v -21.13012 44.28352 -8.148933
v 30.81918 74.1957 -8.148922
v -14.98894 37.66489 -8.148907
v 40.83843 59.50032 -8.149027
v -9.902822 30.20491 -8.148876
v 48.55537 43.4758 -8.148972
v -5.985328 22.07016 -8.14889
v 53.79783 26.48013 -8.148917
v -3.324059 13.44244 -8.148901
v 56.44868 8.892906 -8.148867
v -1.978331 4.51441 -8.148897
v 56.44865 -8.892947 -8.148819
v -1.978368 -4.514452 -8.148893
v 53.79787 -26.48017 -8.148778
v -3.324023 -13.44248 -8.148892
v 48.55537 -43.47586 -8.148743
v -5.985328 -22.07021 -8.148894
v 40.83828 -59.50038 -8.149036
v -9.902858 -30.20493 -8.148879
v 30.81918 -74.19574 -8.148853
v -14.98894 -37.66493 -8.14887
v 18.72173 -87.2337 -8.148922
v -21.13012 -44.28355 -8.148862
v 4.816094 -98.323 -8.148896
v -28.18922 -49.91295 -8.148859
v -10.5868 -107.2159 -8.14892
v -36.0085 -54.42738 -8.148862
v -27.1431 -113.7138 -8.14885
v -44.41325 -57.72599 -8.148868
v -44.48327 -117.6715 -8.149032
v -53.21563 -59.7351 -8.148877
v -56.44871 -119.0007 -8.14905
v -56.44871 -60.40983 -8.148881
v -56.44872 60.40979 8.149022
v -56.44871 60.40978 -8.148877
v -56.44871 119.0007 -8.149031
v -56.44872 119.0007 8.14887
v -56.44871 -119.0007 -8.14905
v -56.44871 -60.40983 -8.148881
v -56.44872 -60.40984 8.149019
v -56.44872 -119.0007 8.14885
vt 0.1751042 0.5162486
vt 0.1787309 0.5488982
vt 0.1787309 0.5488982
vt 0.1751042 0.5162486
vt 0.1895301 0.5962126
vt 0.1895301 0.5962126
vt 0.2072605 0.641389
vt 0.2072605 0.6413889
vt 0.231526 0.6834182
vt 0.231526 0.6834182
vt 0.2617847 0.7213613
vt 0.2617847 0.7213613
vt 0.2973605 0.7543709
vt 0.2973605 0.7543709
vt 0.3374588 0.7817094
vt 0.3374588 0.7817094
vt 0.3811838 0.8027663
vt 0.3811838 0.8027663
vt 0.4275588 0.8170711
vt 0.4275588 0.8170711
vt 0.4755479 0.8243043
vt 0.4755479 0.8243043
vt 0.524079 0.8243043
vt 0.524079 0.8243043
vt 0.572068 0.8170711
vt 0.572068 0.8170711
vt 0.6184431 0.8027663
vt 0.6184431 0.8027663
vt 0.6621681 0.7817095
vt 0.6621681 0.7817094
vt 0.7022665 0.7543709
vt 0.7022665 0.7543709
vt 0.7378422 0.7213614
vt 0.7378422 0.7213614
vt 0.7681009 0.6834183
vt 0.7681009 0.6834182
vt 0.7923664 0.6413891
vt 0.7923664 0.6413891
vt 0.8100969 0.5962127
vt 0.8100969 0.5962127
vt 0.820896 0.5488984
vt 0.820896 0.5488983
vt 0.8245229 0.5162488
vt 0.8245229 0.5162487
vt 0.1751042 0.5162486
vt 0.1787309 0.5488982
vt 0.3368183 0.5250705
vt 0.3349772 0.5162486
vt 0.3423004 0.5490893
vt 0.1895301 0.5962126
vt 0.3513011 0.5720227
vt 0.2072605 0.641389
vt 0.3636193 0.5933585
vt 0.231526 0.6834182
vt 0.3789799 0.6126201
vt 0.2617847 0.7213613
vt 0.3970397 0.6293771
vt 0.2973605 0.7543709
vt 0.4173953 0.6432554
vt 0.3374588 0.7817094
vt 0.439592 0.6539447
vt 0.3811838 0.8027663
vt 0.4631339 0.6612064
vt 0.4275588 0.8170711
vt 0.4874952 0.6648783
vt 0.4755479 0.8243043
vt 0.5121317 0.6648783
vt 0.524079 0.8243043
vt 0.536493 0.6612065
vt 0.572068 0.8170711
vt 0.5600349 0.6539447
vt 0.6184431 0.8027663
vt 0.5822316 0.6432554
vt 0.6621681 0.7817095
vt 0.6025872 0.6293771
vt 0.7022665 0.7543709
vt 0.6206471 0.6126201
vt 0.7378422 0.7213614
vt 0.6360077 0.5933585
vt 0.7681009 0.6834183
vt 0.6483259 0.5720227
vt 0.7923664 0.6413891
vt 0.6573266 0.5490893
vt 0.8100969 0.5962127
vt 0.6628087 0.5250705
vt 0.820896 0.5488984
vt 0.6646498 0.5162488
vt 0.8245229 0.5162488
vt 0.3349772 0.5162486
vt 0.3368183 0.5250705
vt 0.3368183 0.5250704
vt 0.3349772 0.5162486
vt 0.3423004 0.5490892
vt 0.3423004 0.5490893
vt 0.3513011 0.5720227
vt 0.3513011 0.5720227
vt 0.3636193 0.5933585
vt 0.3636193 0.5933585
vt 0.3789799 0.6126201
vt 0.3789799 0.6126201
vt 0.3970397 0.6293771
vt 0.3970397 0.6293771
vt 0.4173953 0.6432554
vt 0.4173953 0.6432554
vt 0.439592 0.6539447
vt 0.439592 0.6539447
vt 0.4631339 0.6612064
vt 0.4631339 0.6612064
vt 0.4874952 0.6648783
vt 0.4874952 0.6648783
vt 0.5121317 0.6648783
vt 0.5121317 0.6648783
vt 0.536493 0.6612064
vt 0.536493 0.6612065
vt 0.5600349 0.6539447
vt 0.5600349 0.6539447
vt 0.5822316 0.6432554
vt 0.5822316 0.6432554
vt 0.6025872 0.6293771
vt 0.6025872 0.6293771
vt 0.620647 0.6126201
vt 0.6206471 0.6126201
vt 0.6360077 0.5933585
vt 0.6360077 0.5933585
vt 0.6483259 0.5720227
vt 0.6483259 0.5720227
vt 0.6573266 0.5490893
vt 0.6573266 0.5490893
vt 0.6628087 0.5250705
vt 0.6628087 0.5250705
vt 0.6646498 0.5162487
vt 0.6646498 0.5162488
vt 0.3349772 0.5162486
vt 0.3368183 0.5250704
vt 0.1787309 0.5488982
vt 0.1751042 0.5162486
vt 0.1895301 0.5962126
vt 0.3423004 0.5490892
vt 0.2072605 0.6413889
vt 0.3513011 0.5720227
vt 0.231526 0.6834182
vt 0.3636193 0.5933585
vt 0.2617847 0.7213613
vt 0.3789799 0.6126201
vt 0.2973605 0.7543709
vt 0.3970397 0.6293771
vt 0.3374588 0.7817094
vt 0.4173953 0.6432554
vt 0.3811838 0.8027663
vt 0.439592 0.6539447
vt 0.4275588 0.8170711
vt 0.4631339 0.6612064
vt 0.4755479 0.8243043
vt 0.4874952 0.6648783
vt 0.524079 0.8243043
vt 0.5121317 0.6648783
vt 0.572068 0.8170711
vt 0.536493 0.6612064
vt 0.6184431 0.8027663
vt 0.5600349 0.6539447
vt 0.6621681 0.7817094
vt 0.5822316 0.6432554
vt 0.7022665 0.7543709
vt 0.6025872 0.6293771
vt 0.7378422 0.7213614
vt 0.620647 0.6126201
vt 0.7681009 0.6834182
vt 0.6360077 0.5933585
vt 0.7923664 0.6413891
vt 0.6483259 0.5720227
vt 0.8100969 0.5962127
vt 0.6573266 0.5490893
vt 0.820896 0.5488983
vt 0.6628087 0.5250705
vt 0.8245229 0.5162487
vt 0.6646498 0.5162487
vt 0.3349772 0.5162486
vt 0.3349772 0.5162486
vt 0.1751042 0.5162486
vt 0.1751042 0.5162486
vt 0.8245229 0.5162487
vt 0.6646498 0.5162487
vt 0.6646498 0.5162488
vt 0.8245229 0.5162488
vn 0.1104049 0.9938866 0
vn 0.1667303 0.9860025 0
vn 0.1667303 0.9860025 0
vn 0.1104049 0.9938866 0
vn 0.2947542 0.9555731 0
vn 0.2947542 0.9555731 0
vn 0.4338867 0.9009675 0
vn 0.4338867 0.9009675 0
vn 0.5633203 0.8262386 0
vn 0.5633203 0.8262386 0
vn 0.6801715 0.733053 0
vn 0.6801715 0.733053 0
vn 0.7818301 0.6234915 0
vn 0.7818301 0.6234915 0
vn 0.866025 0.5000007 0
vn 0.866025 0.5000007 0
vn 0.9308743 0.3653396 0
vn 0.9308743 0.3653396 0
vn 0.9749279 0.2225209 0
vn 0.9749279 0.2225209 0
vn 0.9972038 0.0747293 0
vn 0.9972038 0.0747293 0
vn 0.9972038 -0.07472929 0
vn 0.9972038 -0.07472929 0
vn 0.9749281 -0.2225198 0
vn 0.9749281 -0.2225198 0
vn 0.9308727 -0.3653437 0
vn 0.9308727 -0.3653437 0
vn 0.8660247 -0.5000012 0
vn 0.8660247 -0.5000012 0
vn 0.781832 -0.6234891 0
vn 0.781832 -0.6234891 0
vn 0.6801715 -0.733053 0
vn 0.6801715 -0.733053 0
vn 0.5633201 -0.8262388 0
vn 0.5633201 -0.8262388 0
vn 0.433886 -0.9009678 0
vn 0.433886 -0.9009678 0
vn 0.2947542 -0.9555731 0
vn 0.2947542 -0.9555731 0
vn 0.1667297 -0.9860026 0
vn 0.1667297 -0.9860026 0
vn 0.1104022 -0.993887 0
vn 0.1104022 -0.993887 0
vn 0 0 1
vn 0 0 1
vn 0 0 1
vn 0 0 1
vn 0 0 1
vn 0 0 1
vn 0 0 1
vn 0 0 1
vn 0 0 1
vn 0 0 1
vn 0 0 1
vn 0 0 1
vn 0 0 1
vn 0 0 1
vn 0 0 1
vn 0 0 1
vn 0 0 1
vn 0 0 1
vn 0 0 1
vn 0 0 1
vn 0 0 1
vn 0 0 1
vn 0 0 1
vn 0 0 1
vn 0 0 1
vn 0 0 1
vn 0 0 1
vn 0 0 1
vn 0 0 1
vn 0 0 1
vn 0 0 1
vn 0 0 1
vn 0 0 1
vn 0 0 1
vn 0 0 1
vn 0 0 1
vn 0 0 1
vn 0 0 1
vn 0 0 1
vn 0 0 1
vn 0 0 1
vn 0 0 1
vn 0 0 1
vn 0 0 1
vn -0.2042926 -0.9789099 0
vn -0.2134155 -0.9769616 0
vn -0.2134155 -0.9769616 0
vn -0.2042926 -0.9789099 0
vn -0.2947547 -0.955573 0
vn -0.2947547 -0.955573 0
vn -0.433885 -0.9009683 0
vn -0.433885 -0.9009683 0
vn -0.5633199 -0.8262389 0
vn -0.5633199 -0.8262389 0
vn -0.6801718 -0.7330528 0
vn -0.6801718 -0.7330528 0
vn -0.7818317 -0.6234896 0
vn -0.7818317 -0.6234896 0
vn -0.8660252 -0.5000003 0
vn -0.8660252 -0.5000003 0
vn -0.9308743 -0.3653395 0
vn -0.9308743 -0.3653395 0
vn -0.9749278 -0.2225213 0
vn -0.9749278 -0.2225213 0
vn -0.9972038 -0.07473048 0
vn -0.9972038 -0.07473048 0
vn -0.9972038 0.07473052 0
vn -0.9972038 0.07473052 0
vn -0.9749283 0.2225195 0
vn -0.9749283 0.2225195 0
vn -0.9308726 0.3653438 0
vn -0.9308726 0.3653438 0
vn -0.8660256 0.4999997 0
vn -0.8660256 0.4999997 0
vn -0.781833 0.6234879 0
vn -0.781833 0.6234879 0
vn -0.6801713 0.7330531 0
vn -0.6801713 0.7330531 0
vn -0.5633177 0.8262404 0
vn -0.5633177 0.8262404 0
vn -0.4338827 0.9009693 0
vn -0.4338827 0.9009693 0
vn -0.2947567 0.9555724 0
vn -0.2947567 0.9555724 0
vn -0.2134169 0.9769612 0
vn -0.2134169 0.9769612 0
vn -0.2042926 0.9789099 0
vn -0.2042926 0.9789099 0
vn 0 0 -1
vn 0 0 -1
vn 0 0 -1
vn 0 0 -1
vn 0 0 -1
vn 0 0 -1
vn 0 0 -1
vn 0 0 -1
vn 0 0 -1
vn 0 0 -1
vn 0 0 -1
vn 0 0 -1
vn 0 0 -1
vn 0 0 -1
vn 0 0 -1
vn 0 0 -1
vn 0 0 -1
vn 0 0 -1
vn 0 0 -1
vn 0 0 -1
vn 0 0 -1
vn 0 0 -1
vn 0 0 -1
vn 0 0 -1
vn 0 0 -1
vn 0 0 -1
vn 0 0 -1
vn 0 0 -1
vn 0 0 -1
vn 0 0 -1
vn 0 0 -1
vn 0 0 -1
vn 0 0 -1
vn 0 0 -1
vn 0 0 -1
vn 0 0 -1
vn 0 0 -1
vn 0 0 -1
vn 0 0 -1
vn 0 0 -1
vn 0 0 -1
vn 0 0 -1
vn 0 0 -1
vn 0 0 -1
vn -1 0 0
vn -1 0 0
vn -1 0 0
vn -1 0 0
vn -1 0 0
vn -1 0 0
vn -1 0 0
vn -1 0 0
g pokestop_ia_arc_top_0
f 3/3/3 2/2/2 1/1/1
f 4/4/4 3/3/3 1/1/1
f 3/3/3 5/5/5 2/2/2
f 5/5/5 6/6/6 2/2/2
f 5/5/5 7/7/7 6/6/6
f 7/7/7 8/8/8 6/6/6
f 7/7/7 9/9/9 8/8/8
f 9/9/9 10/10/10 8/8/8
f 9/9/9 11/11/11 10/10/10
f 11/11/11 12/12/12 10/10/10
f 11/11/11 13/13/13 12/12/12
f 13/13/13 14/14/14 12/12/12
f 13/13/13 15/15/15 14/14/14
f 15/15/15 16/16/16 14/14/14
f 15/15/15 17/17/17 16/16/16
f 17/17/17 18/18/18 16/16/16
f 17/17/17 19/19/19 18/18/18
f 19/19/19 20/20/20 18/18/18
f 19/19/19 21/21/21 20/20/20
f 21/21/21 22/22/22 20/20/20
f 21/21/21 23/23/23 22/22/22
f 23/23/23 24/24/24 22/22/22
f 23/23/23 25/25/25 24/24/24
f 25/25/25 26/26/26 24/24/24
f 25/25/25 27/27/27 26/26/26
f 27/27/27 28/28/28 26/26/26
f 27/27/27 29/29/29 28/28/28
f 29/29/29 30/30/30 28/28/28
f 29/29/29 31/31/31 30/30/30
f 31/31/31 32/32/32 30/30/30
f 31/31/31 33/33/33 32/32/32
f 33/33/33 34/34/34 32/32/32
f 33/33/33 35/35/35 34/34/34
f 35/35/35 36/36/36 34/34/34
f 35/35/35 37/37/37 36/36/36
f 37/37/37 38/38/38 36/36/36
f 37/37/37 39/39/39 38/38/38
f 39/39/39 40/40/40 38/38/38
f 39/39/39 41/41/41 40/40/40
f 41/41/41 42/42/42 40/40/40
f 41/41/41 43/43/43 42/42/42
f 43/43/43 44/44/44 42/42/42
f 47/47/47 46/46/46 45/45/45
f 48/48/48 47/47/47 45/45/45
f 47/47/47 49/49/49 46/46/46
f 49/49/49 50/50/50 46/46/46
f 49/49/49 51/51/51 50/50/50
f 51/51/51 52/52/52 50/50/50
f 51/51/51 53/53/53 52/52/52
f 53/53/53 54/54/54 52/52/52
f 53/53/53 55/55/55 54/54/54
f 55/55/55 56/56/56 54/54/54
f 55/55/55 57/57/57 56/56/56
f 57/57/57 58/58/58 56/56/56
f 57/57/57 59/59/59 58/58/58
f 59/59/59 60/60/60 58/58/58
f 59/59/59 61/61/61 60/60/60
f 61/61/61 62/62/62 60/60/60
f 61/61/61 63/63/63 62/62/62
f 63/63/63 64/64/64 62/62/62
f 63/63/63 65/65/65 64/64/64
f 65/65/65 66/66/66 64/64/64
f 65/65/65 67/67/67 66/66/66
f 67/67/67 68/68/68 66/66/66
f 67/67/67 69/69/69 68/68/68
f 69/69/69 70/70/70 68/68/68
f 69/69/69 71/71/71 70/70/70
f 71/71/71 72/72/72 70/70/70
f 71/71/71 73/73/73 72/72/72
f 73/73/73 74/74/74 72/72/72
f 73/73/73 75/75/75 74/74/74
f 75/75/75 76/76/76 74/74/74
f 75/75/75 77/77/77 76/76/76
f 77/77/77 78/78/78 76/76/76
f 77/77/77 79/79/79 78/78/78
f 79/79/79 80/80/80 78/78/78
f 79/79/79 81/81/81 80/80/80
f 81/81/81 82/82/82 80/80/80
f 81/81/81 83/83/83 82/82/82
f 83/83/83 84/84/84 82/82/82
f 83/83/83 85/85/85 84/84/84
f 85/85/85 86/86/86 84/84/84
f 85/85/85 87/87/87 86/86/86
f 87/87/87 88/88/88 86/86/86
f 91/91/91 90/90/90 89/89/89
f 92/92/92 91/91/91 89/89/89
f 91/91/91 93/93/93 90/90/90
f 93/93/93 94/94/94 90/90/90
f 93/93/93 95/95/95 94/94/94
f 95/95/95 96/96/96 94/94/94
f 95/95/95 97/97/97 96/96/96
f 97/97/97 98/98/98 96/96/96
f 97/97/97 99/99/99 98/98/98
f 99/99/99 100/100/100 98/98/98
f 99/99/99 101/101/101 100/100/100
f 101/101/101 102/102/102 100/100/100
f 101/101/101 103/103/103 102/102/102
f 103/103/103 104/104/104 102/102/102
f 103/103/103 105/105/105 104/104/104
f 105/105/105 106/106/106 104/104/104
f 105/105/105 107/107/107 106/106/106
f 107/107/107 108/108/108 106/106/106
f 107/107/107 109/109/109 108/108/108
f 109/109/109 110/110/110 108/108/108
f 109/109/109 111/111/111 110/110/110
f 111/111/111 112/112/112 110/110/110
f 111/111/111 113/113/113 112/112/112
f 113/113/113 114/114/114 112/112/112
f 113/113/113 115/115/115 114/114/114
f 115/115/115 116/116/116 114/114/114
f 115/115/115 117/117/117 116/116/116
f 117/117/117 118/118/118 116/116/116
f 117/117/117 119/119/119 118/118/118
f 119/119/119 120/120/120 118/118/118
f 119/119/119 121/121/121 120/120/120
f 121/121/121 122/122/122 120/120/120
f 121/121/121 123/123/123 122/122/122
f 123/123/123 124/124/124 122/122/122
f 123/123/123 125/125/125 124/124/124
f 125/125/125 126/126/126 124/124/124
f 125/125/125 127/127/127 126/126/126
f 127/127/127 128/128/128 126/126/126
f 127/127/127 129/129/129 128/128/128
f 129/129/129 130/130/130 128/128/128
f 129/129/129 131/131/131 130/130/130
f 131/131/131 132/132/132 130/130/130
f 135/135/135 134/134/134 133/133/133
f 136/136/136 135/135/135 133/133/133
f 135/135/135 137/137/137 134/134/134
f 137/137/137 138/138/138 134/134/134
f 137/137/137 139/139/139 138/138/138
f 139/139/139 140/140/140 138/138/138
f 139/139/139 141/141/141 140/140/140
f 141/141/141 142/142/142 140/140/140
f 141/141/141 143/143/143 142/142/142
f 143/143/143 144/144/144 142/142/142
f 143/143/143 145/145/145 144/144/144
f 145/145/145 146/146/146 144/144/144
f 145/145/145 147/147/147 146/146/146
f 147/147/147 148/148/148 146/146/146
f 147/147/147 149/149/149 148/148/148
f 149/149/149 150/150/150 148/148/148
f 149/149/149 151/151/151 150/150/150
f 151/151/151 152/152/152 150/150/150
f 151/151/151 153/153/153 152/152/152
f 153/153/153 154/154/154 152/152/152
f 153/153/153 155/155/155 154/154/154
f 155/155/155 156/156/156 154/154/154
f 155/155/155 157/157/157 156/156/156
f 157/157/157 158/158/158 156/156/156
f 157/157/157 159/159/159 158/158/158
f 159/159/159 160/160/160 158/158/158
f 159/159/159 161/161/161 160/160/160
f 161/161/161 162/162/162 160/160/160
f 161/161/161 163/163/163 162/162/162
f 163/163/163 164/164/164 162/162/162
f 163/163/163 165/165/165 164/164/164
f 165/165/165 166/166/166 164/164/164
f 165/165/165 167/167/167 166/166/166
f 167/167/167 168/168/168 166/166/166
f 167/167/167 169/169/169 168/168/168
f 169/169/169 170/170/170 168/168/168
f 169/169/169 171/171/171 170/170/170
f 171/171/171 172/172/172 170/170/170
f 171/171/171 173/173/173 172/172/172
f 173/173/173 174/174/174 172/172/172
f 173/173/173 175/175/175 174/174/174
f 175/175/175 176/176/176 174/174/174
f 179/179/179 178/178/178 177/177/177
f 180/180/180 179/179/179 177/177/177
f 183/183/183 182/182/182 181/181/181
f 184/184/184 183/183/183 181/181/181
