g pokestop_ia_arc_bottom
v -56.4488 119.0007 -8.149048
v -44.48307 117.6715 -8.149023
v -44.48307 117.6715 8.148877
v -56.44881 119.0007 8.148853
v -27.1432 113.7138 8.148917
v -27.1432 113.7138 -8.148821
v -10.5869 107.2159 8.148883
v -10.58689 107.2159 -8.148855
v 4.816286 98.32297 8.148892
v 4.816292 98.32295 -8.148886
v 18.72178 87.23366 8.148906
v 18.72178 87.23366 -8.148913
v 30.81923 74.19569 8.148962
v 30.81923 74.19569 -8.148938
v 40.83833 59.50031 8.148857
v 40.83833 59.50031 -8.149043
v 48.55534 43.47583 8.148911
v 48.55534 43.4758 -8.148988
v 53.79784 26.48012 8.148967
v 53.79784 26.48013 -8.148934
v 56.44865 8.892911 8.149016
v 56.44866 8.892902 -8.148883
v 56.44865 -8.89298 8.148741
v 56.44866 -8.892951 -8.148837
v 53.79784 -26.4802 8.148783
v 53.79784 -26.48018 -8.148794
v 48.55526 -43.47588 8.148817
v 48.55527 -43.47585 -8.14876
v 40.83833 -59.50035 8.148846
v 40.83833 -59.50037 -8.149054
v 30.81908 -74.19569 8.148868
v 30.81908 -74.19574 -8.14887
v 18.72163 -87.23372 8.148879
v 18.72164 -87.23373 -8.148857
v 4.816286 -98.32298 8.148887
v 4.816292 -98.32299 -8.148893
v -10.5869 -107.2159 8.148882
v -10.58689 -107.2159 -8.148856
v -27.1432 -113.7138 8.14887
v -27.1432 -113.7138 -8.148869
v -44.48307 -117.6715 8.14885
v -44.48307 -117.6715 -8.14905
v -56.44881 -119.0007 8.148831
v -56.4488 -119.0007 -8.148744
v -56.44881 119.0007 8.148853
v -44.48307 117.6715 8.148877
v -53.21558 59.73508 8.149014
v -56.44867 60.40981 8.149007
v -44.4132 57.72595 8.149035
v -27.1432 113.7138 8.148917
v -36.00845 54.42735 8.148897
v -10.5869 107.2159 8.148883
v -28.18917 49.91293 8.148922
v 4.816286 98.32297 8.148892
v -21.13015 44.28352 8.14895
v 18.72178 87.23366 8.148906
v -14.98897 37.66488 8.148897
v 30.81923 74.19569 8.148962
v -9.902812 30.2049 8.148926
v 40.83833 59.50031 8.148857
v -5.985355 22.07019 8.148914
v 48.55534 43.47583 8.148911
v -3.32405 13.44241 8.148901
v 53.79784 26.48012 8.148967
v -1.978358 4.51438 8.148896
v 56.44865 8.892911 8.149016
v -1.978358 -4.514447 8.148898
v 56.44865 -8.89298 8.148741
v -3.32405 -13.44248 8.148891
v 53.79784 -26.4802 8.148783
v -5.985355 -22.07016 8.148908
v 48.55526 -43.47588 8.148817
v -9.902812 -30.20491 8.148922
v 40.83833 -59.50035 8.148846
v -14.98904 -37.66493 8.148934
v 30.81908 -74.19569 8.148868
v -21.13022 -44.28356 8.14886
v 18.72163 -87.23372 8.148879
v -28.18917 -49.91294 8.148863
v 4.816286 -98.32298 8.148887
v -36.00845 -54.42736 8.14886
v -10.5869 -107.2159 8.148882
v -44.4132 -57.72601 8.149015
v -27.1432 -113.7138 8.14887
v -53.21573 -59.73506 8.149006
v -44.48307 -117.6715 8.14885
v -56.44867 -60.40978 8.149001
v -56.44881 -119.0007 8.148831
v -56.44867 60.40981 8.149007
v -53.21558 59.73508 8.149014
v -53.21572 59.73507 -8.148886
v -56.44865 60.40981 -8.148893
v -44.41319 57.72596 -8.148865
v -44.4132 57.72595 8.149035
v -36.00844 54.42736 -8.148842
v -36.00845 54.42735 8.148897
v -28.18917 49.91293 -8.148816
v -28.18917 49.91293 8.148922
v -21.13014 44.28352 -8.148951
v -21.13015 44.28352 8.14895
v -14.98896 37.66489 -8.148922
v -14.98897 37.66488 8.148897
v -9.902843 30.20491 -8.148894
v -9.902812 30.2049 8.148926
v -5.98535 22.07016 -8.148906
v -5.985355 22.07019 8.148914
v -3.324044 13.44244 -8.148899
v -3.32405 13.44241 8.148901
v -1.978352 4.514408 -8.148892
v -1.978358 4.51438 8.148896
v -1.978352 -4.514456 -8.148899
v -1.978358 -4.514447 8.148898
v -3.324044 -13.44249 -8.148888
v -3.32405 -13.44248 8.148891
v -5.98535 -22.07021 -8.148911
v -5.985355 -22.07016 8.148908
v -9.902806 -30.20492 -8.148897
v -9.902812 -30.20491 8.148922
v -14.98903 -37.66493 -8.148885
v -14.98904 -37.66493 8.148934
v -21.13022 -44.28353 -8.148879
v -21.13022 -44.28356 8.14886
v -28.18917 -49.91295 -8.148876
v -28.18917 -49.91294 8.148863
v -36.00844 -54.42737 -8.148878
v -36.00845 -54.42736 8.14886
v -44.41319 -57.72602 -8.148884
v -44.4132 -57.72601 8.149015
v -53.21572 -59.7351 -8.148894
v -53.21573 -59.73506 8.149006
v -56.44865 -60.40983 -8.148898
v -56.44867 -60.40978 8.149001
v -56.44865 60.40981 -8.148893
v -53.21572 59.73507 -8.148886
v -44.48307 117.6715 -8.149023
v -56.4488 119.0007 -8.149048
v -27.1432 113.7138 -8.148821
v -44.41319 57.72596 -8.148865
v -10.58689 107.2159 -8.148855
v -36.00844 54.42736 -8.148842
v 4.816292 98.32295 -8.148886
v -28.18917 49.91293 -8.148816
v 18.72178 87.23366 -8.148913
v -21.13014 44.28352 -8.148951
v 30.81923 74.19569 -8.148938
v -14.98896 37.66489 -8.148922
v 40.83833 59.50031 -8.149043
v -9.902843 30.20491 -8.148894
v 48.55534 43.4758 -8.148988
v -5.98535 22.07016 -8.148906
v 53.79784 26.48013 -8.148934
v -3.324044 13.44244 -8.148899
v 56.44866 8.892902 -8.148883
v -1.978352 4.514408 -8.148892
v 56.44866 -8.892951 -8.148837
v -1.978352 -4.514456 -8.148899
v 53.79784 -26.48018 -8.148794
v -3.324044 -13.44249 -8.148888
v 48.55527 -43.47585 -8.14876
v -5.98535 -22.07021 -8.148911
v 40.83833 -59.50037 -8.149054
v -9.902806 -30.20492 -8.148897
v 30.81908 -74.19574 -8.14887
v -14.98903 -37.66493 -8.148885
v 18.72164 -87.23373 -8.148857
v -21.13022 -44.28353 -8.148879
v 4.816292 -98.32299 -8.148893
v -28.18917 -49.91295 -8.148876
v -10.58689 -107.2159 -8.148856
v -36.00844 -54.42737 -8.148878
v -27.1432 -113.7138 -8.148869
v -44.41319 -57.72602 -8.148884
v -44.48307 -117.6715 -8.14905
v -53.21572 -59.7351 -8.148894
v -56.4488 -119.0007 -8.148744
v -56.44865 -60.40983 -8.148898
v -56.44867 60.40981 8.149007
v -56.44865 60.40981 -8.148893
v -56.4488 119.0007 -8.149048
v -56.44881 119.0007 8.148853
v -56.4488 -119.0007 -8.148744
v -56.44865 -60.40983 -8.148898
v -56.44867 -60.40978 8.149001
v -56.44881 -119.0007 8.148831
vt 0.1751042 0.5162486
vt 0.1787309 0.5488982
vt 0.1787309 0.5488982
vt 0.1751042 0.5162486
vt 0.1895301 0.5962126
vt 0.1895301 0.5962126
vt 0.2072605 0.641389
vt 0.2072605 0.6413889
vt 0.231526 0.6834182
vt 0.231526 0.6834182
vt 0.2617847 0.7213613
vt 0.2617847 0.7213613
vt 0.2973605 0.7543709
vt 0.2973605 0.7543709
vt 0.3374588 0.7817094
vt 0.3374588 0.7817094
vt 0.3811838 0.8027663
vt 0.3811838 0.8027663
vt 0.4275588 0.8170711
vt 0.4275588 0.8170711
vt 0.4755479 0.8243043
vt 0.4755479 0.8243043
vt 0.524079 0.8243043
vt 0.524079 0.8243043
vt 0.572068 0.8170711
vt 0.572068 0.8170711
vt 0.6184431 0.8027663
vt 0.6184431 0.8027663
vt 0.6621681 0.7817095
vt 0.6621681 0.7817094
vt 0.7022665 0.7543709
vt 0.7022665 0.7543709
vt 0.7378422 0.7213614
vt 0.7378422 0.7213614
vt 0.7681009 0.6834183
vt 0.7681009 0.6834182
vt 0.7923664 0.6413891
vt 0.7923664 0.6413891
vt 0.8100969 0.5962127
vt 0.8100969 0.5962127
vt 0.820896 0.5488984
vt 0.820896 0.5488983
vt 0.8245229 0.5162488
vt 0.8245229 0.5162487
vt 0.1751042 0.5162486
vt 0.1787309 0.5488982
vt 0.3368183 0.5250705
vt 0.3349772 0.5162486
vt 0.3423004 0.5490893
vt 0.1895301 0.5962126
vt 0.3513011 0.5720227
vt 0.2072605 0.641389
vt 0.3636193 0.5933585
vt 0.231526 0.6834182
vt 0.3789799 0.6126201
vt 0.2617847 0.7213613
vt 0.3970397 0.6293771
vt 0.2973605 0.7543709
vt 0.4173953 0.6432554
vt 0.3374588 0.7817094
vt 0.439592 0.6539447
vt 0.3811838 0.8027663
vt 0.4631339 0.6612064
vt 0.4275588 0.8170711
vt 0.4874952 0.6648783
vt 0.4755479 0.8243043
vt 0.5121317 0.6648783
vt 0.524079 0.8243043
vt 0.536493 0.6612065
vt 0.572068 0.8170711
vt 0.5600349 0.6539447
vt 0.6184431 0.8027663
vt 0.5822316 0.6432554
vt 0.6621681 0.7817095
vt 0.6025872 0.6293771
vt 0.7022665 0.7543709
vt 0.6206471 0.6126201
vt 0.7378422 0.7213614
vt 0.6360077 0.5933585
vt 0.7681009 0.6834183
vt 0.6483259 0.5720227
vt 0.7923664 0.6413891
vt 0.6573266 0.5490893
vt 0.8100969 0.5962127
vt 0.6628087 0.5250705
vt 0.820896 0.5488984
vt 0.6646498 0.5162488
vt 0.8245229 0.5162488
vt 0.3349772 0.5162486
vt 0.3368183 0.5250705
vt 0.3368183 0.5250704
vt 0.3349772 0.5162486
vt 0.3423004 0.5490892
vt 0.3423004 0.5490893
vt 0.3513011 0.5720227
vt 0.3513011 0.5720227
vt 0.3636193 0.5933585
vt 0.3636193 0.5933585
vt 0.3789799 0.6126201
vt 0.3789799 0.6126201
vt 0.3970397 0.6293771
vt 0.3970397 0.6293771
vt 0.4173953 0.6432554
vt 0.4173953 0.6432554
vt 0.439592 0.6539447
vt 0.439592 0.6539447
vt 0.4631339 0.6612064
vt 0.4631339 0.6612064
vt 0.4874952 0.6648783
vt 0.4874952 0.6648783
vt 0.5121317 0.6648783
vt 0.5121317 0.6648783
vt 0.536493 0.6612064
vt 0.536493 0.6612065
vt 0.5600349 0.6539447
vt 0.5600349 0.6539447
vt 0.5822316 0.6432554
vt 0.5822316 0.6432554
vt 0.6025872 0.6293771
vt 0.6025872 0.6293771
vt 0.620647 0.6126201
vt 0.6206471 0.6126201
vt 0.6360077 0.5933585
vt 0.6360077 0.5933585
vt 0.6483259 0.5720227
vt 0.6483259 0.5720227
vt 0.6573266 0.5490893
vt 0.6573266 0.5490893
vt 0.6628087 0.5250705
vt 0.6628087 0.5250705
vt 0.6646498 0.5162487
vt 0.6646498 0.5162488
vt 0.3349772 0.5162486
vt 0.3368183 0.5250704
vt 0.1787309 0.5488982
vt 0.1751042 0.5162486
vt 0.1895301 0.5962126
vt 0.3423004 0.5490892
vt 0.2072605 0.6413889
vt 0.3513011 0.5720227
vt 0.231526 0.6834182
vt 0.3636193 0.5933585
vt 0.2617847 0.7213613
vt 0.3789799 0.6126201
vt 0.2973605 0.7543709
vt 0.3970397 0.6293771
vt 0.3374588 0.7817094
vt 0.4173953 0.6432554
vt 0.3811838 0.8027663
vt 0.439592 0.6539447
vt 0.4275588 0.8170711
vt 0.4631339 0.6612064
vt 0.4755479 0.8243043
vt 0.4874952 0.6648783
vt 0.524079 0.8243043
vt 0.5121317 0.6648783
vt 0.572068 0.8170711
vt 0.536493 0.6612064
vt 0.6184431 0.8027663
vt 0.5600349 0.6539447
vt 0.6621681 0.7817094
vt 0.5822316 0.6432554
vt 0.7022665 0.7543709
vt 0.6025872 0.6293771
vt 0.7378422 0.7213614
vt 0.620647 0.6126201
vt 0.7681009 0.6834182
vt 0.6360077 0.5933585
vt 0.7923664 0.6413891
vt 0.6483259 0.5720227
vt 0.8100969 0.5962127
vt 0.6573266 0.5490893
vt 0.820896 0.5488983
vt 0.6628087 0.5250705
vt 0.8245229 0.5162487
vt 0.6646498 0.5162487
vt 0.3349772 0.5162486
vt 0.3349772 0.5162486
vt 0.1751042 0.5162486
vt 0.1751042 0.5162486
vt 0.8245229 0.5162487
vt 0.6646498 0.5162487
vt 0.6646498 0.5162488
vt 0.8245229 0.5162488
vn 0.1103995 0.9938873 0
vn 0.1667304 0.9860025 0
vn 0.1667304 0.9860025 0
vn 0.1103995 0.9938873 0
vn 0.2947563 0.9555724 0
vn 0.2947563 0.9555724 0
vn 0.4338825 0.9009694 0
vn 0.4338825 0.9009694 0
vn 0.5633191 0.8262395 0
vn 0.5633191 0.8262395 0
vn 0.6801737 0.733051 0
vn 0.6801737 0.733051 0
vn 0.7818323 0.6234887 0
vn 0.7818323 0.6234887 0
vn 0.8660256 0.4999997 0
vn 0.8660256 0.4999997 0
vn 0.9308733 0.3653421 0
vn 0.9308733 0.3653421 0
vn 0.974928 0.2225207 0
vn 0.974928 0.2225207 0
vn 0.9972038 0.07472926 0
vn 0.9972038 0.07472926 0
vn 0.9972038 -0.07472925 0
vn 0.9972038 -0.07472925 0
vn 0.9749275 -0.2225228 0
vn 0.9749275 -0.2225228 0
vn 0.9308733 -0.3653423 0
vn 0.9308733 -0.3653423 0
vn 0.8660247 -0.5000013 0
vn 0.8660247 -0.5000013 0
vn 0.7818304 -0.6234912 0
vn 0.7818304 -0.6234912 0
vn 0.6801755 -0.7330493 0
vn 0.6801755 -0.7330493 0
vn 0.5633203 -0.8262385 0
vn 0.5633203 -0.8262385 0
vn 0.433882 -0.9009697 0
vn 0.433882 -0.9009697 0
vn 0.294756 -0.9555725 0
vn 0.294756 -0.9555725 0
vn 0.1667304 -0.9860025 0
vn 0.1667304 -0.9860025 0
vn 0.1103995 -0.9938873 0
vn 0.1103995 -0.9938873 0
vn 0 0 1
vn 0 0 1
vn 0 0 1
vn 0 0 1
vn 0 0 1
vn 0 0 1
vn 0 0 1
vn 0 0 1
vn 0 0 1
vn 0 0 1
vn 0 0 1
vn 0 0 1
vn 0 0 1
vn 0 0 1
vn 0 0 1
vn 0 0 1
vn 0 0 1
vn 0 0 1
vn 0 0 1
vn 0 0 1
vn 0 0 1
vn 0 0 1
vn 0 0 1
vn 0 0 1
vn 0 0 1
vn 0 0 1
vn 0 0 1
vn 0 0 1
vn 0 0 1
vn 0 0 1
vn 0 0 1
vn 0 0 1
vn 0 0 1
vn 0 0 1
vn 0 0 1
vn 0 0 1
vn 0 0 1
vn 0 0 1
vn 0 0 1
vn 0 0 1
vn 0 0 1
vn 0 0 1
vn 0 0 1
vn 0 0 1
vn -0.2042977 -0.9789088 0
vn -0.2134195 -0.9769607 0
vn -0.2134195 -0.9769607 0
vn -0.2042977 -0.9789088 0
vn -0.2947553 -0.9555728 0
vn -0.2947553 -0.9555728 0
vn -0.4338814 -0.90097 0
vn -0.4338814 -0.90097 0
vn -0.5633196 -0.8262391 0
vn -0.5633196 -0.8262391 0
vn -0.6801738 -0.7330508 0
vn -0.6801738 -0.7330508 0
vn -0.7818316 -0.6234897 0
vn -0.7818316 -0.6234897 0
vn -0.8660253 -0.5000001 0
vn -0.8660253 -0.5000001 0
vn -0.9308739 -0.3653408 0
vn -0.9308739 -0.3653408 0
vn -0.9749278 -0.2225212 0
vn -0.9749278 -0.2225212 0
vn -0.9972038 -0.07473052 0
vn -0.9972038 -0.07473052 0
vn -0.9972038 0.07473051 0
vn -0.9972038 0.07473051 0
vn -0.9749277 0.2225219 0
vn -0.9749277 0.2225219 0
vn -0.9308739 0.3653405 0
vn -0.9308739 0.3653405 0
vn -0.8660243 0.5000019 0
vn -0.8660243 0.5000019 0
vn -0.7818293 0.6234925 0
vn -0.7818293 0.6234925 0
vn -0.6801749 0.7330499 0
vn -0.6801749 0.7330499 0
vn -0.5633211 0.8262381 0
vn -0.5633211 0.8262381 0
vn -0.433883 0.9009693 0
vn -0.433883 0.9009693 0
vn -0.2947538 0.9555733 0
vn -0.2947538 0.9555733 0
vn -0.2134182 0.9769609 0
vn -0.2134182 0.9769609 0
vn -0.2043022 0.9789079 0
vn -0.2043022 0.9789079 0
vn 0 0 -1
vn 0 0 -1
vn 0 0 -1
vn 0 0 -1
vn 0 0 -1
vn 0 0 -1
vn 0 0 -1
vn 0 0 -1
vn 0 0 -1
vn 0 0 -1
vn 0 0 -1
vn 0 0 -1
vn 0 0 -1
vn 0 0 -1
vn 0 0 -1
vn 0 0 -1
vn 0 0 -1
vn 0 0 -1
vn 0 0 -1
vn 0 0 -1
vn 0 0 -1
vn 0 0 -1
vn 0 0 -1
vn 0 0 -1
vn 0 0 -1
vn 0 0 -1
vn 0 0 -1
vn 0 0 -1
vn 0 0 -1
vn 0 0 -1
vn 0 0 -1
vn 0 0 -1
vn 0 0 -1
vn 0 0 -1
vn 0 0 -1
vn 0 0 -1
vn 0 0 -1
vn 0 0 -1
vn 0 0 -1
vn 0 0 -1
vn 0 0 -1
vn 0 0 -1
vn 0 0 -1
vn 0 0 -1
vn -1 0 0
vn -1 0 0
vn -1 0 0
vn -1 0 0
vn -1 0 0
vn -1 0 0
vn -1 0 0
vn -1 0 0
g pokestop_ia_arc_bottom_0
f 3/3/3 2/2/2 1/1/1
f 4/4/4 3/3/3 1/1/1
f 3/3/3 5/5/5 2/2/2
f 5/5/5 6/6/6 2/2/2
f 5/5/5 7/7/7 6/6/6
f 7/7/7 8/8/8 6/6/6
f 7/7/7 9/9/9 8/8/8
f 9/9/9 10/10/10 8/8/8
f 9/9/9 11/11/11 10/10/10
f 11/11/11 12/12/12 10/10/10
f 11/11/11 13/13/13 12/12/12
f 13/13/13 14/14/14 12/12/12
f 13/13/13 15/15/15 14/14/14
f 15/15/15 16/16/16 14/14/14
f 15/15/15 17/17/17 16/16/16
f 17/17/17 18/18/18 16/16/16
f 17/17/17 19/19/19 18/18/18
f 19/19/19 20/20/20 18/18/18
f 19/19/19 21/21/21 20/20/20
f 21/21/21 22/22/22 20/20/20
f 21/21/21 23/23/23 22/22/22
f 23/23/23 24/24/24 22/22/22
f 23/23/23 25/25/25 24/24/24
f 25/25/25 26/26/26 24/24/24
f 25/25/25 27/27/27 26/26/26
f 27/27/27 28/28/28 26/26/26
f 27/27/27 29/29/29 28/28/28
f 29/29/29 30/30/30 28/28/28
f 29/29/29 31/31/31 30/30/30
f 31/31/31 32/32/32 30/30/30
f 31/31/31 33/33/33 32/32/32
f 33/33/33 34/34/34 32/32/32
f 33/33/33 35/35/35 34/34/34
f 35/35/35 36/36/36 34/34/34
f 35/35/35 37/37/37 36/36/36
f 37/37/37 38/38/38 36/36/36
f 37/37/37 39/39/39 38/38/38
f 39/39/39 40/40/40 38/38/38
f 39/39/39 41/41/41 40/40/40
f 41/41/41 42/42/42 40/40/40
f 41/41/41 43/43/43 42/42/42
f 43/43/43 44/44/44 42/42/42
f 47/47/47 46/46/46 45/45/45
f 48/48/48 47/47/47 45/45/45
f 47/47/47 49/49/49 46/46/46
f 49/49/49 50/50/50 46/46/46
f 49/49/49 51/51/51 50/50/50
f 51/51/51 52/52/52 50/50/50
f 51/51/51 53/53/53 52/52/52
f 53/53/53 54/54/54 52/52/52
f 53/53/53 55/55/55 54/54/54
f 55/55/55 56/56/56 54/54/54
f 55/55/55 57/57/57 56/56/56
f 57/57/57 58/58/58 56/56/56
f 57/57/57 59/59/59 58/58/58
f 59/59/59 60/60/60 58/58/58
f 59/59/59 61/61/61 60/60/60
f 61/61/61 62/62/62 60/60/60
f 61/61/61 63/63/63 62/62/62
f 63/63/63 64/64/64 62/62/62
f 63/63/63 65/65/65 64/64/64
f 65/65/65 66/66/66 64/64/64
f 65/65/65 67/67/67 66/66/66
f 67/67/67 68/68/68 66/66/66
f 67/67/67 69/69/69 68/68/68
f 69/69/69 70/70/70 68/68/68
f 69/69/69 71/71/71 70/70/70
f 71/71/71 72/72/72 70/70/70
f 71/71/71 73/73/73 72/72/72
f 73/73/73 74/74/74 72/72/72
f 73/73/73 75/75/75 74/74/74
f 75/75/75 76/76/76 74/74/74
f 75/75/75 77/77/77 76/76/76
f 77/77/77 78/78/78 76/76/76
f 77/77/77 79/79/79 78/78/78
f 79/79/79 80/80/80 78/78/78
f 79/79/79 81/81/81 80/80/80
f 81/81/81 82/82/82 80/80/80
f 81/81/81 83/83/83 82/82/82
f 83/83/83 84/84/84 82/82/82
f 83/83/83 85/85/85 84/84/84
f 85/85/85 86/86/86 84/84/84
f 85/85/85 87/87/87 86/86/86
f 87/87/87 88/88/88 86/86/86
f 91/91/91 90/90/90 89/89/89
f 92/92/92 91/91/91 89/89/89
f 91/91/91 93/93/93 90/90/90
f 93/93/93 94/94/94 90/90/90
f 93/93/93 95/95/95 94/94/94
f 95/95/95 96/96/96 94/94/94
f 95/95/95 97/97/97 96/96/96
f 97/97/97 98/98/98 96/96/96
f 97/97/97 99/99/99 98/98/98
f 99/99/99 100/100/100 98/98/98
f 99/99/99 101/101/101 100/100/100
f 101/101/101 102/102/102 100/100/100
f 101/101/101 103/103/103 102/102/102
f 103/103/103 104/104/104 102/102/102
f 103/103/103 105/105/105 104/104/104
f 105/105/105 106/106/106 104/104/104
f 105/105/105 107/107/107 106/106/106
f 107/107/107 108/108/108 106/106/106
f 107/107/107 109/109/109 108/108/108
f 109/109/109 110/110/110 108/108/108
f 109/109/109 111/111/111 110/110/110
f 111/111/111 112/112/112 110/110/110
f 111/111/111 113/113/113 112/112/112
f 113/113/113 114/114/114 112/112/112
f 113/113/113 115/115/115 114/114/114
f 115/115/115 116/116/116 114/114/114
f 115/115/115 117/117/117 116/116/116
f 117/117/117 118/118/118 116/116/116
f 117/117/117 119/119/119 118/118/118
f 119/119/119 120/120/120 118/118/118
f 119/119/119 121/121/121 120/120/120
f 121/121/121 122/122/122 120/120/120
f 121/121/121 123/123/123 122/122/122
f 123/123/123 124/124/124 122/122/122
f 123/123/123 125/125/125 124/124/124
f 125/125/125 126/126/126 124/124/124
f 125/125/125 127/127/127 126/126/126
f 127/127/127 128/128/128 126/126/126
f 127/127/127 129/129/129 128/128/128
f 129/129/129 130/130/130 128/128/128
f 129/129/129 131/131/131 130/130/130
f 131/131/131 132/132/132 130/130/130
f 135/135/135 134/134/134 133/133/133
f 136/136/136 135/135/135 133/133/133
f 135/135/135 137/137/137 134/134/134
f 137/137/137 138/138/138 134/134/134
f 137/137/137 139/139/139 138/138/138
f 139/139/139 140/140/140 138/138/138
f 139/139/139 141/141/141 140/140/140
f 141/141/141 142/142/142 140/140/140
f 141/141/141 143/143/143 142/142/142
f 143/143/143 144/144/144 142/142/142
f 143/143/143 145/145/145 144/144/144
f 145/145/145 146/146/146 144/144/144
f 145/145/145 147/147/147 146/146/146
f 147/147/147 148/148/148 146/146/146
f 147/147/147 149/149/149 148/148/148
f 149/149/149 150/150/150 148/148/148
f 149/149/149 151/151/151 150/150/150
f 151/151/151 152/152/152 150/150/150
f 151/151/151 153/153/153 152/152/152
f 153/153/153 154/154/154 152/152/152
f 153/153/153 155/155/155 154/154/154
f 155/155/155 156/156/156 154/154/154
f 155/155/155 157/157/157 156/156/156
f 157/157/157 158/158/158 156/156/156
f 157/157/157 159/159/159 158/158/158
f 159/159/159 160/160/160 158/158/158
f 159/159/159 161/161/161 160/160/160
f 161/161/161 162/162/162 160/160/160
f 161/161/161 163/163/163 162/162/162
f 163/163/163 164/164/164 162/162/162
f 163/163/163 165/165/165 164/164/164
f 165/165/165 166/166/166 164/164/164
f 165/165/165 167/167/167 166/166/166
f 167/167/167 168/168/168 166/166/166
f 167/167/167 169/169/169 168/168/168
f 169/169/169 170/170/170 168/168/168
f 169/169/169 171/171/171 170/170/170
f 171/171/171 172/172/172 170/170/170
f 171/171/171 173/173/173 172/172/172
f 173/173/173 174/174/174 172/172/172
f 173/173/173 175/175/175 174/174/174
f 175/175/175 176/176/176 174/174/174
f 179/179/179 178/178/178 177/177/177
f 180/180/180 179/179/179 177/177/177
f 183/183/183 182/182/182 181/181/181
f 184/184/184 183/183/183 181/181/181
