g pokestop_far_unvisited_ring_low
v 0.2540368 0.003334601 -0.1845685
v 0.2776776 0.006737258 -0.2017446
v 0.3432284 0.006737258 9.33336E-11
v 0.3140067 0.003334601 1.820072E-10
v 0.09703343 0.003334602 -0.2986382
v 0.1060634 0.006737258 -0.3264296
v -0.09703342 0.003334602 -0.2986382
v -0.1060634 0.006737257 -0.3264296
v -0.2540368 0.003334603 -0.1845685
v -0.2776776 0.006737257 -0.2017446
v -0.3140067 0.003334601 -2.123417E-09
v -0.3432284 0.006737258 -1.009674E-08
v -0.2540368 0.0033346 0.1845685
v -0.2776776 0.006737258 0.2017446
v -0.09703343 0.003334602 0.2986382
v -0.1060634 0.006737258 0.3264296
v 0.09703342 0.003334602 0.2986382
v 0.1060634 0.006737257 0.3264296
v 0.2540368 0.003334602 0.1845685
v 0.2776776 0.006737257 0.2017446
v 0.3140067 0.003334601 1.820072E-10
v 0.3432284 0.006737258 9.33336E-11
v 0.2776776 0.006737258 -0.2017446
v 0.278377 -0.005 -0.2022527
v 0.3440928 -0.005 -1.110223E-18
v 0.3432284 0.006737258 9.33336E-11
v 0.1060634 0.006737258 -0.3264296
v 0.1063306 -0.005 -0.3272517
v 0.278377 -0.005 -0.2022527
v 0.2776776 0.006737258 -0.2017446
v -0.1060634 0.006737257 -0.3264296
v -0.1063305 -0.005 -0.3272517
v 0.1063306 -0.005 -0.3272517
v 0.1060634 0.006737258 -0.3264296
v -0.2776776 0.006737257 -0.2017446
v -0.278377 -0.005 -0.2022527
v -0.1063305 -0.005 -0.3272517
v -0.1060634 0.006737257 -0.3264296
v -0.3432284 0.006737258 -1.009674E-08
v -0.3440928 -0.005 -9.536743E-09
v -0.278377 -0.005 -0.2022527
v -0.2776776 0.006737257 -0.2017446
v -0.2776776 0.006737258 0.2017446
v -0.278377 -0.005 0.2022527
v -0.3440928 -0.005 -9.536743E-09
v -0.3432284 0.006737258 -1.009674E-08
v -0.1060634 0.006737258 0.3264296
v -0.1063306 -0.005 0.3272517
v -0.278377 -0.005 0.2022527
v -0.2776776 0.006737258 0.2017446
v 0.1060634 0.006737257 0.3264296
v 0.1063305 -0.005 0.3272517
v -0.1063306 -0.005 0.3272517
v -0.1060634 0.006737258 0.3264296
v 0.2776776 0.006737257 0.2017446
v 0.278377 -0.005 0.2022527
v 0.1063305 -0.005 0.3272517
v 0.1060634 0.006737257 0.3264296
v 0.3432284 0.006737258 9.33336E-11
v 0.3440928 -0.005 -1.110223E-18
v 0.278377 -0.005 0.2022527
v 0.2776776 0.006737257 0.2017446
vt 0.875 0.9000001
vt 0.5000001 0.9
vt 0.5 1
vt 0.875 0.9999999
vt 0.875 0.8000001
vt 0.5 0.8
vt 0.875 0.7
vt 0.5000001 0.7
vt 0.875 0.6
vt 0.5000001 0.6
vt 0.875 0.5
vt 0.5000001 0.5000001
vt 0.875 0.4
vt 0.5000001 0.4
vt 0.875 0.3
vt 0.5000001 0.3
vt 0.875 0.1999999
vt 0.5 0.2
vt 0.875 0.09999993
vt 0.5 0.09999995
vt 0.875 -4.033904E-08
vt 0.5000001 -5.960464E-08
vt 0.5000001 0.9
vt 0.25 0.9
vt 0.25 1
vt 0.5 1
vt 0.5 0.8
vt 0.2500001 0.8
vt 0.25 0.9
vt 0.5000001 0.9
vt 0.5000001 0.7
vt 0.25 0.7
vt 0.2500001 0.8
vt 0.5 0.8
vt 0.5000001 0.6
vt 0.2500001 0.6
vt 0.25 0.7
vt 0.5000001 0.7
vt 0.5000001 0.5000001
vt 0.2500001 0.5000001
vt 0.2500001 0.6
vt 0.5000001 0.6
vt 0.5000001 0.4
vt 0.25 0.4
vt 0.2500001 0.5000001
vt 0.5000001 0.5000001
vt 0.5000001 0.3
vt 0.2500001 0.3
vt 0.25 0.4
vt 0.5000001 0.4
vt 0.5 0.2
vt 0.25 0.2
vt 0.2500001 0.3
vt 0.5000001 0.3
vt 0.5 0.09999995
vt 0.2500001 0.09999996
vt 0.25 0.2
vt 0.5 0.2
vt 0.5000001 -5.960464E-08
vt 0.25 -8.940697E-08
vt 0.2500001 0.09999996
vt 0.5 0.09999995
vn 0 1 0
vn 0 1 0
vn 0 1 0
vn 0 1 0
vn 0 1 0
vn 0 1 0
vn 0 1 0
vn 0 1 0
vn 0 1 0
vn 0 1 0
vn 0 1 0
vn 0 1 0
vn 0 1 0
vn 0 1 0
vn 0 1 0
vn 0 1 0
vn 0 1 0
vn 0 1 0
vn 0 1 0
vn 0 1 0
vn 0 1 0
vn 0 1 0
vn 0.9510565 0 -0.3090169
vn 0.9510565 0 -0.3090169
vn 0.9510565 0 -0.3090169
vn 0.9510565 0 -0.3090169
vn 0.5877852 0 -0.8090171
vn 0.5877852 0 -0.8090171
vn 0.5877852 0 -0.8090171
vn 0.5877852 0 -0.8090171
vn 0 0 -1
vn 0 0 -1
vn 0 0 -1
vn 0 0 -1
vn -0.5877852 0 -0.8090171
vn -0.5877852 0 -0.8090171
vn -0.5877852 0 -0.8090171
vn -0.5877852 0 -0.8090171
vn -0.9510565 0 -0.3090169
vn -0.9510565 0 -0.3090169
vn -0.9510565 0 -0.3090169
vn -0.9510565 0 -0.3090169
vn -0.9510565 0 0.3090169
vn -0.9510565 0 0.3090169
vn -0.9510565 0 0.3090169
vn -0.9510565 0 0.3090169
vn -0.5877852 0 0.8090171
vn -0.5877852 0 0.8090171
vn -0.5877852 0 0.8090171
vn -0.5877852 0 0.8090171
vn 0 0 1
vn 0 0 1
vn 0 0 1
vn 0 0 1
vn 0.5877852 0 0.8090171
vn 0.5877852 0 0.8090171
vn 0.5877852 0 0.8090171
vn 0.5877852 0 0.8090171
vn 0.9510565 0 0.3090169
vn 0.9510565 0 0.3090169
vn 0.9510565 0 0.3090169
vn 0.9510565 0 0.3090169
g pokestop_far_unvisited_ring_low_0
f 3/3/3 2/2/2 1/1/1
f 4/4/4 3/3/3 1/1/1
f 1/1/1 2/2/2 5/5/5
f 2/2/2 6/6/6 5/5/5
f 5/5/5 6/6/6 7/7/7
f 6/6/6 8/8/8 7/7/7
f 7/7/7 8/8/8 9/9/9
f 8/8/8 10/10/10 9/9/9
f 9/9/9 10/10/10 11/11/11
f 10/10/10 12/12/12 11/11/11
f 11/11/11 12/12/12 13/13/13
f 12/12/12 14/14/14 13/13/13
f 13/13/13 14/14/14 15/15/15
f 14/14/14 16/16/16 15/15/15
f 15/15/15 16/16/16 17/17/17
f 16/16/16 18/18/18 17/17/17
f 17/17/17 18/18/18 19/19/19
f 18/18/18 20/20/20 19/19/19
f 19/19/19 20/20/20 21/21/21
f 20/20/20 22/22/22 21/21/21
f 25/25/25 24/24/24 23/23/23
f 26/26/26 25/25/25 23/23/23
f 29/29/29 28/28/28 27/27/27
f 30/30/30 29/29/29 27/27/27
f 33/33/33 32/32/32 31/31/31
f 34/34/34 33/33/33 31/31/31
f 37/37/37 36/36/36 35/35/35
f 38/38/38 37/37/37 35/35/35
f 41/41/41 40/40/40 39/39/39
f 42/42/42 41/41/41 39/39/39
f 45/45/45 44/44/44 43/43/43
f 46/46/46 45/45/45 43/43/43
f 49/49/49 48/48/48 47/47/47
f 50/50/50 49/49/49 47/47/47
f 53/53/53 52/52/52 51/51/51
f 54/54/54 53/53/53 51/51/51
f 57/57/57 56/56/56 55/55/55
f 58/58/58 57/57/57 55/55/55
f 61/61/61 60/60/60 59/59/59
f 62/62/62 61/61/61 59/59/59
