g PokestopTroyDisc_Static_Spinner
v -0.03728537 0.5121343 -2.595348
v 0.03450694 0.5122383 -2.595177
v 0.03430397 0.491926 -2.497869
v -0.03748835 0.491822 -2.498041
v -0.03641053 -0.0004508495 -2.650739
v 0.03538179 -0.000346899 -2.650568
v 0.03514575 -0.001286268 -2.551167
v -0.03664656 -0.001390219 -2.551339
v -0.03577566 -0.5139945 -2.605067
v 0.03601665 -0.513891 -2.604895
v 0.03575662 -0.4954216 -2.507222
v -0.03603569 -0.4955256 -2.507394
v -0.03789231 -0.5122378 2.55362
v 0.0339 -0.5121329 2.55379
v 0.03410296 -0.4918172 2.456489
v -0.03769699 -0.4919212 2.456319
v -0.03877478 0.0003483295 2.609011
v 0.03302515 0.0004527569 2.609181
v 0.03326117 0.00139451 2.509788
v -0.03853877 0.001291037 2.509617
v -0.03940965 0.51389 2.563337
v 0.03239029 0.5139945 2.563508
v 0.03265031 0.495528 2.465838
v -0.03914963 0.4954236 2.465667
v 0.03450694 0.5122383 -2.595177
v 0.03538179 -0.000346899 -2.650568
v 0.03430397 0.491926 -2.497869
v 0.03514575 -0.001286268 -2.551167
v -0.03748835 0.491822 -2.498041
v -0.03664656 -0.001390219 -2.551339
v -0.03641053 -0.0004508495 -2.650739
v -0.03728537 0.5121343 -2.595348
v -0.03641053 -0.0004508495 -2.650739
v 0.03538179 -0.000346899 -2.650568
v 0.03601665 -0.513891 -2.604895
v 0.03514575 -0.001286268 -2.551167
v 0.03575662 -0.4954216 -2.507222
v -0.03664656 -0.001390219 -2.551339
v -0.03603569 -0.4955256 -2.507394
v -0.03577566 -0.5139945 -2.605067
v 0.0339 -0.5121329 2.55379
v 0.03302515 0.0004527569 2.609181
v 0.03410296 -0.4918172 2.456489
v 0.03326117 0.00139451 2.509788
v -0.03769699 -0.4919212 2.456319
v -0.03853877 0.001291037 2.509617
v -0.03877478 0.0003483295 2.609011
v -0.03789231 -0.5122378 2.55362
v -0.03877478 0.0003483295 2.609011
v 0.03302515 0.0004527569 2.609181
v 0.03239029 0.5139945 2.563508
v 0.03326117 0.00139451 2.509788
v 0.03265031 0.495528 2.465838
v -0.03853877 0.001291037 2.509617
v -0.03914963 0.4954236 2.465667
v -0.03940965 0.51389 2.563337
vt 0.6522611 0.6081915
vt 0.6522611 0.6081915
vt 0.6558951 0.6136304
vt 0.6558951 0.6136304
vt 0.626034 0.6297155
vt 0.626034 0.6297155
vt 0.6306593 0.6343409
vt 0.6306593 0.6343409
vt 0.6045098 0.6559426
vt 0.6045098 0.6559426
vt 0.6099489 0.6595768
vt 0.6099489 0.6595768
vt 0.8445707 0.8960035
vt 0.8445707 0.8960035
vt 0.8409367 0.8905644
vt 0.8409367 0.8905644
vt 0.8707978 0.8744794
vt 0.8707978 0.8744794
vt 0.8661724 0.869854
vt 0.8661724 0.869854
vt 0.8923218 0.8482524
vt 0.8923218 0.8482524
vt 0.8868828 0.8446182
vt 0.8868828 0.8446182
vt 0.6522611 0.6081915
vt 0.626034 0.6297155
vt 0.6558951 0.6136304
vt 0.6306593 0.6343409
vt 0.6558951 0.6136304
vt 0.6306593 0.6343409
vt 0.626034 0.6297155
vt 0.6522611 0.6081915
vt 0.626034 0.6297155
vt 0.626034 0.6297155
vt 0.6045098 0.6559426
vt 0.6306593 0.6343409
vt 0.6099489 0.6595768
vt 0.6306593 0.6343409
vt 0.6099489 0.6595768
vt 0.6045098 0.6559426
vt 0.8445707 0.8960035
vt 0.8707978 0.8744794
vt 0.8409367 0.8905644
vt 0.8661724 0.869854
vt 0.8409367 0.8905644
vt 0.8661724 0.869854
vt 0.8707978 0.8744794
vt 0.8445707 0.8960035
vt 0.8707978 0.8744794
vt 0.8707978 0.8744794
vt 0.8923218 0.8482524
vt 0.8661724 0.869854
vt 0.8868828 0.8446182
vt 0.8661724 0.869854
vt 0.8868828 0.8446182
vt 0.8923218 0.8482524
vn 0.002215804 0.1074393 -0.9942092
vn 0.002215804 0.1074393 -0.9942092
vn 0.9999961 0.001448631 0.002388318
vn -0.002215812 -0.1074403 0.9942091
vn 0.002215804 0.1074393 -0.9942092
vn 0.002215804 0.1074393 -0.9942092
vn 0.9999961 0.00144864 0.00238833
vn -0.002215812 -0.1074403 0.9942091
vn 0.002508875 -0.08858316 -0.9960657
vn 0.002508875 -0.08858316 -0.9960657
vn 0.9999961 0.001448649 0.002388343
vn -0.002510354 0.08858033 0.9960659
vn -0.002199583 -0.1074407 0.9942091
vn -0.002199583 -0.1074407 0.9942091
vn 0.9999961 0.001448645 0.002388352
vn 0.00221558 0.1074421 -0.9942089
vn -0.002199583 -0.1074407 0.9942091
vn -0.002199583 -0.1074407 0.9942091
vn 0.9999961 0.001448649 0.002388358
vn 0.00221558 0.1074421 -0.9942089
vn -0.002495736 0.08858557 0.9960654
vn -0.002495736 0.08858556 0.9960654
vn 0.9999961 0.001448653 0.002388365
vn 0.002506747 -0.08858947 -0.9960651
vn 0.9999961 0.001448631 0.002388317
vn 0.9999961 0.00144864 0.00238833
vn -0.002215812 -0.1074403 0.9942091
vn -0.002215812 -0.1074403 0.9942091
vn -0.9999961 -0.001448653 -0.002388277
vn -0.9999961 -0.001448645 -0.002388282
vn -0.9999961 -0.001448645 -0.002388282
vn -0.9999961 -0.001448653 -0.002388276
vn 0.002508875 -0.08858316 -0.9960657
vn 0.002508875 -0.08858315 -0.9960657
vn 0.9999961 0.001448649 0.002388343
vn -0.002510354 0.08858033 0.9960659
vn -0.002510354 0.08858033 0.9960659
vn -0.002510354 0.08858033 0.9960659
vn -0.9999961 -0.001448638 -0.002388287
vn -0.9999961 -0.001448638 -0.002388287
vn 0.9999961 0.001448645 0.002388352
vn 0.9999961 0.001448649 0.002388359
vn 0.00221558 0.1074421 -0.9942089
vn 0.00221558 0.1074421 -0.9942089
vn -0.9999962 -0.001460276 -0.002350769
vn -0.9999962 -0.001460276 -0.002350769
vn -0.9999962 -0.001460276 -0.002350769
vn -0.9999962 -0.001460276 -0.002350769
vn -0.002495735 0.08858556 0.9960654
vn -0.002495736 0.08858558 0.9960654
vn 0.9999961 0.001448653 0.002388365
vn 0.002506747 -0.08858946 -0.9960651
vn 0.002506747 -0.08858947 -0.9960651
vn 0.002506747 -0.08858947 -0.9960651
vn -0.9999961 -0.001448654 -0.002388311
vn -0.9999961 -0.001448654 -0.002388311
g PokestopTroyDisc_Static_Spinner_0
f 6/6/6 5/5/5 1/1/1
f 2/2/2 6/6/6 1/1/1
f 7/7/7 26/26/26 25/25/25
f 3/3/3 7/7/7 25/25/25
f 7/7/7 11/11/11 26/26/26
f 11/11/11 35/35/35 26/26/26
f 8/8/8 28/28/28 27/27/27
f 4/4/4 8/8/8 27/27/27
f 31/31/31 30/30/30 29/29/29
f 32/32/32 31/31/31 29/29/29
f 31/31/31 40/40/40 30/30/30
f 40/40/40 39/39/39 30/30/30
f 10/10/10 9/9/9 33/33/33
f 34/34/34 10/10/10 33/33/33
f 12/12/12 37/37/37 36/36/36
f 38/38/38 12/12/12 36/36/36
f 18/18/18 17/17/17 13/13/13
f 14/14/14 18/18/18 13/13/13
f 19/19/19 42/42/42 41/41/41
f 15/15/15 19/19/19 41/41/41
f 19/19/19 23/23/23 42/42/42
f 23/23/23 51/51/51 42/42/42
f 20/20/20 44/44/44 43/43/43
f 16/16/16 20/20/20 43/43/43
f 47/47/47 46/46/46 45/45/45
f 48/48/48 47/47/47 45/45/45
f 47/47/47 56/56/56 46/46/46
f 56/56/56 55/55/55 46/46/46
f 22/22/22 21/21/21 49/49/49
f 50/50/50 22/22/22 49/49/49
f 24/24/24 53/53/53 52/52/52
f 54/54/54 24/24/24 52/52/52
