g TradeFXLine_withJump
v 0.12555 0.5231242 3.52543
v -0.1030656 0.5231242 3.602398
v -0.12555 0.5231242 3.52543
v 0.1030656 0.5231242 3.602398
v -0.04278363 0.5231242 3.64816
v 0.04278363 0.5231242 3.64816
v 0.1255501 0.5231242 3.415201
v -0.1255499 0.5231242 3.411948
v 0.1255501 0.5231242 3.304974
v -0.1255499 0.5231242 3.298468
v 0.1255501 0.5231242 3.194747
v -0.1255499 0.5231242 3.184989
v 0.1255501 0.5231242 3.084521
v -0.1255499 0.5231242 3.07151
v 0.1255501 0.5231242 2.974294
v -0.1255499 0.5231242 2.95803
v 0.1255501 0.5231242 2.864068
v -0.1255499 0.5231242 2.844551
v 0.1255501 0.5231242 2.753841
v -0.1255499 0.5231242 2.731072
v 0.1255501 0.5231242 2.643615
v -0.1255499 0.5231242 2.617592
v 0.1255501 0.5231242 2.533388
v -0.1255499 0.5231242 2.504113
v 0.1255501 0.5231242 2.423162
v -0.1255499 0.5231242 2.390634
v 0.1255501 0.5231242 2.312936
v -0.1255499 0.5231242 2.277154
v 0.1255501 0.5231242 2.202709
v -0.1255499 0.5231242 2.163675
v 0.1255501 0.5231242 2.092483
v -0.1255499 0.5231242 2.050195
v 0.1255501 0.5231242 1.982256
v -0.1255499 0.5231242 1.936716
v 0.1255501 0.5231242 1.87203
v -0.1255499 0.5231242 1.823237
v 0.1255501 0.5231242 1.761803
v -0.1255499 0.5231242 1.709757
v 0.1255501 0.5231242 1.651577
v -0.1255499 0.5231242 1.596278
v 0.1255501 0.5231242 1.54135
v -0.1255499 0.5231242 1.482799
v 0.1255501 0.5231242 1.431124
v -0.1255499 0.5231242 1.369319
v 0.1255501 0.5231242 1.320897
v -0.1255499 0.5231242 1.25584
v 0.1255501 0.5231242 1.210671
v -0.1255499 0.5231242 1.14236
v 0.1255501 0.5231242 1.103304
v -0.1192616 0.5231242 1.029824
v 0.1304276 0.5231242 1.047666
v -0.09609207 0.5231242 0.9247721
v -0.03727142 0.5231242 0.8477907
v 0.1402722 0.5231242 1.038534
v 0.053255 0.5231242 0.8060739
v 0.1855659 0.5231242 1.025625
v 0.1634752 0.5231242 0.7748731
v 0.2627203 0.5231242 1.010599
v 0.2623326 0.5231242 0.7346217
v 0.3851137 0.5231242 0.9666079
v 0.3475467 0.5231242 0.6886191
v 0.501294 0.5231242 0.9060781
v 0.4275087 0.5231242 0.630834
v 0.6100266 0.5231242 0.830045
v 0.5009174 0.5231242 0.5622551
v 0.709555 0.5231242 0.7398096
v 0.5662909 0.5231242 0.4840559
v 0.7982479 0.5231242 0.6369159
v 0.6221834 0.5231242 0.3975743
v 0.8742003 0.5231242 0.5231244
v 0.6672323 0.5231242 0.3042902
v 0.9355151 0.5231242 0.400382
v 0.7002055 0.5231242 0.2057995
v 0.9804694 0.5231242 0.2707891
v 0.7204701 0.5231242 0.1037876
v 1.009028 0.5231242 0.1365628
v 0.7272909 0.5231242 -1.714935E-07
v 1.018682 0.5231242 -1.714935E-07
v 1.009028 0.5231242 -0.1365633
v 0.7204701 0.5231242 -0.1037881
v 0.9804694 0.5231242 -0.2707898
v 0.7002055 0.5231242 -0.2058002
v 0.9355151 0.5231242 -0.400383
v 0.6672323 0.5231242 -0.304291
v 0.8742003 0.5231242 -0.5231256
v 0.6221834 0.5231242 -0.3975753
v 0.7982479 0.5231242 -0.6369173
v 0.5662909 0.5231242 -0.484057
v 0.709555 0.5231242 -0.7398112
v 0.5009174 0.5231242 -0.5622563
v 0.6100266 0.5231242 -0.8300466
v 0.4275087 0.5231242 -0.6308353
v 0.501294 0.5231242 -0.9060798
v 0.3475467 0.5231242 -0.6886205
v 0.3851137 0.5231242 -0.9666098
v 0.2623326 0.5231242 -0.7346233
v 0.2627203 0.5231242 -1.010601
v 0.1634752 0.5231242 -0.7748746
v 0.1855659 0.5231242 -1.025627
v 0.053255 0.5231242 -0.8060755
v 0.1402722 0.5231242 -1.038536
v -0.03727142 0.5231242 -0.8477923
v 0.1304276 0.5231242 -1.047668
v -0.09609207 0.5231242 -0.924774
v -0.1192616 0.5231242 -1.029826
v 0.1255501 0.5231242 -1.103306
v 0.1255501 0.5231242 -1.210673
v -0.1255499 0.5231242 -1.142363
v -0.1255499 0.5231242 -1.255842
v 0.1255501 0.5231242 -1.3209
v -0.1192616 0.5231242 -1.029826
v -0.1255499 0.5231242 -1.369322
v 0.1255501 0.5231242 -1.431126
v -0.1255499 0.5231242 -1.482801
v 0.1255501 0.5231242 -1.541353
v -0.1255499 0.5231242 -1.596281
v 0.1255501 0.5231242 -1.65158
v -0.1255499 0.5231242 -1.70976
v 0.1255501 0.5231242 -1.761806
v -0.1255499 0.5231242 -1.82324
v 0.1255501 0.5231242 -1.872033
v -0.1255499 0.5231242 -1.936719
v 0.1255501 0.5231242 -1.98226
v -0.1255499 0.5231242 -2.050199
v 0.1255501 0.5231242 -2.092486
v -0.1255499 0.5231242 -2.163679
v 0.1255501 0.5231242 -2.202713
v -0.1255499 0.5231242 -2.277158
v 0.1255501 0.5231242 -2.31294
v -0.1255499 0.5231242 -2.390638
v 0.1255501 0.5231242 -2.423166
v -0.1255499 0.5231242 -2.504117
v 0.1255501 0.5231242 -2.533393
v -0.1255499 0.5231242 -2.617597
v 0.1255501 0.5231242 -2.64362
v -0.1255499 0.5231242 -2.731076
v 0.1255501 0.5231242 -2.753846
v -0.1255499 0.5231242 -2.844556
v 0.1255501 0.5231242 -2.864073
v -0.1255499 0.5231242 -2.958035
v 0.1255501 0.5231242 -2.9743
v -0.1255499 0.5231242 -3.071515
v 0.1255501 0.5231242 -3.084526
v -0.1255499 0.5231242 -3.184994
v 0.1255501 0.5231242 -3.194753
v -0.1255499 0.5231242 -3.298474
v 0.1255501 0.5231242 -3.30498
v -0.1255499 0.5231242 -3.411954
v 0.1255501 0.5231242 -3.415206
v -0.1255499 0.5231242 -3.525433
v 0.1255501 0.5231242 -3.525433
v 0.1030656 0.5231242 -3.602398
v -0.1030656 0.5231242 -3.602398
v 0.04278363 0.5231242 -3.64816
v -0.04278363 0.5231242 -3.64816
v 0.1020257 0.5953823 3.405952
v 0.12555 0.5231242 3.455059
v 0.09566782 0.5953823 3.456576
v 0.12555 0.5231242 3.52543
v 0.05454066 0.6739085 3.438856
v 0.08041093 0.6740996 3.364799
v 0.05482914 0.7657359 3.317173
v -0.09173471 0.6720848 3.518806
v -0.1981729 0.7570376 3.492944
v 0.02332959 0.8767509 3.259816
v -0.2446764 0.8550048 3.45487
v -0.01599884 1.013604 3.189443
v -0.3034745 0.9701117 3.412923
v -0.06358412 1.171165 3.109967
v -0.3735047 1.098481 3.369131
v -0.1194491 1.344305 3.025029
v -0.453934 1.236234 3.325677
v -0.1824642 1.527894 2.9375
v -0.5447417 1.379496 3.285288
v -0.2547995 1.716802 2.852458
v -0.647338 1.524388 3.25165
v -0.3371128 1.908724 2.771976
v -0.7571992 1.667491 3.224147
v -0.4582975 2.082168 2.730617
v -0.8432846 1.824574 3.17082
v -0.9074095 1.998768 3.090676
v -0.6143914 2.228278 2.731984
v -0.9114162 2.130696 3.000103
v -0.741454 2.269026 2.788368
v -0.8884281 2.254545 2.897143
v -0.8643934 2.276857 2.865256
v -0.1609534 0.6719252 3.528157
v -0.1300623 0.5953824 3.561553
v -0.09824897 0.5953824 3.574126
v -0.1056445 0.5231242 3.59357
v -0.1030656 0.5231242 3.602398
v -0.03002828 0.5953824 3.585283
v 0.04773521 0.5953823 3.554894
v 0.04278363 0.5231242 3.64816
v -0.04278363 0.5231242 3.64816
v 0.1030656 0.5231242 3.602398
vt 0.005510628 16.71935
vt 0.9969074 16.93937
vt 0.9969074 16.71935
vt 0.005510628 16.93937
vt 0.9969074 17.15857
vt 0.005510628 17.15857
vt 0.005510628 16.49312
vt 0.9969075 16.49312
vt 0.005510628 16.2669
vt 0.9969076 16.2669
vt 0.005510628 16.04067
vt 0.9969077 16.04067
vt 0.005510628 15.81444
vt 0.9969078 15.81444
vt 0.005510628 15.58822
vt 0.9969079 15.58822
vt 0.005510628 15.36199
vt 0.9969081 15.36199
vt 0.005510628 15.13577
vt 0.9969081 15.13577
vt 0.005510628 14.90954
vt 0.9969082 14.90954
vt 0.005510628 14.68331
vt 0.9969084 14.68332
vt 0.005510628 14.45709
vt 0.9969085 14.45709
vt 0.005510628 14.23086
vt 0.9969086 14.23086
vt 0.005510628 14.00464
vt 0.9969087 14.00464
vt 0.005510628 13.77841
vt 0.9969088 13.77841
vt 0.005510628 13.55218
vt 0.996909 13.55219
vt 0.005510628 13.32596
vt 0.996909 13.32596
vt 0.005510628 13.09973
vt 0.9969091 13.09973
vt 0.005510628 12.87351
vt 0.9969093 12.87351
vt 0.005510628 12.64728
vt 0.9969094 12.64728
vt 0.005510628 12.42105
vt 0.9969095 12.42106
vt 0.005510628 12.19483
vt 0.9969096 12.19483
vt 0.005510628 11.9686
vt 0.9969097 11.9686
vt 0.005510628 11.74238
vt 0.9969098 11.74238
vt 0.005510628 11.51615
vt 0.9969099 11.51615
vt 0.99691 11.28992
vt 0.005510628 11.28992
vt 0.99691 11.0637
vt 0.005510628 11.0637
vt 0.99691 10.83747
vt 0.005510628 10.83747
vt 0.9969102 10.61125
vt 0.005510628 10.61124
vt 0.9969103 10.38502
vt 0.005510628 10.38502
vt 0.9969103 10.15879
vt 0.005510628 10.15879
vt 0.9969102 9.932567
vt 0.005510628 9.932567
vt 0.9969103 9.706341
vt 0.005510628 9.706341
vt 0.9969103 9.480115
vt 0.005510628 9.480113
vt 0.9969103 9.253888
vt 0.005510628 9.253888
vt 0.9969103 9.027662
vt 0.005510628 9.027662
vt 0.9969103 8.801436
vt 0.005510628 8.801435
vt 0.9969104 8.575212
vt 0.005510628 8.57521
vt 0.005510628 8.348982
vt 0.9969105 8.348987
vt 0.005510628 8.122756
vt 0.9969107 8.122761
vt 0.005510628 7.896531
vt 0.9969108 7.896533
vt 0.005510628 7.670303
vt 0.996911 7.670308
vt 0.005510628 7.444078
vt 0.9969111 7.444082
vt 0.005510628 7.217853
vt 0.9969112 7.217854
vt 0.005510628 6.991625
vt 0.9969113 6.991627
vt 0.005510628 6.765398
vt 0.9969115 6.765402
vt 0.005510628 6.539172
vt 0.9969116 6.539176
vt 0.005510628 6.312946
vt 0.9969118 6.312951
vt 0.005510628 6.086719
vt 0.9969119 6.086723
vt 0.005510628 5.860496
vt 0.9969121 5.860496
vt 0.005510628 5.634268
vt 0.9969121 5.63427
vt 0.9969122 5.408044
vt 0.005510628 5.408042
vt 0.005510628 5.181817
vt 0.9969123 5.181817
vt 0.9969125 4.955593
vt 0.005510628 4.955589
vt 0.9969122 5.408044
vt 0.9969126 4.729365
vt 0.005510628 4.729363
vt 0.9969128 4.50314
vt 0.005510628 4.503136
vt 0.9969129 4.276915
vt 0.005510628 4.27691
vt 0.9969131 4.050689
vt 0.005510628 4.050685
vt 0.9969134 3.824463
vt 0.005510628 3.82446
vt 0.9969136 3.598238
vt 0.005510628 3.598234
vt 0.9969138 3.372011
vt 0.005510628 3.372006
vt 0.996914 3.145785
vt 0.005510628 3.145781
vt 0.9969142 2.919559
vt 0.005510628 2.919553
vt 0.9969146 2.693334
vt 0.005510628 2.693326
vt 0.996915 2.467109
vt 0.005510628 2.4671
vt 0.9969153 2.240883
vt 0.005510628 2.240875
vt 0.9969155 2.014655
vt 0.005510628 2.014653
vt 0.9969155 1.788428
vt 0.005510628 1.788428
vt 0.9969156 1.562204
vt 0.005510628 1.562201
vt 0.9969158 1.335974
vt 0.005510628 1.335972
vt 0.9969159 1.109748
vt 0.005510628 1.109744
vt 0.996916 0.8835211
vt 0.005510628 0.8835211
vt 0.996916 0.6572933
vt 0.005510628 0.6572933
vt 0.996916 0.4310684
vt 0.005510628 0.4310665
vt 0.005510628 0.2088575
vt 0.9969161 0.2088614
vt 0.005510628 0.002905846
vt 0.9969162 0.00290966
vt 0.9969441 17.50529
vt 0.9969074 17.15857
vt 0.8989965 17.43704
vt 0.9494051 17.15856
vt 0.7825226 17.62437
vt 0.9969441 17.73066
vt 0.9969041 17.89079
vt 0.2276161 17.65571
vt 0.005510628 17.89078
vt 0.9969041 18.07229
vt 0.005510628 18.07229
vt 0.9969041 18.34387
vt 0.005510628 18.34387
vt 0.9969041 18.59028
vt 0.005510628 18.59028
vt 0.9969041 18.83669
vt 0.005510628 18.83669
vt 0.9969041 19.05
vt 0.005510628 19.05
vt 0.9969041 19.23803
vt 0.005510628 19.23803
vt 0.9969041 19.40527
vt 0.005510628 19.40527
vt 0.9969041 19.53682
vt 0.005510628 19.53682
vt 0.005510628 19.6372
vt 0.9969041 19.6372
vt 0.005510628 19.68739
vt 0.9969041 19.68739
vt 0.005510628 19.72567
vt 0.9969041 19.72567
vt 0.005510628 17.73085
vt 0.005510628 17.49717
vt 0.1124902 17.43915
vt 0.005510628 17.15857
vt 0.06072649 17.15856
vt 0.346806 17.39081
vt 0.6250292 17.38836
vt 0.637144 17.15856
vt 0.3976356 17.15856
vt 0.8254573 17.15856
vn 0 1 1.137316E-07
vn 0 1 5.636595E-07
vn 0 1 1.137317E-07
vn 0 1 5.636595E-07
vn 0 1 -9.144786E-07
vn 0 1 -9.144786E-07
vn 0 1 0
vn 0 1 0
vn 0 1 0
vn 0 1 0
vn 0 1 0
vn 0 1 0
vn 0 1 0
vn 0 1 0
vn 0 1 0
vn 0 1 0
vn 0 1 0
vn 0 1 0
vn 0 1 0
vn 0 1 0
vn 0 1 0
vn 0 1 0
vn 0 1 0
vn 0 1 0
vn 0 1 0
vn 0 1 0
vn 0 1 0
vn 0 1 0
vn 0 1 0
vn 0 1 0
vn 0 1 0
vn 0 1 0
vn 0 1 0
vn 0 1 0
vn 0 1 0
vn 0 1 0
vn 0 1 0
vn 0 1 0
vn 0 1 0
vn 0 1 0
vn 0 1 0
vn 0 1 0
vn 0 1 0
vn 0 1 0
vn 0 1 0
vn 0 1 0
vn 0 1 0
vn 0 1 0
vn 0 1 0
vn 0 1 0
vn 0 1 0
vn 0 1 0
vn 0 1 0
vn 0 1 0
vn 0 1 1.287213E-07
vn 0 1 1.67895E-07
vn 0 1 0
vn 0 1 0
vn 0 1 -1.036411E-07
vn 0 1 0
vn 0 1 0
vn 0 1 0
vn 0 1 -1.883741E-07
vn 0 1 -2.033001E-07
vn 0 1 0
vn 0 1 0
vn 0 1 0
vn 0 1 0
vn 0 1 -1.866636E-07
vn 0 1 -1.73392E-07
vn 0 1 0
vn 0 1 0
vn 0 1 0
vn 0 1 0
vn 0 1 0
vn 0 1 0
vn 0 1 0
vn 0 1 0
vn 0 1 0
vn 0 1 0
vn 0 1 -1.637363E-07
vn 0 1 -1.664532E-07
vn 0 1 0
vn 0 1 0
vn 0 1 1.141073E-07
vn 0 1 1.125341E-07
vn 0 1 0
vn 0 1 0
vn 0 1 0
vn 0 1 0
vn 0 1 1.060579E-07
vn 0 1 0
vn 0 1 0
vn 0 1 0
vn 0 1 0
vn 0 1 1.036409E-07
vn 0 1 0
vn 0 1 0
vn 0 1 -1.678946E-07
vn 0 1 -1.287212E-07
vn 0 1 0
vn 0 1 0
vn 0 1 0
vn 0 1 0
vn 0 1 1.126861E-07
vn 0 1 1.126861E-07
vn 0 1 0
vn 0 1 0
vn 0 1 0
vn 0 1 0
vn 0 1 0
vn 0 1 0
vn 0 1 0
vn 0 1 0
vn 0 1 0
vn 0 1 0
vn 0 1 0
vn 0 1 0
vn 0 1 0
vn 0 1 0
vn 0 1 0
vn 0 1 0
vn 0 1 0
vn 0 1 0
vn 0 1 0
vn 0 1 0
vn 0 1 0
vn 0 1 0
vn 0 1 0
vn 0 1 0
vn 0 1 0
vn 0 1 0
vn 0 1 0
vn 0 1 0
vn 0 1 0
vn 0 1 0
vn 0 1 0
vn 0 1 0
vn 0 1 0
vn 0 1 0
vn 0 1 0
vn 0 1 0
vn 0 1 0
vn 0 1 0
vn 0 1 0
vn 0 1 0
vn 0 1 0
vn 0 1 0
vn 0 1 0
vn 0 1 0
vn 0 1 0
vn 0 1 -7.371196E-07
vn 0 1 -7.371195E-07
vn 0 1 9.144786E-07
vn 0 1 9.144786E-07
vn 0.8915648 0.4186562 0.1727403
vn 0.9233683 0.3808367 0.04852011
vn 0.8301316 0.4992743 0.2482069
vn 0.8504534 0.4976234 0.1705869
vn 0.4469531 0.701421 0.5551951
vn 0.8695225 0.4155556 0.2669161
vn 0.4545724 0.5797265 0.6762255
vn 0.3067768 0.7137572 0.6296338
vn 0.4411696 0.576704 0.6875914
vn 0.4802133 0.5063213 0.7162638
vn 0.4802134 0.5063213 0.7162638
vn 0.4802128 0.506322 0.7162637
vn 0.4802128 0.506322 0.7162637
vn 0.4802136 0.5063224 0.7162629
vn 0.4802136 0.5063223 0.716263
vn 0.4802144 0.5063218 0.7162628
vn 0.4802143 0.5063219 0.7162627
vn 0.4802139 0.5063223 0.7162627
vn 0.480214 0.5063221 0.7162628
vn 0.4802147 0.5063223 0.7162623
vn 0.4802145 0.5063223 0.7162624
vn 0.4802143 0.5063224 0.7162624
vn 0.4802144 0.5063223 0.7162625
vn 0.4802131 0.5063234 0.7162625
vn 0.4802132 0.5063233 0.7162625
vn 0.4802136 0.5063234 0.7162623
vn 0.4802137 0.5063232 0.7162623
vn 0.4802153 0.5063221 0.716262
vn 0.4802153 0.5063221 0.7162619
vn 0.4802141 0.5063232 0.7162619
vn 0.4802141 0.5063233 0.716262
vn 0.04949213 0.4606619 0.8861947
vn -0.1069827 0.4705108 0.8758848
vn -0.2327818 0.515919 0.8244029
vn -0.5084083 0.2719047 0.8170611
vn -0.3707277 0.494248 0.7863077
vn 0.1144867 0.7320689 0.6715415
vn 0.3844537 0.7461186 0.5436013
vn 0.314108 0.7395677 0.5952947
vn -0.05389901 0.6696846 0.7406871
vn 0.587832 0.6986842 0.4077916
g TradeFXLine_withJump_0
f 3/3/3 2/2/2 1/1/1
f 2/2/2 4/4/4 1/1/1
f 2/2/2 5/5/5 4/4/4
f 5/5/5 6/6/6 4/4/4
f 1/1/1 7/7/7 3/3/3
f 7/7/7 8/8/8 3/3/3
f 7/7/7 9/9/9 8/8/8
f 9/9/9 10/10/10 8/8/8
f 9/9/9 11/11/11 10/10/10
f 11/11/11 12/12/12 10/10/10
f 11/11/11 13/13/13 12/12/12
f 13/13/13 14/14/14 12/12/12
f 13/13/13 15/15/15 14/14/14
f 15/15/15 16/16/16 14/14/14
f 15/15/15 17/17/17 16/16/16
f 17/17/17 18/18/18 16/16/16
f 17/17/17 19/19/19 18/18/18
f 19/19/19 20/20/20 18/18/18
f 19/19/19 21/21/21 20/20/20
f 21/21/21 22/22/22 20/20/20
f 21/21/21 23/23/23 22/22/22
f 23/23/23 24/24/24 22/22/22
f 23/23/23 25/25/25 24/24/24
f 25/25/25 26/26/26 24/24/24
f 25/25/25 27/27/27 26/26/26
f 27/27/27 28/28/28 26/26/26
f 27/27/27 29/29/29 28/28/28
f 29/29/29 30/30/30 28/28/28
f 29/29/29 31/31/31 30/30/30
f 31/31/31 32/32/32 30/30/30
f 31/31/31 33/33/33 32/32/32
f 33/33/33 34/34/34 32/32/32
f 33/33/33 35/35/35 34/34/34
f 35/35/35 36/36/36 34/34/34
f 35/35/35 37/37/37 36/36/36
f 37/37/37 38/38/38 36/36/36
f 37/37/37 39/39/39 38/38/38
f 39/39/39 40/40/40 38/38/38
f 39/39/39 41/41/41 40/40/40
f 41/41/41 42/42/42 40/40/40
f 41/41/41 43/43/43 42/42/42
f 43/43/43 44/44/44 42/42/42
f 43/43/43 45/45/45 44/44/44
f 45/45/45 46/46/46 44/44/44
f 45/45/45 47/47/47 46/46/46
f 47/47/47 48/48/48 46/46/46
f 47/47/47 49/49/49 48/48/48
f 49/49/49 50/50/50 48/48/48
f 50/50/50 49/49/49 51/51/51
f 51/51/51 52/52/52 50/50/50
f 51/51/51 53/53/53 52/52/52
f 53/53/53 51/51/51 54/54/54
f 54/54/54 55/55/55 53/53/53
f 55/55/55 54/54/54 56/56/56
f 56/56/56 57/57/57 55/55/55
f 57/57/57 56/56/56 58/58/58
f 57/57/57 58/58/58 59/59/59
f 59/59/59 58/58/58 60/60/60
f 60/60/60 61/61/61 59/59/59
f 61/61/61 60/60/60 62/62/62
f 62/62/62 63/63/63 61/61/61
f 63/63/63 62/62/62 64/64/64
f 64/64/64 65/65/65 63/63/63
f 64/64/64 66/66/66 65/65/65
f 66/66/66 67/67/67 65/65/65
f 66/66/66 68/68/68 67/67/67
f 68/68/68 69/69/69 67/67/67
f 68/68/68 70/70/70 69/69/69
f 71/71/71 69/69/69 70/70/70
f 70/70/70 72/72/72 71/71/71
f 73/73/73 71/71/71 72/72/72
f 72/72/72 74/74/74 73/73/73
f 75/75/75 73/73/73 74/74/74
f 74/74/74 76/76/76 75/75/75
f 77/77/77 75/75/75 76/76/76
f 76/76/76 78/78/78 77/77/77
f 78/78/78 79/79/79 77/77/77
f 79/79/79 80/80/80 77/77/77
f 80/80/80 79/79/79 81/81/81
f 81/81/81 82/82/82 80/80/80
f 82/82/82 81/81/81 83/83/83
f 83/83/83 84/84/84 82/82/82
f 84/84/84 83/83/83 85/85/85
f 85/85/85 86/86/86 84/84/84
f 86/86/86 85/85/85 87/87/87
f 87/87/87 88/88/88 86/86/86
f 88/88/88 87/87/87 89/89/89
f 89/89/89 90/90/90 88/88/88
f 90/90/90 89/89/89 91/91/91
f 91/91/91 92/92/92 90/90/90
f 92/92/92 91/91/91 93/93/93
f 94/94/94 92/92/92 93/93/93
f 94/94/94 93/93/93 95/95/95
f 96/96/96 94/94/94 95/95/95
f 96/96/96 95/95/95 97/97/97
f 98/98/98 96/96/96 97/97/97
f 97/97/97 99/99/99 98/98/98
f 100/100/100 98/98/98 99/99/99
f 99/99/99 101/101/101 100/100/100
f 102/102/102 100/100/100 101/101/101
f 102/102/102 101/101/101 103/103/103
f 103/103/103 104/104/104 102/102/102
f 105/105/105 104/104/104 103/103/103
f 103/103/103 106/106/106 105/105/105
f 108/108/108 106/106/106 107/107/107
f 107/107/107 109/109/109 108/108/108
f 109/109/109 107/107/107 110/110/110
f 106/106/106 108/108/108 111/111/111
f 110/110/110 112/112/112 109/109/109
f 112/112/112 110/110/110 113/113/113
f 113/113/113 114/114/114 112/112/112
f 114/114/114 113/113/113 115/115/115
f 115/115/115 116/116/116 114/114/114
f 116/116/116 115/115/115 117/117/117
f 117/117/117 118/118/118 116/116/116
f 118/118/118 117/117/117 119/119/119
f 119/119/119 120/120/120 118/118/118
f 120/120/120 119/119/119 121/121/121
f 121/121/121 122/122/122 120/120/120
f 122/122/122 121/121/121 123/123/123
f 123/123/123 124/124/124 122/122/122
f 124/124/124 123/123/123 125/125/125
f 125/125/125 126/126/126 124/124/124
f 126/126/126 125/125/125 127/127/127
f 127/127/127 128/128/128 126/126/126
f 128/128/128 127/127/127 129/129/129
f 129/129/129 130/130/130 128/128/128
f 130/130/130 129/129/129 131/131/131
f 131/131/131 132/132/132 130/130/130
f 132/132/132 131/131/131 133/133/133
f 133/133/133 134/134/134 132/132/132
f 134/134/134 133/133/133 135/135/135
f 135/135/135 136/136/136 134/134/134
f 136/136/136 135/135/135 137/137/137
f 137/137/137 138/138/138 136/136/136
f 138/138/138 137/137/137 139/139/139
f 139/139/139 140/140/140 138/138/138
f 140/140/140 139/139/139 141/141/141
f 141/141/141 142/142/142 140/140/140
f 142/142/142 141/141/141 143/143/143
f 143/143/143 144/144/144 142/142/142
f 144/144/144 143/143/143 145/145/145
f 145/145/145 146/146/146 144/144/144
f 146/146/146 145/145/145 147/147/147
f 147/147/147 148/148/148 146/146/146
f 148/148/148 147/147/147 149/149/149
f 149/149/149 150/150/150 148/148/148
f 150/150/150 149/149/149 151/151/151
f 151/151/151 152/152/152 150/150/150
f 152/152/152 153/153/153 150/150/150
f 152/152/152 154/154/154 153/153/153
f 154/154/154 155/155/155 153/153/153
f 158/158/158 157/157/157 156/156/156
f 159/159/159 157/157/157 158/158/158
f 158/158/158 156/156/156 160/160/160
f 156/156/156 161/161/161 160/160/160
f 162/162/162 160/160/160 161/161/161
f 163/163/163 160/160/160 162/162/162
f 162/162/162 164/164/164 163/163/163
f 164/164/164 162/162/162 165/165/165
f 165/165/165 166/166/166 164/164/164
f 166/166/166 165/165/165 167/167/167
f 167/167/167 168/168/168 166/166/166
f 167/167/167 169/169/169 168/168/168
f 170/170/170 168/168/168 169/169/169
f 170/170/170 169/169/169 171/171/171
f 171/171/171 172/172/172 170/170/170
f 171/171/171 173/173/173 172/172/172
f 174/174/174 172/172/172 173/173/173
f 174/174/174 173/173/173 175/175/175
f 175/175/175 176/176/176 174/174/174
f 176/176/176 175/175/175 177/177/177
f 177/177/177 178/178/178 176/176/176
f 178/178/178 177/177/177 179/179/179
f 179/179/179 180/180/180 178/178/178
f 179/179/179 181/181/181 180/180/180
f 182/182/182 181/181/181 179/179/179
f 182/182/182 183/183/183 181/181/181
f 182/182/182 184/184/184 183/183/183
f 184/184/184 185/185/185 183/183/183
f 184/184/184 186/186/186 185/185/185
f 164/164/164 187/187/187 163/163/163
f 163/163/163 187/187/187 188/188/188
f 188/188/188 189/189/189 163/163/163
f 190/190/190 189/189/189 188/188/188
f 190/190/190 191/191/191 189/189/189
f 163/163/163 189/189/189 192/192/192
f 163/163/163 192/192/192 193/193/193
f 163/163/163 193/193/193 160/160/160
f 194/194/194 193/193/193 192/192/192
f 192/192/192 195/195/195 194/194/194
f 189/189/189 195/195/195 192/192/192
f 191/191/191 195/195/195 189/189/189
f 193/193/193 194/194/194 196/196/196
f 158/158/158 193/193/193 196/196/196
f 160/160/160 193/193/193 158/158/158
f 196/196/196 159/159/159 158/158/158
