g trading_arrows_distance_geo
v -0.3905428 0.006488571 2.792597
v -0.2742702 0.006488571 3.144768
v -0.3832174 0.006488571 3.267392
v -0.2805402 0.006488571 2.792597
v 0.4711691 0.006488571 3.275691
v 0.6260185 0.006488571 3.161254
v -0.2258882 0.006488571 5.034657
v -0.2535855 0.006488571 4.787498
v -1.163901 0.006488571 3.075256
v -0.9604716 0.006488571 3.233039
v -0.4707733 0.006488571 3.13221
v -0.4737723 0.006488571 3.267392
v -0.3954235 0.006488571 2.476263
v -0.4054981 0.006488571 1.82328
v -0.2955866 0.006488571 1.82328
v -0.2854506 0.006488571 2.476263
v -0.425334 0.006488571 0.5376272
v -0.4354087 0.006488571 -0.1153558
v -0.3256793 0.006488571 -0.1153558
v -0.3155433 0.006488571 0.5376272
v -0.4103787 0.006488571 1.506945
v -0.4204534 0.006488571 0.8539618
v -0.3106329 0.006488571 0.8539618
v -0.3004969 0.006488571 1.506945
v -0.4402893 0.006488571 -0.4316906
v -0.450364 0.006488571 -1.084674
v -0.3407256 0.006488571 -1.084674
v -0.3305896 0.006488571 -0.4316906
v -0.4208678 0.006488571 -6.284168
v -0.530021 0.006488571 -6.284168
v -0.536253 0.006488571 -6.905235
v -0.4282378 0.006488571 -6.976101
v -1.012785 0.006488571 -6.986011
v -1.114375 0.006488571 -6.915144
v -0.5025051 0.006488571 -8.032771
v -0.5002254 0.006488571 -7.885459
v 0.210274 0.006488571 -6.923845
v 0.06436838 0.006488571 -6.991098
v -0.3373497 0.006488571 -6.905235
v -0.3384552 0.006488571 -6.976102
v -0.5150656 0.006488571 -5.27828
v -0.5251403 0.006488571 -5.931263
v -0.4159574 0.006488571 -5.931263
v -0.4058214 0.006488571 -5.27828
v -0.4851551 0.006488571 -3.339644
v -0.4952298 0.006488571 -3.992627
v -0.3858647 0.006488571 -3.992627
v -0.3757287 0.006488571 -3.339644
v -0.5001103 0.006488571 -4.308962
v -0.5101851 0.006488571 -4.961946
v -0.400911 0.006488571 -4.961946
v -0.390775 0.006488571 -4.308962
v -0.4701998 0.006488571 -2.370326
v -0.4802745 0.006488571 -3.023309
v -0.3708183 0.006488571 -3.023309
v -0.3606823 0.006488571 -2.370326
v -0.4552445 0.006488571 -1.401008
v -0.4653192 0.006488571 -2.053992
v -0.355772 0.006488571 -2.053992
v -0.345636 0.006488571 -1.401008
v -0.3602742 0.01376125 -1.9224
v 0.7244794 0.01376125 -2.438861
v 0.7820002 0.01376125 -2.341175
v -0.3976389 0.01376125 -2.029203
v 0.7820002 0.01376125 -2.341175
v 0.7244794 0.01376125 -2.438861
v 0.9126245 0.01376125 -2.663206
v 0.8409767 0.01376125 -2.731518
vt 0.1178593 0.2897569
vt 0.1294459 0.2334445
vt 0.1180678 0.2231248
vt 0.1292688 0.2901098
vt 0.1729544 0.2249447
vt 0.1824302 0.2351837
vt 0.1243324 0.04459782
vt 0.1242677 0.0652646
vt 0.06482334 0.2313231
vt 0.07443028 0.2216777
vt 0.1103204 0.2328165
vt 0.1103515 0.2228688
vt 0.1177203 0.3341526
vt 0.1174335 0.4257989
vt 0.1288437 0.4261001
vt 0.12913 0.3344885
vt 0.1168688 0.606257
vt 0.1165819 0.69792
vt 0.1279935 0.6981173
vt 0.1282798 0.6064893
vt 0.1172946 0.4701986
vt 0.1170078 0.5618533
vt 0.1284187 0.5621024
vt 0.1287049 0.4704828
vt 0.1164429 0.7423277
vt 0.1161562 0.8339989
vt 0.1275683 0.8341444
vt 0.1278547 0.742508
vt 0.1179249 0.2907575
vt 0.1293405 0.2906079
vt 0.1294886 0.2338712
vt 0.1180984 0.2240916
vt 0.1731782 0.2232472
vt 0.1827334 0.2330726
vt 0.1242714 0.04509967
vt 0.1242176 0.06579053
vt 0.06505674 0.234837
vt 0.07459462 0.2247585
vt 0.1103615 0.2341578
vt 0.1103875 0.2242098
vt 0.1289855 0.426753
vt 0.1292245 0.3350398
vt 0.1178089 0.3351724
vt 0.1175705 0.4268508
vt 0.1282758 0.699006
vt 0.1285149 0.6073096
vt 0.1171007 0.6073385
vt 0.1168619 0.6989999
vt 0.1286308 0.5628857
vt 0.1288697 0.4711807
vt 0.117455 0.4712613
vt 0.1172162 0.5629313
vt 0.1279209 0.8351142
vt 0.1281599 0.7434258
vt 0.1167463 0.7434028
vt 0.1165076 0.8350562
vt 0.1160172 0.8784106
vt 0.1157302 0.97009
vt 0.1271431 0.9701836
vt 0.1274296 0.878539
vt 0.1520253 0.8257198
vt 0.1109111 0.8209357
vt 0.1109111 0.8260541
vt 0.1520096 0.8206015
vt 0.1109111 0.8260541
vt 0.1109111 0.8209357
vt 0.1057927 0.8260542
vt 0.1057927 0.8209357
vn 0 1 0
vn 0 1 0
vn 0 1 0
vn 0 1 0
vn 0 1 0
vn 0 1 0
vn 0 1 0
vn 0 1 0
vn 0 1 0
vn 0 1 0
vn 0 1 0
vn 0 1 0
vn 0 1 0
vn 0 1 0
vn 0 1 0
vn 0 1 0
vn 0 1 0
vn 0 1 0
vn 0 1 0
vn 0 1 0
vn 0 1 0
vn 0 1 0
vn 0 1 0
vn 0 1 0
vn 0 1 0
vn 0 1 0
vn 0 1 0
vn 0 1 0
vn 0 1 0
vn 0 1 0
vn 0 1 0
vn 0 1 0
vn 0 1 0
vn 0 1 0
vn 0 1 0
vn 0 1 0
vn 0 1 0
vn 0 1 0
vn 0 1 0
vn 0 1 0
vn 0 1 0
vn 0 1 0
vn 0 1 0
vn 0 1 0
vn 0 1 0
vn 0 1 0
vn 0 1 0
vn 0 1 0
vn 0 1 0
vn 0 1 0
vn 0 1 0
vn 0 1 0
vn 0 1 0
vn 0 1 0
vn 0 1 0
vn 0 1 0
vn 0 1 0
vn 0 1 0
vn 0 1 0
vn 0 1 0
vn 0 1 0
vn 0 1 0
vn 0 1 0
vn 0 1 0
vn 0 1 0
vn 0 1 0
vn 0 1 0
vn 0 1 0
g trading_arrows_distance_geo_0
f 3/3/3 2/2/2 1/1/1
f 4/4/4 1/1/1 2/2/2
f 2/2/2 3/3/3 5/5/5
f 5/5/5 6/6/6 2/2/2
f 6/6/6 5/5/5 7/7/7
f 5/5/5 8/8/8 7/7/7
f 7/7/7 8/8/8 9/9/9
f 8/8/8 10/10/10 9/9/9
f 9/9/9 10/10/10 11/11/11
f 12/12/12 11/11/11 10/10/10
f 15/15/15 14/14/14 13/13/13
f 13/13/13 16/16/16 15/15/15
f 19/19/19 18/18/18 17/17/17
f 17/17/17 20/20/20 19/19/19
f 23/23/23 22/22/22 21/21/21
f 21/21/21 24/24/24 23/23/23
f 27/27/27 26/26/26 25/25/25
f 25/25/25 28/28/28 27/27/27
f 31/31/31 30/30/30 29/29/29
f 32/32/32 31/31/31 29/29/29
f 31/31/31 32/32/32 33/33/33
f 33/33/33 34/34/34 31/31/31
f 35/35/35 34/34/34 33/33/33
f 33/33/33 36/36/36 35/35/35
f 37/37/37 35/35/35 36/36/36
f 36/36/36 38/38/38 37/37/37
f 37/37/37 38/38/38 39/39/39
f 38/38/38 40/40/40 39/39/39
f 43/43/43 42/42/42 41/41/41
f 41/41/41 44/44/44 43/43/43
f 47/47/47 46/46/46 45/45/45
f 45/45/45 48/48/48 47/47/47
f 51/51/51 50/50/50 49/49/49
f 49/49/49 52/52/52 51/51/51
f 55/55/55 54/54/54 53/53/53
f 53/53/53 56/56/56 55/55/55
f 59/59/59 58/58/58 57/57/57
f 57/57/57 60/60/60 59/59/59
f 63/63/63 62/62/62 61/61/61
f 64/64/64 61/61/61 62/62/62
f 67/67/67 66/66/66 65/65/65
f 66/66/66 67/67/67 68/68/68
